BigshotOne.ufo
<glyph name="exclam" format="1">
  <advance width="312"/>
  <unicode hex="0021"/>
  <outline>
    <contour>
      <point x="268" y="492" type="line"/>
      <point x="268" y="548"/>
      <point x="241" y="586"/>
      <point x="186" y="586" type="curve" smooth="yes"/>
      <point x="127" y="586"/>
      <point x="100" y="549"/>
      <point x="100" y="492" type="curve"/>
      <point x="160" y="198" type="line"/>
      <point x="213" y="198" type="line"/>
    </contour>
    <contour>
      <point x="106" y="62" type="curve" smooth="yes"/>
      <point x="106" y="2"/>
      <point x="129" y="-24"/>
      <point x="189" y="-24" type="curve" smooth="yes"/>
      <point x="248" y="-24"/>
      <point x="272" y="2"/>
      <point x="272" y="62" type="curve" smooth="yes"/>
      <point x="272" y="121"/>
      <point x="252" y="149"/>
      <point x="189" y="149" type="curve" smooth="yes"/>
      <point x="129" y="149"/>
      <point x="106" y="121"/>
    </contour>
  </outline>
</glyph>
<glyph name="percent" format="1">
  <advance width="817"/>
  <unicode hex="0025"/>
  <outline>
    <contour>
      <point x="582" y="577" type="line"/>
      <point x="516" y="577" type="line"/>
      <point x="236" y="0" type="line"/>
      <point x="302" y="0" type="line"/>
    </contour>
    <contour>
      <point x="177" y="442" type="curve" smooth="yes"/>
      <point x="177" y="498"/>
      <point x="186" y="545"/>
      <point x="186" y="545" type="curve"/>
      <point x="191" y="547"/>
      <point x="198" y="549"/>
      <point x="204" y="549" type="curve" smooth="yes"/>
      <point x="210" y="549"/>
      <point x="216" y="548"/>
      <point x="222" y="545" type="curve"/>
      <point x="222" y="545"/>
      <point x="231" y="501"/>
      <point x="231" y="442" type="curve" smooth="yes"/>
      <point x="231" y="388"/>
      <point x="222" y="340"/>
      <point x="222" y="340" type="curve"/>
      <point x="217" y="338"/>
      <point x="211" y="336"/>
      <point x="204" y="336" type="curve" smooth="yes"/>
      <point x="197" y="336"/>
      <point x="191" y="338"/>
      <point x="186" y="340" type="curve"/>
      <point x="186" y="340"/>
      <point x="177" y="385"/>
    </contour>
    <contour>
      <point x="50" y="443" type="curve" smooth="yes"/>
      <point x="50" y="340"/>
      <point x="90" y="300"/>
      <point x="205" y="300" type="curve" smooth="yes"/>
      <point x="318" y="300"/>
      <point x="357" y="340"/>
      <point x="357" y="443" type="curve" smooth="yes"/>
      <point x="357" y="546"/>
      <point x="318" y="586"/>
      <point x="205" y="586" type="curve" smooth="yes"/>
      <point x="90" y="586"/>
      <point x="50" y="546"/>
    </contour>
    <contour>
      <point x="587" y="133" type="curve" smooth="yes"/>
      <point x="587" y="189"/>
      <point x="596" y="236"/>
      <point x="596" y="236" type="curve"/>
      <point x="601" y="238"/>
      <point x="608" y="240"/>
      <point x="614" y="240" type="curve" smooth="yes"/>
      <point x="620" y="240"/>
      <point x="626" y="239"/>
      <point x="632" y="236" type="curve"/>
      <point x="632" y="236"/>
      <point x="641" y="192"/>
      <point x="641" y="133" type="curve" smooth="yes"/>
      <point x="641" y="79"/>
      <point x="632" y="31"/>
      <point x="632" y="31" type="curve"/>
      <point x="627" y="29"/>
      <point x="621" y="27"/>
      <point x="614" y="27" type="curve" smooth="yes"/>
      <point x="607" y="27"/>
      <point x="601" y="29"/>
      <point x="596" y="31" type="curve"/>
      <point x="596" y="31"/>
      <point x="587" y="76"/>
    </contour>
    <contour>
      <point x="460" y="134" type="curve" smooth="yes"/>
      <point x="460" y="31"/>
      <point x="500" y="-9"/>
      <point x="615" y="-9" type="curve" smooth="yes"/>
      <point x="728" y="-9"/>
      <point x="767" y="31"/>
      <point x="767" y="134" type="curve" smooth="yes"/>
      <point x="767" y="237"/>
      <point x="728" y="277"/>
      <point x="615" y="277" type="curve" smooth="yes"/>
      <point x="500" y="277"/>
      <point x="460" y="237"/>
    </contour>
  </outline>
</glyph>
<glyph name="ampersand" format="1">
  <advance width="610"/>
  <unicode hex="0026"/>
  <outline>
    <contour>
      <point x="318" y="559" type="curve" smooth="yes"/>
      <point x="377" y="559"/>
      <point x="435" y="548"/>
      <point x="435" y="501" type="curve" smooth="yes"/>
      <point x="435" y="495" type="line"/>
      <point x="495" y="495" type="line"/>
      <point x="495" y="502" type="line" smooth="yes"/>
      <point x="495" y="598"/>
      <point x="389" y="617"/>
      <point x="318" y="617" type="curve" smooth="yes"/>
      <point x="146" y="617"/>
      <point x="66" y="579"/>
      <point x="66" y="474" type="curve" smooth="yes"/>
      <point x="66" y="407"/>
      <point x="99" y="368"/>
      <point x="168" y="348" type="curve"/>
      <point x="84" y="328"/>
      <point x="45" y="267"/>
      <point x="45" y="180" type="curve" smooth="yes"/>
      <point x="45" y="40"/>
      <point x="129" y="-2"/>
      <point x="274" y="-2" type="curve" smooth="yes"/>
      <point x="411" y="-2"/>
      <point x="496" y="40"/>
      <point x="496" y="181" type="curve" smooth="yes"/>
      <point x="496" y="319" type="line"/>
      <point x="600" y="319" type="line"/>
      <point x="600" y="377" type="line"/>
      <point x="254" y="377" type="line"/>
      <point x="254" y="377"/>
      <point x="245" y="417"/>
      <point x="245" y="472" type="curve" smooth="yes"/>
      <point x="245" y="527"/>
      <point x="260" y="555"/>
      <point x="260" y="555" type="curve"/>
      <point x="260" y="555"/>
      <point x="287" y="559"/>
    </contour>
    <contour>
      <point x="247" y="61" type="curve"/>
      <point x="247" y="61"/>
      <point x="231" y="110"/>
      <point x="231" y="183" type="curve" smooth="yes"/>
      <point x="231" y="254"/>
      <point x="252" y="319"/>
      <point x="252" y="319" type="curve"/>
      <point x="438" y="319" type="line"/>
      <point x="438" y="188" type="line" smooth="yes"/>
      <point x="438" y="91"/>
      <point x="387" y="56"/>
      <point x="279" y="56" type="curve" smooth="yes"/>
      <point x="257" y="56"/>
      <point x="247" y="61"/>
    </contour>
  </outline>
</glyph>
<glyph name="parenleft" format="1">
  <advance width="392"/>
  <unicode hex="0028"/>
  <outline>
    <contour>
      <point x="322" y="-74" type="line"/>
      <point x="257" y="-65"/>
      <point x="224" y="-32"/>
      <point x="224" y="-32" type="curve"/>
      <point x="224" y="-32"/>
      <point x="206" y="132"/>
      <point x="206" y="272" type="curve" smooth="yes"/>
      <point x="206" y="413"/>
      <point x="224" y="577"/>
      <point x="224" y="577" type="curve"/>
      <point x="224" y="577"/>
      <point x="257" y="610"/>
      <point x="322" y="619" type="curve"/>
      <point x="322" y="680" type="line"/>
      <point x="136" y="659"/>
      <point x="35" y="504"/>
      <point x="35" y="272" type="curve" smooth="yes"/>
      <point x="35" y="41"/>
      <point x="136" y="-114"/>
      <point x="322" y="-135" type="curve"/>
    </contour>
  </outline>
</glyph>
<glyph name="parenright" format="1">
  <advance width="392"/>
  <unicode hex="0029"/>
  <outline>
    <contour>
      <point x="70" y="-135" type="line"/>
      <point x="256" y="-114"/>
      <point x="357" y="41"/>
      <point x="357" y="272" type="curve" smooth="yes"/>
      <point x="357" y="504"/>
      <point x="256" y="659"/>
      <point x="70" y="680" type="curve"/>
      <point x="70" y="619" type="line"/>
      <point x="135" y="610"/>
      <point x="168" y="577"/>
      <point x="168" y="577" type="curve"/>
      <point x="168" y="577"/>
      <point x="186" y="413"/>
      <point x="186" y="272" type="curve" smooth="yes"/>
      <point x="186" y="132"/>
      <point x="168" y="-32"/>
      <point x="168" y="-32" type="curve"/>
      <point x="168" y="-32"/>
      <point x="135" y="-65"/>
      <point x="70" y="-74" type="curve"/>
    </contour>
  </outline>
</glyph>
<glyph name="asterisk" format="1">
  <advance width="436"/>
  <unicode hex="002A"/>
  <outline>
    <contour>
      <point x="103" y="547" type="line" smooth="yes"/>
      <point x="99" y="549"/>
      <point x="94" y="550"/>
      <point x="90" y="550" type="curve" smooth="yes"/>
      <point x="63" y="550"/>
      <point x="50" y="524"/>
      <point x="50" y="502" type="curve" smooth="yes"/>
      <point x="50" y="485"/>
      <point x="62" y="473"/>
      <point x="78" y="468" type="curve"/>
      <point x="179" y="460" type="line"/>
      <point x="103" y="395" type="line"/>
      <point x="99" y="388"/>
      <point x="97" y="381"/>
      <point x="97" y="372" type="curve" smooth="yes"/>
      <point x="97" y="349"/>
      <point x="120" y="331"/>
      <point x="141" y="331" type="curve" smooth="yes"/>
      <point x="154" y="331"/>
      <point x="164" y="335"/>
      <point x="171" y="347" type="curve"/>
      <point x="210" y="440" type="line"/>
      <point x="236" y="380"/>
      <point x="265" y="348"/>
      <point x="330" y="348" type="curve" smooth="yes"/>
      <point x="349" y="348"/>
      <point x="367" y="352"/>
      <point x="386" y="358" type="curve"/>
      <point x="386" y="411" type="line"/>
      <point x="365" y="405"/>
      <point x="346" y="401"/>
      <point x="327" y="401" type="curve" smooth="yes"/>
      <point x="303" y="401"/>
      <point x="287" y="419"/>
      <point x="271" y="438" type="curve" smooth="yes"/>
      <point x="259" y="453"/>
      <point x="250" y="464"/>
      <point x="250" y="464" type="curve"/>
      <point x="334" y="471" type="line"/>
      <point x="350" y="477"/>
      <point x="362" y="490"/>
      <point x="362" y="506" type="curve" smooth="yes"/>
      <point x="362" y="530"/>
      <point x="345" y="552"/>
      <point x="323" y="552" type="curve" smooth="yes"/>
      <point x="318" y="552"/>
      <point x="313" y="551"/>
      <point x="309" y="550" type="curve"/>
      <point x="227" y="498" type="line"/>
      <point x="248" y="592" type="line"/>
      <point x="248" y="615"/>
      <point x="234" y="631"/>
      <point x="208" y="631" type="curve" smooth="yes"/>
      <point x="179" y="631"/>
      <point x="165" y="615"/>
      <point x="165" y="592" type="curve"/>
      <point x="188" y="496" type="line"/>
    </contour>
  </outline>
</glyph>
<glyph name="plus" format="1">
  <advance width="472"/>
  <unicode hex="002B"/>
  <outline>
    <contour>
      <point x="205" y="77" type="line"/>
      <point x="267" y="77" type="line"/>
      <point x="267" y="234" type="line"/>
      <point x="422" y="234" type="line"/>
      <point x="422" y="292" type="line"/>
      <point x="267" y="292" type="line"/>
      <point x="267" y="449" type="line"/>
      <point x="205" y="449" type="line"/>
      <point x="205" y="292" type="line"/>
      <point x="50" y="292" type="line"/>
      <point x="50" y="234" type="line"/>
      <point x="205" y="234" type="line"/>
    </contour>
  </outline>
</glyph>
<glyph name="comma" format="1">
  <advance width="266"/>
  <unicode hex="002C"/>
  <outline>
    <contour>
      <point x="50" y="62" type="curve" smooth="yes"/>
      <point x="50" y="2"/>
      <point x="73" y="-24"/>
      <point x="133" y="-24" type="curve" smooth="yes"/>
      <point x="144" y="-24"/>
      <point x="153" y="-23"/>
      <point x="162" y="-21" type="curve"/>
      <point x="160" y="-66"/>
      <point x="138" y="-77"/>
      <point x="82" y="-77" type="curve" smooth="yes"/>
      <point x="74" y="-77" type="line"/>
      <point x="74" y="-125" type="line"/>
      <point x="212" y="-125"/>
      <point x="216" y="-81"/>
      <point x="216" y="62" type="curve" smooth="yes"/>
      <point x="216" y="121"/>
      <point x="196" y="149"/>
      <point x="133" y="149" type="curve" smooth="yes"/>
      <point x="73" y="149"/>
      <point x="50" y="121"/>
    </contour>
  </outline>
</glyph>
<glyph name="period" format="1">
  <advance width="266"/>
  <unicode hex="002E"/>
  <outline>
    <contour>
      <point x="50" y="62" type="curve" smooth="yes"/>
      <point x="50" y="2"/>
      <point x="73" y="-24"/>
      <point x="133" y="-24" type="curve" smooth="yes"/>
      <point x="192" y="-24"/>
      <point x="216" y="2"/>
      <point x="216" y="62" type="curve" smooth="yes"/>
      <point x="216" y="121"/>
      <point x="196" y="149"/>
      <point x="133" y="149" type="curve" smooth="yes"/>
      <point x="73" y="149"/>
      <point x="50" y="121"/>
    </contour>
  </outline>
</glyph>
<glyph name="slash" format="1">
  <advance width="408"/>
  <unicode hex="002F"/>
  <outline>
    <contour>
      <point x="368" y="644" type="line"/>
      <point x="300" y="644" type="line"/>
      <point x="40" y="-46" type="line"/>
      <point x="108" y="-46" type="line"/>
    </contour>
  </outline>
</glyph>
<glyph name="two" format="1">
  <advance width="477"/>
  <unicode hex="0032"/>
  <outline>
    <contour>
      <point x="225" y="588" type="curve" smooth="yes"/>
      <point x="154" y="588"/>
      <point x="21" y="580"/>
      <point x="21" y="479" type="curve" smooth="yes"/>
      <point x="21" y="452" type="line"/>
      <point x="81" y="452" type="line"/>
      <point x="81" y="478" type="line" smooth="yes"/>
      <point x="81" y="525"/>
      <point x="157" y="535"/>
      <point x="220" y="535" type="curve" smooth="yes"/>
      <point x="220" y="535"/>
      <point x="235" y="464"/>
      <point x="235" y="419" type="curve" smooth="yes"/>
      <point x="235" y="362"/>
      <point x="221" y="294"/>
      <point x="221" y="294" type="curve"/>
      <point x="221" y="294"/>
      <point x="182" y="272"/>
      <point x="141" y="242" type="curve" smooth="yes"/>
      <point x="62" y="184"/>
      <point x="27" y="112"/>
      <point x="20" y="0" type="curve"/>
      <point x="314" y="0" type="line" smooth="yes"/>
      <point x="404" y="0"/>
      <point x="432" y="44"/>
      <point x="432" y="124" type="curve" smooth="yes"/>
      <point x="432" y="181"/>
      <point x="421" y="219"/>
      <point x="421" y="219" type="curve"/>
      <point x="369" y="219" type="line"/>
      <point x="369" y="152" type="line"/>
      <point x="123" y="152" type="line"/>
      <point x="123" y="152"/>
      <point x="143" y="178"/>
      <point x="173" y="204" type="curve" smooth="yes"/>
      <point x="208" y="234"/>
      <point x="248" y="251"/>
      <point x="291" y="269" type="curve" smooth="yes"/>
      <point x="371" y="302"/>
      <point x="410" y="344"/>
      <point x="410" y="425" type="curve" smooth="yes"/>
      <point x="410" y="516"/>
      <point x="354" y="588"/>
    </contour>
  </outline>
</glyph>
<glyph name="four" format="1">
  <advance width="517"/>
  <unicode hex="0034"/>
  <outline>
    <contour>
      <point x="-10" y="161" type="line"/>
      <point x="245" y="161" type="line"/>
      <point x="245" y="58" type="line"/>
      <point x="146" y="58" type="line"/>
      <point x="146" y="0" type="line"/>
      <point x="492" y="0" type="line"/>
      <point x="492" y="58" type="line"/>
      <point x="403" y="58" type="line"/>
      <point x="403" y="161" type="line"/>
      <point x="512" y="161" type="line"/>
      <point x="512" y="219" type="line"/>
      <point x="403" y="219" type="line"/>
      <point x="403" y="606" type="line"/>
      <point x="245" y="581" type="line"/>
      <point x="-10" y="182" type="line"/>
    </contour>
    <contour>
      <point x="92" y="219" type="line"/>
      <point x="245" y="463" type="line"/>
      <point x="245" y="219" type="line"/>
    </contour>
  </outline>
</glyph>
<glyph name="five" format="1">
  <advance width="455"/>
  <unicode hex="0035"/>
  <outline>
    <contour>
      <point x="283" y="426" type="line" smooth="yes"/>
      <point x="373" y="426"/>
      <point x="401" y="470"/>
      <point x="401" y="550" type="curve" smooth="yes"/>
      <point x="401" y="607"/>
      <point x="390" y="631"/>
      <point x="390" y="631" type="curve"/>
      <point x="339" y="631" type="line"/>
      <point x="339" y="574" type="line"/>
      <point x="63" y="574" type="line"/>
      <point x="63" y="281" type="line"/>
      <point x="233" y="281" type="line"/>
      <point x="233" y="281"/>
      <point x="244" y="220"/>
      <point x="244" y="166" type="curve" smooth="yes"/>
      <point x="244" y="119"/>
      <point x="229" y="43"/>
      <point x="229" y="43" type="curve"/>
      <point x="166" y="43"/>
      <point x="90" y="53"/>
      <point x="90" y="100" type="curve" smooth="yes"/>
      <point x="90" y="126" type="line"/>
      <point x="30" y="126" type="line"/>
      <point x="30" y="99" type="line" smooth="yes"/>
      <point x="30" y="-2"/>
      <point x="163" y="-10"/>
      <point x="234" y="-10" type="curve" smooth="yes"/>
      <point x="363" y="-10"/>
      <point x="425" y="51"/>
      <point x="425" y="160" type="curve" smooth="yes"/>
      <point x="425" y="320"/>
      <point x="338" y="339"/>
      <point x="203" y="339" type="curve" smooth="yes"/>
      <point x="121" y="339" type="line"/>
      <point x="121" y="426" type="line"/>
    </contour>
  </outline>
</glyph>
<glyph name="six" format="1">
  <advance width="547"/>
  <unicode hex="0036"/>
  <outline>
    <contour>
      <point x="279" y="-10" type="curve" smooth="yes"/>
      <point x="446" y="-10"/>
      <point x="507" y="51"/>
      <point x="507" y="174" type="curve" smooth="yes"/>
      <point x="507" y="319"/>
      <point x="419" y="344"/>
      <point x="279" y="344" type="curve" smooth="yes"/>
      <point x="263" y="344"/>
      <point x="247" y="343"/>
      <point x="233" y="342" type="curve"/>
      <point x="233" y="399" type="line" smooth="yes"/>
      <point x="233" y="445"/>
      <point x="236" y="491"/>
      <point x="240" y="529" type="curve"/>
      <point x="240" y="529"/>
      <point x="252" y="533"/>
      <point x="278" y="533" type="curve" smooth="yes"/>
      <point x="341" y="533"/>
      <point x="416" y="523"/>
      <point x="416" y="476" type="curve" smooth="yes"/>
      <point x="416" y="450" type="line"/>
      <point x="476" y="450" type="line"/>
      <point x="476" y="477" type="line" smooth="yes"/>
      <point x="476" y="577"/>
      <point x="344" y="586"/>
      <point x="273" y="586" type="curve" smooth="yes"/>
      <point x="111" y="586"/>
      <point x="50" y="502"/>
      <point x="50" y="287" type="curve" smooth="yes"/>
      <point x="50" y="73"/>
      <point x="111" y="-10"/>
    </contour>
    <contour>
      <point x="232" y="296" type="line"/>
      <point x="249" y="297"/>
      <point x="268" y="298"/>
      <point x="279" y="298" type="curve" smooth="yes"/>
      <point x="300" y="298"/>
      <point x="314" y="293"/>
      <point x="314" y="293" type="curve"/>
      <point x="314" y="293"/>
      <point x="327" y="239"/>
      <point x="327" y="166" type="curve" smooth="yes"/>
      <point x="327" y="94"/>
      <point x="314" y="40"/>
      <point x="314" y="40" type="curve"/>
      <point x="314" y="40"/>
      <point x="302" y="35"/>
      <point x="279" y="35" type="curve" smooth="yes"/>
      <point x="256" y="35"/>
      <point x="244" y="40"/>
      <point x="244" y="40" type="curve"/>
      <point x="244" y="40"/>
      <point x="232" y="94"/>
      <point x="232" y="166" type="curve" smooth="yes"/>
    </contour>
  </outline>
</glyph>
<glyph name="seven" format="1">
  <advance width="438"/>
  <unicode hex="0037"/>
  <outline>
    <contour>
      <point x="105" y="289" type="line"/>
      <point x="105" y="231" type="line"/>
      <point x="187" y="231" type="line"/>
      <point x="154" y="149"/>
      <point x="131" y="66"/>
      <point x="131" y="0" type="curve"/>
      <point x="204" y="0" type="line"/>
      <point x="204" y="63"/>
      <point x="230" y="147"/>
      <point x="264" y="231" type="curve"/>
      <point x="356" y="231" type="line"/>
      <point x="356" y="289" type="line"/>
      <point x="289" y="289" type="line"/>
      <point x="352" y="429"/>
      <point x="428" y="552"/>
      <point x="428" y="552" type="curve"/>
      <point x="428" y="574" type="line"/>
      <point x="72" y="574" type="line"/>
      <point x="72" y="631" type="line"/>
      <point x="21" y="631" type="line"/>
      <point x="21" y="631"/>
      <point x="10" y="607"/>
      <point x="10" y="550" type="curve" smooth="yes"/>
      <point x="10" y="470"/>
      <point x="38" y="426"/>
      <point x="128" y="426" type="curve" smooth="yes"/>
      <point x="279" y="426" type="line"/>
      <point x="257" y="384"/>
      <point x="233" y="338"/>
      <point x="211" y="289" type="curve"/>
    </contour>
  </outline>
</glyph>
<glyph name="eight" format="1">
  <advance width="576"/>
  <unicode hex="0038"/>
  <outline>
    <contour>
      <point x="73" y="442" type="curve" smooth="yes"/>
      <point x="73" y="380"/>
      <point x="97" y="340"/>
      <point x="160" y="321" type="curve"/>
      <point x="84" y="300"/>
      <point x="50" y="252"/>
      <point x="50" y="167" type="curve" smooth="yes"/>
      <point x="50" y="46"/>
      <point x="118" y="-10"/>
      <point x="278" y="-10" type="curve" smooth="yes"/>
      <point x="439" y="-10"/>
      <point x="507" y="46"/>
      <point x="507" y="167" type="curve" smooth="yes"/>
      <point x="507" y="252"/>
      <point x="473" y="300"/>
      <point x="397" y="321" type="curve"/>
      <point x="460" y="340"/>
      <point x="484" y="380"/>
      <point x="484" y="442" type="curve" smooth="yes"/>
      <point x="484" y="494"/>
      <point x="467" y="534"/>
      <point x="423" y="558" type="curve"/>
      <point x="458" y="568"/>
      <point x="479" y="588"/>
      <point x="479" y="631" type="curve"/>
      <point x="425" y="631" type="line"/>
      <point x="425" y="586"/>
      <point x="380" y="586"/>
      <point x="298" y="586" type="curve" smooth="yes"/>
      <point x="278" y="586" type="line" smooth="yes"/>
      <point x="124" y="586"/>
      <point x="73" y="533"/>
    </contour>
    <contour>
      <point x="232" y="166" type="curve" smooth="yes"/>
      <point x="232" y="239"/>
      <point x="244" y="295"/>
      <point x="244" y="295" type="curve"/>
      <point x="315" y="295" type="line"/>
      <point x="315" y="295"/>
      <point x="327" y="239"/>
      <point x="327" y="166" type="curve" smooth="yes"/>
      <point x="327" y="94"/>
      <point x="315" y="39"/>
      <point x="315" y="39" type="curve"/>
      <point x="315" y="39"/>
      <point x="302" y="35"/>
      <point x="279" y="35" type="curve" smooth="yes"/>
      <point x="257" y="35"/>
      <point x="244" y="39"/>
      <point x="244" y="39" type="curve"/>
      <point x="244" y="39"/>
      <point x="232" y="94"/>
    </contour>
    <contour>
      <point x="244" y="442" type="curve" smooth="yes"/>
      <point x="244" y="496"/>
      <point x="253" y="537"/>
      <point x="253" y="537" type="curve"/>
      <point x="253" y="537"/>
      <point x="263" y="540"/>
      <point x="279" y="540" type="curve" smooth="yes"/>
      <point x="295" y="540"/>
      <point x="306" y="537"/>
      <point x="306" y="537" type="curve"/>
      <point x="306" y="537"/>
      <point x="315" y="496"/>
      <point x="315" y="442" type="curve" smooth="yes"/>
      <point x="315" y="388"/>
      <point x="306" y="348"/>
      <point x="306" y="348" type="curve"/>
      <point x="253" y="348" type="line"/>
      <point x="253" y="348"/>
      <point x="244" y="388"/>
    </contour>
  </outline>
</glyph>
<glyph name="colon" format="1">
  <advance width="286"/>
  <unicode hex="003A"/>
  <outline>
    <contour>
      <point x="80" y="62" type="curve" smooth="yes"/>
      <point x="80" y="2"/>
      <point x="103" y="-24"/>
      <point x="163" y="-24" type="curve" smooth="yes"/>
      <point x="222" y="-24"/>
      <point x="246" y="2"/>
      <point x="246" y="62" type="curve" smooth="yes"/>
      <point x="246" y="121"/>
      <point x="226" y="149"/>
      <point x="163" y="149" type="curve" smooth="yes"/>
      <point x="103" y="149"/>
      <point x="80" y="121"/>
    </contour>
    <contour>
      <point x="80" y="369" type="curve" smooth="yes"/>
      <point x="80" y="309"/>
      <point x="103" y="283"/>
      <point x="163" y="283" type="curve" smooth="yes"/>
      <point x="222" y="283"/>
      <point x="246" y="309"/>
      <point x="246" y="369" type="curve" smooth="yes"/>
      <point x="246" y="428"/>
      <point x="226" y="456"/>
      <point x="163" y="456" type="curve" smooth="yes"/>
      <point x="103" y="456"/>
      <point x="80" y="428"/>
    </contour>
  </outline>
</glyph>
<glyph name="question" format="1">
  <advance width="394"/>
  <unicode hex="003F"/>
  <outline>
    <contour>
      <point x="105" y="62" type="curve" smooth="yes"/>
      <point x="105" y="2"/>
      <point x="128" y="-24"/>
      <point x="188" y="-24" type="curve" smooth="yes"/>
      <point x="247" y="-24"/>
      <point x="271" y="2"/>
      <point x="271" y="62" type="curve" smooth="yes"/>
      <point x="271" y="121"/>
      <point x="251" y="149"/>
      <point x="188" y="149" type="curve" smooth="yes"/>
      <point x="128" y="149"/>
      <point x="105" y="121"/>
    </contour>
    <contour>
      <point x="212" y="198" type="line"/>
      <point x="212" y="260" type="line"/>
      <point x="320" y="260"/>
      <point x="374" y="334"/>
      <point x="374" y="425" type="curve" smooth="yes"/>
      <point x="374" y="516"/>
      <point x="333" y="588"/>
      <point x="204" y="588" type="curve" smooth="yes"/>
      <point x="133" y="588"/>
      <point x="20" y="577"/>
      <point x="20" y="479" type="curve" smooth="yes"/>
      <point x="20" y="452" type="line"/>
      <point x="80" y="452" type="line"/>
      <point x="80" y="478" type="line" smooth="yes"/>
      <point x="80" y="522"/>
      <point x="126" y="535"/>
      <point x="189" y="535" type="curve" smooth="yes"/>
      <point x="189" y="535"/>
      <point x="199" y="486"/>
      <point x="199" y="419" type="curve" smooth="yes"/>
      <point x="199" y="333"/>
      <point x="159" y="294"/>
      <point x="159" y="294" type="curve"/>
      <point x="159" y="198" type="line"/>
    </contour>
  </outline>
</glyph>
<glyph name="at" format="1">
  <advance width="836"/>
  <unicode hex="0040"/>
  <outline>
    <contour>
      <point x="594" y="398" type="line"/>
      <point x="499" y="394" type="line"/>
      <point x="478" y="399"/>
      <point x="439" y="408"/>
      <point x="399" y="408" type="curve" smooth="yes"/>
      <point x="259" y="408"/>
      <point x="209" y="360"/>
      <point x="209" y="225" type="curve" smooth="yes"/>
      <point x="209" y="92"/>
      <point x="258" y="42"/>
      <point x="347" y="42" type="curve" smooth="yes"/>
      <point x="387" y="42"/>
      <point x="423" y="57"/>
      <point x="453" y="82" type="curve"/>
      <point x="480" y="55"/>
      <point x="536" y="42"/>
      <point x="597" y="42" type="curve" smooth="yes"/>
      <point x="731" y="42"/>
      <point x="771" y="137"/>
      <point x="771" y="261" type="curve" smooth="yes"/>
      <point x="771" y="464"/>
      <point x="651" y="562"/>
      <point x="428" y="562" type="curve" smooth="yes"/>
      <point x="206" y="562"/>
      <point x="70" y="440"/>
      <point x="70" y="221" type="curve" smooth="yes"/>
      <point x="70" y="2"/>
      <point x="177" y="-119"/>
      <point x="388" y="-119" type="curve" smooth="yes"/>
      <point x="509" y="-119"/>
      <point x="594" y="-79"/>
      <point x="594" y="-11" type="curve" smooth="yes"/>
      <point x="594" y="0" type="line"/>
      <point x="532" y="0" type="line"/>
      <point x="532" y="-12" type="line" smooth="yes"/>
      <point x="532" y="-49"/>
      <point x="456" y="-62"/>
      <point x="389" y="-62" type="curve" smooth="yes"/>
      <point x="215" y="-62"/>
      <point x="134" y="38"/>
      <point x="134" y="220" type="curve" smooth="yes"/>
      <point x="134" y="403"/>
      <point x="246" y="505"/>
      <point x="429" y="505" type="curve" smooth="yes"/>
      <point x="615" y="505"/>
      <point x="707" y="421"/>
      <point x="707" y="260" type="curve" smooth="yes"/>
      <point x="707" y="154"/>
      <point x="687" y="94"/>
      <point x="604" y="94" type="curve" smooth="yes"/>
      <point x="594" y="94" type="line"/>
    </contour>
    <contour>
      <point x="436" y="120" type="line"/>
      <point x="420" y="105"/>
      <point x="402" y="96"/>
      <point x="385" y="96" type="curve" smooth="yes"/>
      <point x="385" y="96"/>
      <point x="373" y="125"/>
      <point x="373" y="225" type="curve" smooth="yes"/>
      <point x="373" y="307"/>
      <point x="385" y="358"/>
      <point x="385" y="358" type="curve"/>
      <point x="385" y="358"/>
      <point x="397" y="363"/>
      <point x="419" y="363" type="curve" smooth="yes"/>
      <point x="424" y="363"/>
      <point x="430" y="362"/>
      <point x="436" y="361" type="curve"/>
    </contour>
  </outline>
</glyph>
<glyph name="A" format="1">
  <advance width="628"/>
  <unicode hex="0041"/>
  <outline>
    <contour>
      <point x="331" y="615" type="move" name="topUC"/>
    </contour>
    <contour>
      <point x="10" y="58" type="line"/>
      <point x="10" y="0" type="line"/>
      <point x="247" y="0" type="line"/>
      <point x="247" y="58" type="line"/>
      <point x="139" y="58" type="line"/>
      <point x="187" y="197" type="line"/>
      <point x="365" y="197" type="line"/>
      <point x="436" y="0" type="line"/>
      <point x="618" y="0" type="line"/>
      <point x="618" y="21" type="line"/>
      <point x="393" y="621" type="line"/>
      <point x="265" y="598" type="line"/>
      <point x="77" y="58" type="line"/>
    </contour>
    <contour>
      <point x="275" y="448" type="line"/>
      <point x="344" y="255" type="line"/>
      <point x="207" y="255" type="line"/>
    </contour>
  </outline>
</glyph>
<glyph name="B" format="1">
  <advance width="639"/>
  <unicode hex="0042"/>
  <outline>
    <contour>
      <point x="25" y="58" type="line"/>
      <point x="25" y="0" type="line"/>
      <point x="261" y="0" type="line" smooth="yes"/>
      <point x="291" y="0"/>
      <point x="319" y="-2"/>
      <point x="341" y="-2" type="curve" smooth="yes"/>
      <point x="513" y="-2"/>
      <point x="594" y="44"/>
      <point x="594" y="170" type="curve" smooth="yes"/>
      <point x="594" y="257"/>
      <point x="553" y="306"/>
      <point x="470" y="327" type="curve"/>
      <point x="529" y="345"/>
      <point x="573" y="384"/>
      <point x="573" y="463" type="curve" smooth="yes"/>
      <point x="573" y="576"/>
      <point x="493" y="617"/>
      <point x="321" y="617" type="curve" smooth="yes"/>
      <point x="300" y="617"/>
      <point x="279" y="615"/>
      <point x="255" y="615" type="curve" smooth="yes"/>
      <point x="25" y="615" type="line"/>
      <point x="25" y="557" type="line"/>
      <point x="114" y="557" type="line"/>
      <point x="114" y="58" type="line"/>
    </contour>
    <contour>
      <point x="387" y="300" type="line"/>
      <point x="387" y="300"/>
      <point x="408" y="244"/>
      <point x="408" y="173" type="curve" smooth="yes"/>
      <point x="408" y="100"/>
      <point x="392" y="53"/>
      <point x="392" y="53" type="curve"/>
      <point x="392" y="53"/>
      <point x="372" y="48"/>
      <point x="341" y="48" type="curve" smooth="yes"/>
      <point x="318" y="48"/>
      <point x="299" y="49"/>
      <point x="282" y="51" type="curve"/>
      <point x="282" y="300" type="line"/>
    </contour>
    <contour>
      <point x="321" y="566" type="curve" smooth="yes"/>
      <point x="352" y="566"/>
      <point x="379" y="562"/>
      <point x="379" y="562" type="curve"/>
      <point x="379" y="562"/>
      <point x="394" y="523"/>
      <point x="394" y="461" type="curve" smooth="yes"/>
      <point x="394" y="400"/>
      <point x="385" y="352"/>
      <point x="385" y="352" type="curve"/>
      <point x="282" y="352" type="line"/>
      <point x="282" y="563" type="line"/>
      <point x="294" y="565"/>
      <point x="308" y="566"/>
    </contour>
  </outline>
</glyph>
<glyph name="C" format="1">
  <advance width="572"/>
  <unicode hex="0043"/>
  <outline>
    <contour>
      <point x="328" y="0" type="move" name="bottom"/>
    </contour>
    <contour>
      <point x="516" y="615" type="line"/>
      <point x="516" y="615"/>
      <point x="435" y="630"/>
      <point x="344" y="630" type="curve" smooth="yes"/>
      <point x="136" y="630"/>
      <point x="45" y="540"/>
      <point x="45" y="308" type="curve" smooth="yes"/>
      <point x="45" y="75"/>
      <point x="136" y="-15"/>
      <point x="328" y="-15" type="curve" smooth="yes"/>
      <point x="439" y="-15"/>
      <point x="537" y="43"/>
      <point x="537" y="178" type="curve" smooth="yes"/>
      <point x="537" y="206" type="line"/>
      <point x="479" y="206" type="line"/>
      <point x="479" y="175" type="line" smooth="yes"/>
      <point x="479" y="76"/>
      <point x="415" y="37"/>
      <point x="328" y="37" type="curve" smooth="yes"/>
      <point x="281" y="37"/>
      <point x="261" y="44"/>
      <point x="261" y="44" type="curve"/>
      <point x="261" y="44"/>
      <point x="232" y="163"/>
      <point x="232" y="308" type="curve" smooth="yes"/>
      <point x="232" y="453"/>
      <point x="261" y="571"/>
      <point x="261" y="571" type="curve"/>
      <point x="261" y="571"/>
      <point x="287" y="579"/>
      <point x="333" y="580" type="curve"/>
      <point x="334" y="562"/>
      <point x="352" y="411"/>
      <point x="516" y="411" type="curve"/>
    </contour>
  </outline>
</glyph>
<glyph name="E" format="1">
  <advance width="617"/>
  <unicode hex="0045"/>
  <outline>
    <contour>
      <point x="316" y="615" type="move" name="topUC"/>
    </contour>
    <contour>
      <point x="25" y="615" type="line"/>
      <point x="25" y="557" type="line"/>
      <point x="114" y="557" type="line"/>
      <point x="114" y="58" type="line"/>
      <point x="25" y="58" type="line"/>
      <point x="25" y="0" type="line"/>
      <point x="567" y="0" type="line"/>
      <point x="567" y="205" type="line"/>
      <point x="434" y="205"/>
      <point x="397" y="105"/>
      <point x="387" y="58" type="curve"/>
      <point x="282" y="58" type="line"/>
      <point x="282" y="277" type="line"/>
      <point x="457" y="277" type="line"/>
      <point x="457" y="335" type="line"/>
      <point x="282" y="335" type="line"/>
      <point x="282" y="557" type="line"/>
      <point x="372" y="557" type="line"/>
      <point x="382" y="509"/>
      <point x="420" y="411"/>
      <point x="552" y="411" type="curve"/>
      <point x="552" y="615" type="line"/>
    </contour>
  </outline>
</glyph>
<glyph name="F" format="1">
  <advance width="562"/>
  <unicode hex="0046"/>
  <outline>
    <contour>
      <point x="25" y="615" type="line"/>
      <point x="25" y="557" type="line"/>
      <point x="114" y="557" type="line"/>
      <point x="114" y="315" type="line"/>
      <point x="25" y="315" type="line"/>
      <point x="25" y="257" type="line"/>
      <point x="114" y="257" type="line"/>
      <point x="114" y="58" type="line"/>
      <point x="25" y="58" type="line"/>
      <point x="25" y="0" type="line"/>
      <point x="373" y="0" type="line"/>
      <point x="373" y="58" type="line"/>
      <point x="282" y="58" type="line"/>
      <point x="282" y="257" type="line"/>
      <point x="447" y="257" type="line"/>
      <point x="447" y="315" type="line"/>
      <point x="282" y="315" type="line"/>
      <point x="282" y="557" type="line"/>
      <point x="362" y="557" type="line"/>
      <point x="371" y="506"/>
      <point x="408" y="396"/>
      <point x="542" y="396" type="curve"/>
      <point x="542" y="615" type="line"/>
    </contour>
  </outline>
</glyph>
<glyph name="G" format="1">
  <advance width="661"/>
  <unicode hex="0047"/>
  <outline>
    <contour>
      <point x="596" y="615" type="line"/>
      <point x="596" y="615"/>
      <point x="435" y="630"/>
      <point x="344" y="630" type="curve" smooth="yes"/>
      <point x="136" y="630"/>
      <point x="45" y="540"/>
      <point x="45" y="308" type="curve" smooth="yes"/>
      <point x="45" y="75"/>
      <point x="136" y="-15"/>
      <point x="344" y="-15" type="curve" smooth="yes"/>
      <point x="385" y="-15"/>
      <point x="440" y="-6"/>
      <point x="487" y="17" type="curve"/>
      <point x="606" y="4" type="line"/>
      <point x="606" y="300" type="line"/>
      <point x="380" y="300" type="line"/>
      <point x="380" y="242" type="line"/>
      <point x="438" y="242" type="line"/>
      <point x="438" y="53" type="line"/>
      <point x="406" y="40"/>
      <point x="371" y="35"/>
      <point x="344" y="35" type="curve" smooth="yes"/>
      <point x="297" y="35"/>
      <point x="261" y="44"/>
      <point x="261" y="44" type="curve"/>
      <point x="261" y="44"/>
      <point x="232" y="163"/>
      <point x="232" y="308" type="curve" smooth="yes"/>
      <point x="232" y="453"/>
      <point x="261" y="571"/>
      <point x="261" y="571" type="curve"/>
      <point x="261" y="571"/>
      <point x="291" y="580"/>
      <point x="344" y="580" type="curve" smooth="yes"/>
      <point x="364" y="580"/>
      <point x="388" y="580"/>
      <point x="413" y="578" type="curve"/>
      <point x="415" y="552"/>
      <point x="437" y="411"/>
      <point x="596" y="411" type="curve"/>
    </contour>
  </outline>
</glyph>
<glyph name="N" format="1">
  <advance width="666"/>
  <unicode hex="004E"/>
  <outline>
    <contour>
      <point x="332" y="615" type="move" name="top"/>
    </contour>
    <contour>
      <point x="25" y="615" type="line"/>
      <point x="25" y="557" type="line"/>
      <point x="114" y="557" type="line"/>
      <point x="114" y="58" type="line"/>
      <point x="25" y="58" type="line"/>
      <point x="25" y="0" type="line"/>
      <point x="266" y="0" type="line"/>
      <point x="266" y="58" type="line"/>
      <point x="177" y="58" type="line"/>
      <point x="177" y="378" type="line"/>
      <point x="536" y="0" type="line"/>
      <point x="567" y="0" type="line"/>
      <point x="567" y="557" type="line"/>
      <point x="656" y="557" type="line"/>
      <point x="656" y="615" type="line"/>
      <point x="415" y="615" type="line"/>
      <point x="415" y="557" type="line"/>
      <point x="504" y="557" type="line"/>
      <point x="504" y="285" type="line"/>
      <point x="178" y="615" type="line"/>
    </contour>
  </outline>
</glyph>
<glyph name="P" format="1">
  <advance width="604"/>
  <unicode hex="0050"/>
  <outline>
    <contour>
      <point x="25" y="615" type="line"/>
      <point x="25" y="557" type="line"/>
      <point x="114" y="557" type="line"/>
      <point x="114" y="58" type="line"/>
      <point x="25" y="58" type="line"/>
      <point x="25" y="0" type="line"/>
      <point x="371" y="0" type="line"/>
      <point x="371" y="58" type="line"/>
      <point x="282" y="58" type="line"/>
      <point x="282" y="247" type="line"/>
      <point x="303" y="246"/>
      <point x="325" y="246"/>
      <point x="341" y="246" type="curve" smooth="yes"/>
      <point x="513" y="246"/>
      <point x="594" y="297"/>
      <point x="594" y="431" type="curve" smooth="yes"/>
      <point x="594" y="567"/>
      <point x="513" y="617"/>
      <point x="341" y="617" type="curve" smooth="yes"/>
      <point x="334" y="617"/>
      <point x="291" y="615"/>
      <point x="261" y="615" type="curve" smooth="yes"/>
    </contour>
    <contour>
      <point x="341" y="566" type="curve" smooth="yes"/>
      <point x="372" y="566"/>
      <point x="392" y="560"/>
      <point x="392" y="560" type="curve"/>
      <point x="392" y="560"/>
      <point x="408" y="512"/>
      <point x="408" y="430" type="curve" smooth="yes"/>
      <point x="408" y="350"/>
      <point x="392" y="305"/>
      <point x="392" y="305" type="curve"/>
      <point x="392" y="305"/>
      <point x="372" y="299"/>
      <point x="341" y="299" type="curve" smooth="yes"/>
      <point x="318" y="299"/>
      <point x="299" y="300"/>
      <point x="282" y="302" type="curve"/>
      <point x="282" y="562" type="line"/>
      <point x="298" y="564"/>
      <point x="318" y="566"/>
    </contour>
  </outline>
</glyph>
<glyph name="Q" format="1">
  <advance width="689"/>
  <unicode hex="0051"/>
  <outline>
    <contour>
      <point x="45" y="308" type="curve" smooth="yes"/>
      <point x="45" y="85"/>
      <point x="127" y="-6"/>
      <point x="316" y="-14" type="curve"/>
      <point x="316" y="-78" type="line" smooth="yes"/>
      <point x="316" y="-132"/>
      <point x="344" y="-166"/>
      <point x="407" y="-166" type="curve" smooth="yes"/>
      <point x="482" y="-166"/>
      <point x="496" y="-108"/>
      <point x="496" y="-80" type="curve" smooth="yes"/>
      <point x="496" y="-50" type="line"/>
      <point x="438" y="-50" type="line"/>
      <point x="438" y="-81" type="line" smooth="yes"/>
      <point x="438" y="-97"/>
      <point x="431" y="-115"/>
      <point x="407" y="-115" type="curve" smooth="yes"/>
      <point x="388" y="-115"/>
      <point x="374" y="-106"/>
      <point x="374" y="-78" type="curve" smooth="yes"/>
      <point x="374" y="-14" type="line"/>
      <point x="562" y="-6"/>
      <point x="644" y="86"/>
      <point x="644" y="308" type="curve" smooth="yes"/>
      <point x="644" y="540"/>
      <point x="553" y="630"/>
      <point x="344" y="630" type="curve" smooth="yes"/>
      <point x="136" y="630"/>
      <point x="45" y="540"/>
    </contour>
    <contour>
      <point x="316" y="138" type="line"/>
      <point x="316" y="35" type="line"/>
      <point x="281" y="38"/>
      <point x="261" y="44"/>
      <point x="261" y="44" type="curve"/>
      <point x="261" y="44"/>
      <point x="232" y="159"/>
      <point x="232" y="308" type="curve" smooth="yes"/>
      <point x="232" y="449"/>
      <point x="261" y="571"/>
      <point x="261" y="571" type="curve"/>
      <point x="261" y="571"/>
      <point x="291" y="580"/>
      <point x="344" y="580" type="curve" smooth="yes"/>
      <point x="398" y="580"/>
      <point x="428" y="571"/>
      <point x="428" y="571" type="curve"/>
      <point x="428" y="571"/>
      <point x="457" y="456"/>
      <point x="457" y="308" type="curve" smooth="yes"/>
      <point x="457" y="166"/>
      <point x="428" y="44"/>
      <point x="428" y="44" type="curve"/>
      <point x="428" y="44"/>
      <point x="409" y="38"/>
      <point x="374" y="36" type="curve"/>
      <point x="374" y="138" type="line"/>
    </contour>
  </outline>
</glyph>
<glyph name="R" format="1">
  <advance width="650"/>
  <unicode hex="0052"/>
  <outline>
    <contour>
      <point x="25" y="58" type="line"/>
      <point x="25" y="0" type="line"/>
      <point x="351" y="0" type="line"/>
      <point x="351" y="58" type="line"/>
      <point x="282" y="58" type="line"/>
      <point x="282" y="280" type="line"/>
      <point x="299" y="280" type="line"/>
      <point x="464" y="0" type="line"/>
      <point x="648" y="0" type="line"/>
      <point x="648" y="21" type="line"/>
      <point x="473" y="303" type="line"/>
      <point x="531" y="326"/>
      <point x="573" y="369"/>
      <point x="573" y="448" type="curve" smooth="yes"/>
      <point x="573" y="561"/>
      <point x="493" y="617"/>
      <point x="321" y="617" type="curve" smooth="yes"/>
      <point x="314" y="617"/>
      <point x="279" y="615"/>
      <point x="255" y="615" type="curve" smooth="yes"/>
      <point x="25" y="615" type="line"/>
      <point x="25" y="557" type="line"/>
      <point x="114" y="557" type="line"/>
      <point x="114" y="58" type="line"/>
    </contour>
    <contour>
      <point x="321" y="566" type="curve" smooth="yes"/>
      <point x="352" y="566"/>
      <point x="379" y="562"/>
      <point x="379" y="562" type="curve"/>
      <point x="379" y="562"/>
      <point x="394" y="508"/>
      <point x="394" y="446" type="curve" smooth="yes"/>
      <point x="394" y="385"/>
      <point x="385" y="325"/>
      <point x="385" y="325" type="curve"/>
      <point x="282" y="325" type="line"/>
      <point x="282" y="563" type="line"/>
      <point x="294" y="565"/>
      <point x="308" y="566"/>
    </contour>
  </outline>
</glyph>
<glyph name="S" format="1">
  <advance width="553"/>
  <unicode hex="0053"/>
  <outline>
    <contour>
      <point x="287" y="626" type="curve" smooth="yes"/>
      <point x="109" y="626"/>
      <point x="50" y="547"/>
      <point x="50" y="444" type="curve" smooth="yes"/>
      <point x="50" y="232"/>
      <point x="335" y="288"/>
      <point x="335" y="114" type="curve" smooth="yes"/>
      <point x="335" y="61"/>
      <point x="323" y="39"/>
      <point x="323" y="39" type="curve"/>
      <point x="323" y="39"/>
      <point x="284" y="35"/>
      <point x="257" y="35" type="curve" smooth="yes"/>
      <point x="245" y="35"/>
      <point x="235" y="35"/>
      <point x="225" y="36" type="curve"/>
      <point x="219" y="134"/>
      <point x="162" y="206"/>
      <point x="58" y="209" type="curve"/>
      <point x="58" y="-15" type="line"/>
      <point x="142" y="1" type="line"/>
      <point x="163" y="-6"/>
      <point x="200" y="-15"/>
      <point x="265" y="-15" type="curve" smooth="yes"/>
      <point x="417" y="-15"/>
      <point x="508" y="48"/>
      <point x="508" y="186" type="curve" smooth="yes"/>
      <point x="508" y="296"/>
      <point x="404" y="356"/>
      <point x="321" y="384" type="curve" smooth="yes"/>
      <point x="250" y="407"/>
      <point x="221" y="433"/>
      <point x="221" y="504" type="curve" smooth="yes"/>
      <point x="221" y="544"/>
      <point x="234" y="572"/>
      <point x="234" y="572" type="curve"/>
      <point x="234" y="572"/>
      <point x="247" y="577"/>
      <point x="272" y="577" type="curve" smooth="yes"/>
      <point x="289" y="577"/>
      <point x="304" y="576"/>
      <point x="319" y="573" type="curve"/>
      <point x="328" y="483"/>
      <point x="391" y="428"/>
      <point x="486" y="425" type="curve"/>
      <point x="486" y="629" type="line"/>
      <point x="392" y="610" type="line"/>
      <point x="365" y="619"/>
      <point x="330" y="626"/>
    </contour>
  </outline>
</glyph>
<glyph name="T" format="1">
  <advance width="658"/>
  <unicode hex="0054"/>
  <outline>
    <contour>
      <point x="35" y="615" type="line"/>
      <point x="35" y="426" type="line"/>
      <point x="164" y="426"/>
      <point x="186" y="513"/>
      <point x="188" y="557" type="curve"/>
      <point x="245" y="557" type="line"/>
      <point x="245" y="58" type="line"/>
      <point x="156" y="58" type="line"/>
      <point x="156" y="0" type="line"/>
      <point x="502" y="0" type="line"/>
      <point x="502" y="58" type="line"/>
      <point x="413" y="58" type="line"/>
      <point x="413" y="557" type="line"/>
      <point x="469" y="557" type="line"/>
      <point x="472" y="513"/>
      <point x="493" y="426"/>
      <point x="623" y="426" type="curve"/>
      <point x="623" y="615" type="line"/>
    </contour>
  </outline>
</glyph>
<glyph name="U" format="1">
  <advance width="666"/>
  <unicode hex="0055"/>
  <outline>
    <contour>
      <point x="369" y="615" type="move" name="topUC"/>
    </contour>
    <contour>
      <point x="109" y="130" type="line" smooth="yes"/>
      <point x="109" y="13"/>
      <point x="202" y="-15"/>
      <point x="344" y="-15" type="curve" smooth="yes"/>
      <point x="458" y="-15"/>
      <point x="562" y="14"/>
      <point x="562" y="130" type="curve" smooth="yes"/>
      <point x="562" y="557" type="line"/>
      <point x="661" y="557" type="line"/>
      <point x="661" y="615" type="line"/>
      <point x="395" y="615" type="line"/>
      <point x="395" y="557" type="line"/>
      <point x="499" y="557" type="line"/>
      <point x="499" y="130" type="line" smooth="yes"/>
      <point x="499" y="63"/>
      <point x="449" y="37"/>
      <point x="371" y="37" type="curve" smooth="yes"/>
      <point x="303" y="37"/>
      <point x="291" y="42"/>
      <point x="291" y="42" type="curve"/>
      <point x="291" y="42"/>
      <point x="277" y="95"/>
      <point x="277" y="140" type="curve" smooth="yes"/>
      <point x="277" y="615" type="line"/>
      <point x="20" y="615" type="line"/>
      <point x="20" y="557" type="line"/>
      <point x="109" y="557" type="line"/>
    </contour>
  </outline>
</glyph>
<glyph name="W" format="1">
  <advance width="928"/>
  <unicode hex="0057"/>
  <outline>
    <contour>
      <point x="923" y="557" type="line"/>
      <point x="923" y="615" type="line"/>
      <point x="686" y="615" type="line"/>
      <point x="686" y="557" type="line"/>
      <point x="795" y="557" type="line"/>
      <point x="698" y="261" type="line"/>
      <point x="537" y="615" type="line"/>
      <point x="355" y="615" type="line"/>
      <point x="355" y="594" type="line"/>
      <point x="415" y="467" type="line"/>
      <point x="348" y="261" type="line"/>
      <point x="187" y="615" type="line"/>
      <point x="5" y="615" type="line"/>
      <point x="5" y="594" type="line"/>
      <point x="295" y="-14" type="line"/>
      <point x="320" y="-14" type="line"/>
      <point x="452" y="390" type="line"/>
      <point x="645" y="-14" type="line"/>
      <point x="670" y="-14" type="line"/>
      <point x="857" y="557" type="line"/>
    </contour>
  </outline>
</glyph>
<glyph name="Z" format="1">
  <advance width="593"/>
  <unicode hex="005A"/>
  <outline>
    <contour>
      <point x="55" y="0" type="line"/>
      <point x="548" y="0" type="line"/>
      <point x="548" y="209" type="line"/>
      <point x="409" y="209"/>
      <point x="387" y="93"/>
      <point x="385" y="48" type="curve"/>
      <point x="266" y="48" type="line"/>
      <point x="536" y="596" type="line"/>
      <point x="536" y="615" type="line"/>
      <point x="56" y="615" type="line"/>
      <point x="56" y="426" type="line"/>
      <point x="193" y="426"/>
      <point x="209" y="526"/>
      <point x="210" y="567" type="curve"/>
      <point x="332" y="567" type="line"/>
      <point x="55" y="18" type="line"/>
    </contour>
  </outline>
</glyph>
<glyph name="backslash" format="1">
  <advance width="408"/>
  <unicode hex="005C"/>
  <outline>
    <contour>
      <point x="300" y="-46" type="line"/>
      <point x="368" y="-46" type="line"/>
      <point x="108" y="644" type="line"/>
      <point x="40" y="644" type="line"/>
    </contour>
  </outline>
</glyph>
<glyph name="grave" format="1">
  <advance width="520"/>
  <unicode hex="0060"/>
  <outline>
    <contour>
      <point x="357" y="449" type="move" name="_top"/>
    </contour>
    <contour>
      <point x="237" y="689" type="line"/>
      <point x="225" y="699"/>
      <point x="213" y="703"/>
      <point x="200" y="703" type="curve" smooth="yes"/>
      <point x="171" y="703"/>
      <point x="139" y="670"/>
      <point x="139" y="638" type="curve" smooth="yes"/>
      <point x="139" y="622"/>
      <point x="146" y="607"/>
      <point x="160" y="595" type="curve"/>
      <point x="357" y="486" type="line"/>
      <point x="382" y="514" type="line"/>
    </contour>
  </outline>
</glyph>
<glyph name="a" format="1">
  <advance width="516"/>
  <unicode hex="0061"/>
  <outline>
    <contour>
      <point x="245" y="449" type="move" name="top"/>
    </contour>
    <contour>
      <point x="448" y="223" type="line" smooth="yes"/>
      <point x="448" y="402"/>
      <point x="431" y="456"/>
      <point x="258" y="456" type="curve" smooth="yes"/>
      <point x="177" y="456"/>
      <point x="67" y="444"/>
      <point x="67" y="444" type="curve"/>
      <point x="67" y="293" type="line"/>
      <point x="168" y="293"/>
      <point x="194" y="369"/>
      <point x="201" y="406" type="curve"/>
      <point x="211" y="407"/>
      <point x="222" y="408"/>
      <point x="234" y="408" type="curve" smooth="yes"/>
      <point x="273" y="408"/>
      <point x="282" y="403"/>
      <point x="282" y="403" type="curve"/>
      <point x="282" y="403"/>
      <point x="287" y="350"/>
      <point x="289" y="272" type="curve"/>
      <point x="57" y="215" type="line"/>
      <point x="57" y="215"/>
      <point x="50" y="165"/>
      <point x="50" y="106" type="curve" smooth="yes"/>
      <point x="50" y="22"/>
      <point x="94" y="-8"/>
      <point x="184" y="-8" type="curve" smooth="yes"/>
      <point x="233" y="-8"/>
      <point x="271" y="16"/>
      <point x="300" y="53" type="curve"/>
      <point x="314" y="25"/>
      <point x="345" y="-4"/>
      <point x="410" y="-4" type="curve" smooth="yes"/>
      <point x="437" y="-4"/>
      <point x="501" y="5"/>
      <point x="501" y="5" type="curve"/>
      <point x="501" y="53" type="line"/>
      <point x="501" y="53"/>
      <point x="460" y="50"/>
      <point x="448" y="50" type="curve"/>
    </contour>
    <contour>
      <point x="216" y="46" type="curve"/>
      <point x="216" y="46"/>
      <point x="210" y="89"/>
      <point x="210" y="141" type="curve" smooth="yes"/>
      <point x="210" y="162"/>
      <point x="211" y="185"/>
      <point x="214" y="206" type="curve"/>
      <point x="290" y="227" type="line"/>
      <point x="290" y="121" type="line"/>
      <point x="268" y="83"/>
      <point x="242" y="53"/>
    </contour>
  </outline>
</glyph>
<glyph name="f" format="1">
  <advance width="369"/>
  <unicode hex="0066"/>
  <outline>
    <contour>
      <point x="373" y="643" type="line"/>
      <point x="325" y="647"/>
      <point x="278" y="651"/>
      <point x="245" y="651" type="curve" smooth="yes"/>
      <point x="132" y="651"/>
      <point x="79" y="580"/>
      <point x="79" y="488" type="curve" smooth="yes"/>
      <point x="79" y="51" type="line"/>
      <point x="20" y="51" type="line"/>
      <point x="20" y="0" type="line"/>
      <point x="296" y="0" type="line"/>
      <point x="296" y="51" type="line"/>
      <point x="237" y="51" type="line"/>
      <point x="237" y="398" type="line"/>
      <point x="343" y="398" type="line"/>
      <point x="343" y="449" type="line"/>
      <point x="265" y="449" type="line" smooth="yes"/>
      <point x="223" y="449"/>
      <point x="197" y="479"/>
      <point x="197" y="526" type="curve" smooth="yes"/>
      <point x="197" y="582"/>
      <point x="203" y="604"/>
      <point x="203" y="604" type="curve"/>
      <point x="237" y="604" type="line"/>
      <point x="241" y="576"/>
      <point x="263" y="489"/>
      <point x="373" y="489" type="curve"/>
    </contour>
  </outline>
</glyph>
<glyph name="g" format="1">
  <advance width="538"/>
  <unicode hex="0067"/>
  <outline>
    <contour>
      <point x="377" y="-166" type="line"/>
      <point x="416" y="-166" type="line" smooth="yes"/>
      <point x="512" y="-166"/>
      <point x="533" y="-127"/>
      <point x="533" y="-43" type="curve" smooth="yes"/>
      <point x="533" y="43"/>
      <point x="492" y="82"/>
      <point x="381" y="82" type="curve" smooth="yes"/>
      <point x="91" y="82" type="line"/>
      <point x="91" y="120"/>
      <point x="133" y="140"/>
      <point x="164" y="149" type="curve"/>
      <point x="193" y="143"/>
      <point x="229" y="140"/>
      <point x="272" y="140" type="curve" smooth="yes"/>
      <point x="434" y="140"/>
      <point x="492" y="182"/>
      <point x="492" y="298" type="curve" smooth="yes"/>
      <point x="492" y="351"/>
      <point x="479" y="388"/>
      <point x="451" y="413" type="curve"/>
      <point x="494" y="425"/>
      <point x="517" y="452"/>
      <point x="517" y="524" type="curve"/>
      <point x="463" y="524" type="line"/>
      <point x="463" y="477"/>
      <point x="460" y="456"/>
      <point x="392" y="456" type="curve" smooth="yes"/>
      <point x="272" y="456" type="line" smooth="yes"/>
      <point x="110" y="456"/>
      <point x="52" y="414"/>
      <point x="52" y="298" type="curve" smooth="yes"/>
      <point x="52" y="235"/>
      <point x="69" y="193"/>
      <point x="111" y="169" type="curve"/>
      <point x="82" y="158"/>
      <point x="40" y="129"/>
      <point x="40" y="59" type="curve" smooth="yes"/>
      <point x="40" y="-31"/>
      <point x="81" y="-70"/>
      <point x="210" y="-70" type="curve" smooth="yes"/>
      <point x="467" y="-70" type="line"/>
      <point x="467" y="-85" type="line" smooth="yes"/>
      <point x="467" y="-106"/>
      <point x="461" y="-114"/>
      <point x="417" y="-114" type="curve" smooth="yes"/>
      <point x="377" y="-114" type="line"/>
    </contour>
    <contour>
      <point x="216" y="298" type="curve" smooth="yes"/>
      <point x="216" y="361"/>
      <point x="230" y="407"/>
      <point x="230" y="407" type="curve"/>
      <point x="230" y="407"/>
      <point x="245" y="411"/>
      <point x="271" y="411" type="curve" smooth="yes"/>
      <point x="296" y="411"/>
      <point x="313" y="407"/>
      <point x="313" y="407" type="curve"/>
      <point x="313" y="407"/>
      <point x="327" y="361"/>
      <point x="327" y="298" type="curve" smooth="yes"/>
      <point x="327" y="235"/>
      <point x="313" y="189"/>
      <point x="313" y="189" type="curve"/>
      <point x="313" y="189"/>
      <point x="298" y="185"/>
      <point x="271" y="185" type="curve" smooth="yes"/>
      <point x="245" y="185"/>
      <point x="230" y="189"/>
      <point x="230" y="189" type="curve"/>
      <point x="230" y="189"/>
      <point x="216" y="235"/>
    </contour>
  </outline>
</glyph>
<glyph name="h" format="1">
  <advance width="593"/>
  <unicode hex="0068"/>
  <outline>
    <contour>
      <point x="25" y="565" type="line"/>
      <point x="84" y="565" type="line"/>
      <point x="84" y="51" type="line"/>
      <point x="25" y="51" type="line"/>
      <point x="25" y="0" type="line"/>
      <point x="301" y="0" type="line"/>
      <point x="301" y="51" type="line"/>
      <point x="242" y="51" type="line"/>
      <point x="242" y="329" type="line"/>
      <point x="250" y="345"/>
      <point x="282" y="397"/>
      <point x="338" y="397" type="curve" smooth="yes"/>
      <point x="359" y="397"/>
      <point x="366" y="394"/>
      <point x="366" y="394" type="curve"/>
      <point x="366" y="0" type="line"/>
      <point x="583" y="0" type="line"/>
      <point x="583" y="51" type="line"/>
      <point x="524" y="51" type="line"/>
      <point x="524" y="362" type="line" smooth="yes"/>
      <point x="524" y="439"/>
      <point x="452" y="456"/>
      <point x="391" y="456" type="curve" smooth="yes"/>
      <point x="278" y="456"/>
      <point x="242" y="399"/>
      <point x="242" y="399" type="curve"/>
      <point x="242" y="644" type="line"/>
      <point x="84" y="615" type="line"/>
      <point x="25" y="615" type="line"/>
    </contour>
  </outline>
</glyph>
<glyph name="i" format="1">
  <advance width="326"/>
  <unicode hex="0069"/>
  <outline>
    <contour>
      <point x="30" y="391" type="line"/>
      <point x="89" y="391" type="line"/>
      <point x="89" y="51" type="line"/>
      <point x="30" y="51" type="line"/>
      <point x="30" y="0" type="line"/>
      <point x="306" y="0" type="line"/>
      <point x="306" y="51" type="line"/>
      <point x="247" y="51" type="line"/>
      <point x="247" y="465" type="line"/>
      <point x="89" y="441" type="line"/>
      <point x="30" y="441" type="line"/>
    </contour>
    <contour>
      <point x="89" y="597" type="curve" smooth="yes"/>
      <point x="89" y="540"/>
      <point x="111" y="515"/>
      <point x="168" y="515" type="curve" smooth="yes"/>
      <point x="224" y="515"/>
      <point x="247" y="540"/>
      <point x="247" y="597" type="curve" smooth="yes"/>
      <point x="247" y="653"/>
      <point x="228" y="680"/>
      <point x="168" y="680" type="curve" smooth="yes"/>
      <point x="111" y="680"/>
      <point x="89" y="653"/>
    </contour>
  </outline>
</glyph>
<glyph name="k" format="1">
  <advance width="568"/>
  <unicode hex="006B"/>
  <outline>
    <contour>
      <point x="368" y="54" type="line" smooth="yes"/>
      <point x="384" y="18"/>
      <point x="404" y="-4"/>
      <point x="466" y="-4" type="curve" smooth="yes"/>
      <point x="546" y="-4"/>
      <point x="583" y="5"/>
      <point x="583" y="5" type="curve"/>
      <point x="583" y="53" type="line"/>
      <point x="583" y="53"/>
      <point x="548" y="50"/>
      <point x="536" y="50" type="curve"/>
      <point x="438" y="273" type="line"/>
      <point x="452" y="289"/>
      <point x="460" y="310"/>
      <point x="460" y="339" type="curve" smooth="yes"/>
      <point x="460" y="398" type="line"/>
      <point x="555" y="398" type="line"/>
      <point x="555" y="449" type="line"/>
      <point x="317" y="449" type="line"/>
      <point x="317" y="398" type="line"/>
      <point x="397" y="398" type="line"/>
      <point x="397" y="352" type="line" smooth="yes"/>
      <point x="397" y="303"/>
      <point x="373" y="292"/>
      <point x="311" y="292" type="curve" smooth="yes"/>
      <point x="242" y="292" type="line"/>
      <point x="242" y="644" type="line"/>
      <point x="84" y="615" type="line"/>
      <point x="25" y="615" type="line"/>
      <point x="25" y="565" type="line"/>
      <point x="84" y="565" type="line"/>
      <point x="84" y="51" type="line"/>
      <point x="25" y="51" type="line"/>
      <point x="25" y="0" type="line"/>
      <point x="301" y="0" type="line"/>
      <point x="301" y="51" type="line"/>
      <point x="242" y="51" type="line"/>
      <point x="242" y="238" type="line"/>
      <point x="288" y="238" type="line"/>
    </contour>
  </outline>
</glyph>
<glyph name="l" format="1">
  <advance width="348"/>
  <unicode hex="006C"/>
  <outline>
    <contour>
      <point x="10" y="565" type="line"/>
      <point x="69" y="565" type="line"/>
      <point x="69" y="93" type="line" smooth="yes"/>
      <point x="69" y="64"/>
      <point x="90" y="-4"/>
      <point x="189" y="-4" type="curve" smooth="yes"/>
      <point x="332" y="-4"/>
      <point x="338" y="56"/>
      <point x="338" y="138" type="curve"/>
      <point x="287" y="138" type="line"/>
      <point x="287" y="74"/>
      <point x="279" y="50"/>
      <point x="227" y="50" type="curve"/>
      <point x="227" y="644" type="line"/>
      <point x="69" y="615" type="line"/>
      <point x="10" y="615" type="line"/>
    </contour>
  </outline>
</glyph>
<glyph name="m" format="1">
  <advance width="855"/>
  <unicode hex="006D"/>
  <outline>
    <contour>
      <point x="30" y="381" type="line"/>
      <point x="89" y="381" type="line"/>
      <point x="89" y="51" type="line"/>
      <point x="30" y="51" type="line"/>
      <point x="30" y="0" type="line"/>
      <point x="306" y="0" type="line"/>
      <point x="306" y="51" type="line"/>
      <point x="247" y="51" type="line"/>
      <point x="247" y="328" type="line"/>
      <point x="255" y="342"/>
      <point x="290" y="397"/>
      <point x="335" y="397" type="curve" smooth="yes"/>
      <point x="356" y="397"/>
      <point x="356" y="394"/>
      <point x="356" y="394" type="curve"/>
      <point x="356" y="0" type="line"/>
      <point x="573" y="0" type="line"/>
      <point x="573" y="51" type="line"/>
      <point x="514" y="51" type="line"/>
      <point x="514" y="328" type="line"/>
      <point x="522" y="342"/>
      <point x="557" y="397"/>
      <point x="602" y="397" type="curve" smooth="yes"/>
      <point x="623" y="397"/>
      <point x="623" y="394"/>
      <point x="623" y="394" type="curve"/>
      <point x="623" y="0" type="line"/>
      <point x="840" y="0" type="line"/>
      <point x="840" y="51" type="line"/>
      <point x="781" y="51" type="line"/>
      <point x="781" y="362" type="line" smooth="yes"/>
      <point x="781" y="439"/>
      <point x="709" y="456"/>
      <point x="648" y="456" type="curve" smooth="yes"/>
      <point x="554" y="456"/>
      <point x="517" y="405"/>
      <point x="509" y="393" type="curve"/>
      <point x="492" y="443"/>
      <point x="432" y="456"/>
      <point x="381" y="456" type="curve" smooth="yes"/>
      <point x="293" y="456"/>
      <point x="252" y="410"/>
      <point x="240" y="393" type="curve"/>
      <point x="240" y="460" type="line"/>
      <point x="89" y="431" type="line"/>
      <point x="30" y="431" type="line"/>
    </contour>
  </outline>
</glyph>
<glyph name="n" format="1">
  <advance width="603"/>
  <unicode hex="006E"/>
  <outline>
    <contour>
      <point x="343" y="449" type="move" name="top"/>
    </contour>
    <contour>
      <point x="30" y="381" type="line"/>
      <point x="89" y="381" type="line"/>
      <point x="89" y="51" type="line"/>
      <point x="30" y="51" type="line"/>
      <point x="30" y="0" type="line"/>
      <point x="306" y="0" type="line"/>
      <point x="306" y="51" type="line"/>
      <point x="247" y="51" type="line"/>
      <point x="247" y="329" type="line"/>
      <point x="255" y="345"/>
      <point x="287" y="397"/>
      <point x="343" y="397" type="curve" smooth="yes"/>
      <point x="364" y="397"/>
      <point x="371" y="394"/>
      <point x="371" y="394" type="curve"/>
      <point x="371" y="0" type="line"/>
      <point x="588" y="0" type="line"/>
      <point x="588" y="51" type="line"/>
      <point x="529" y="51" type="line"/>
      <point x="529" y="362" type="line" smooth="yes"/>
      <point x="529" y="439"/>
      <point x="457" y="456"/>
      <point x="396" y="456" type="curve" smooth="yes"/>
      <point x="284" y="456"/>
      <point x="245" y="399"/>
      <point x="240" y="390" type="curve"/>
      <point x="240" y="460" type="line"/>
      <point x="89" y="431" type="line"/>
      <point x="30" y="431" type="line"/>
    </contour>
  </outline>
</glyph>
<glyph name="o" format="1">
  <advance width="536"/>
  <unicode hex="006F"/>
  <outline>
    <contour>
      <point x="270" y="449" type="move" name="top"/>
    </contour>
    <contour>
      <point x="199" y="223" type="curve" smooth="yes"/>
      <point x="199" y="327"/>
      <point x="217" y="405"/>
      <point x="217" y="405" type="curve"/>
      <point x="217" y="405"/>
      <point x="235" y="411"/>
      <point x="268" y="411" type="curve" smooth="yes"/>
      <point x="299" y="411"/>
      <point x="319" y="405"/>
      <point x="319" y="405" type="curve"/>
      <point x="319" y="405"/>
      <point x="337" y="327"/>
      <point x="337" y="223" type="curve" smooth="yes"/>
      <point x="337" y="119"/>
      <point x="319" y="41"/>
      <point x="319" y="41" type="curve"/>
      <point x="319" y="41"/>
      <point x="301" y="35"/>
      <point x="268" y="35" type="curve" smooth="yes"/>
      <point x="235" y="35"/>
      <point x="217" y="41"/>
      <point x="217" y="41" type="curve"/>
      <point x="217" y="41"/>
      <point x="199" y="119"/>
    </contour>
    <contour>
      <point x="35" y="223" type="curve" smooth="yes"/>
      <point x="35" y="52"/>
      <point x="96" y="-10"/>
      <point x="268" y="-10" type="curve" smooth="yes"/>
      <point x="440" y="-10"/>
      <point x="501" y="52"/>
      <point x="501" y="223" type="curve" smooth="yes"/>
      <point x="501" y="394"/>
      <point x="440" y="456"/>
      <point x="268" y="456" type="curve" smooth="yes"/>
      <point x="96" y="456"/>
      <point x="35" y="394"/>
    </contour>
  </outline>
</glyph>
<glyph name="p" format="1">
  <advance width="578"/>
  <unicode hex="0070"/>
  <outline>
    <contour>
      <point x="25" y="381" type="line"/>
      <point x="84" y="381" type="line"/>
      <point x="84" y="-114" type="line"/>
      <point x="25" y="-114" type="line"/>
      <point x="25" y="-165" type="line"/>
      <point x="242" y="-165" type="line"/>
      <point x="242" y="-3" type="line"/>
      <point x="263" y="-6"/>
      <point x="286" y="-9"/>
      <point x="310" y="-9" type="curve" smooth="yes"/>
      <point x="482" y="-9"/>
      <point x="543" y="52"/>
      <point x="543" y="223" type="curve" smooth="yes"/>
      <point x="543" y="392"/>
      <point x="483" y="455"/>
      <point x="373" y="455" type="curve" smooth="yes"/>
      <point x="321" y="455"/>
      <point x="273" y="433"/>
      <point x="235" y="397" type="curve"/>
      <point x="235" y="460" type="line"/>
      <point x="84" y="431" type="line"/>
      <point x="25" y="431" type="line"/>
    </contour>
    <contour>
      <point x="361" y="401" type="curve"/>
      <point x="361" y="401"/>
      <point x="379" y="350"/>
      <point x="379" y="223" type="curve" smooth="yes"/>
      <point x="379" y="119"/>
      <point x="361" y="42"/>
      <point x="361" y="42" type="curve"/>
      <point x="361" y="42"/>
      <point x="343" y="36"/>
      <point x="310" y="36" type="curve" smooth="yes"/>
      <point x="290" y="36"/>
      <point x="264" y="39"/>
      <point x="242" y="45" type="curve"/>
      <point x="242" y="328" type="line"/>
      <point x="274" y="369"/>
      <point x="317" y="401"/>
    </contour>
  </outline>
</glyph>
<glyph name="q" format="1">
  <advance width="555"/>
  <unicode hex="0071"/>
  <outline>
    <contour>
      <point x="278" y="-165" type="line"/>
      <point x="495" y="-165" type="line"/>
      <point x="495" y="443" type="line"/>
      <point x="395" y="437" type="line"/>
      <point x="369" y="444"/>
      <point x="319" y="456"/>
      <point x="268" y="456" type="curve" smooth="yes"/>
      <point x="96" y="456"/>
      <point x="35" y="395"/>
      <point x="35" y="224" type="curve" smooth="yes"/>
      <point x="35" y="55"/>
      <point x="95" y="-8"/>
      <point x="205" y="-8" type="curve" smooth="yes"/>
      <point x="254" y="-8"/>
      <point x="300" y="12"/>
      <point x="337" y="44" type="curve"/>
      <point x="337" y="-114" type="line"/>
      <point x="278" y="-114" type="line"/>
    </contour>
    <contour>
      <point x="217" y="46" type="curve"/>
      <point x="217" y="46"/>
      <point x="199" y="97"/>
      <point x="199" y="224" type="curve" smooth="yes"/>
      <point x="199" y="328"/>
      <point x="217" y="405"/>
      <point x="217" y="405" type="curve"/>
      <point x="217" y="405"/>
      <point x="235" y="411"/>
      <point x="268" y="411" type="curve" smooth="yes"/>
      <point x="288" y="411"/>
      <point x="314" y="407"/>
      <point x="337" y="402" type="curve"/>
      <point x="337" y="120" type="line"/>
      <point x="305" y="78"/>
      <point x="261" y="46"/>
    </contour>
  </outline>
</glyph>
<glyph name="r" format="1">
  <advance width="445"/>
  <unicode hex="0072"/>
  <outline>
    <contour>
      <point x="30" y="381" type="line"/>
      <point x="89" y="381" type="line"/>
      <point x="89" y="51" type="line"/>
      <point x="30" y="51" type="line"/>
      <point x="30" y="0" type="line"/>
      <point x="306" y="0" type="line"/>
      <point x="306" y="51" type="line"/>
      <point x="247" y="51" type="line"/>
      <point x="247" y="329" type="line"/>
      <point x="253" y="342"/>
      <point x="273" y="379"/>
      <point x="297" y="392" type="curve"/>
      <point x="306" y="344"/>
      <point x="334" y="258"/>
      <point x="430" y="258" type="curve"/>
      <point x="430" y="451" type="line"/>
      <point x="430" y="451"/>
      <point x="425" y="456"/>
      <point x="366" y="456" type="curve" smooth="yes"/>
      <point x="271" y="456"/>
      <point x="243" y="403"/>
      <point x="240" y="396" type="curve"/>
      <point x="240" y="460" type="line"/>
      <point x="89" y="431" type="line"/>
      <point x="30" y="431" type="line"/>
    </contour>
  </outline>
</glyph>
<glyph name="s" format="1">
  <advance width="457"/>
  <unicode hex="0073"/>
  <outline>
    <contour>
      <point x="248" y="454" type="curve" smooth="yes"/>
      <point x="96" y="454"/>
      <point x="45" y="404"/>
      <point x="45" y="323" type="curve" smooth="yes"/>
      <point x="45" y="153"/>
      <point x="268" y="209"/>
      <point x="268" y="91" type="curve" smooth="yes"/>
      <point x="268" y="53"/>
      <point x="259" y="40"/>
      <point x="259" y="40" type="curve"/>
      <point x="259" y="40"/>
      <point x="235" y="37"/>
      <point x="212" y="37" type="curve" smooth="yes"/>
      <point x="203" y="37"/>
      <point x="196" y="37"/>
      <point x="188" y="38" type="curve"/>
      <point x="181" y="75"/>
      <point x="154" y="153"/>
      <point x="54" y="153" type="curve"/>
      <point x="54" y="-11" type="line"/>
      <point x="123" y="4" type="line"/>
      <point x="143" y="-2"/>
      <point x="176" y="-8"/>
      <point x="227" y="-8" type="curve" smooth="yes"/>
      <point x="351" y="-8"/>
      <point x="427" y="30"/>
      <point x="427" y="136" type="curve" smooth="yes"/>
      <point x="427" y="233"/>
      <point x="349" y="266"/>
      <point x="278" y="285" type="curve" smooth="yes"/>
      <point x="223" y="300"/>
      <point x="204" y="310"/>
      <point x="204" y="360" type="curve" smooth="yes"/>
      <point x="204" y="393"/>
      <point x="213" y="405"/>
      <point x="213" y="405" type="curve"/>
      <point x="213" y="405"/>
      <point x="224" y="409"/>
      <point x="248" y="409" type="curve" smooth="yes"/>
      <point x="256" y="409" type="line"/>
      <point x="264" y="374"/>
      <point x="291" y="303"/>
      <point x="391" y="303" type="curve"/>
      <point x="391" y="457" type="line"/>
      <point x="324" y="442" type="line"/>
      <point x="304" y="449"/>
      <point x="279" y="454"/>
    </contour>
  </outline>
</glyph>
<glyph name="t" format="1">
  <advance width="368"/>
  <unicode hex="0074"/>
  <outline>
    <contour>
      <point x="65" y="93" type="line" smooth="yes"/>
      <point x="65" y="46"/>
      <point x="101" y="-4"/>
      <point x="200" y="-4" type="curve" smooth="yes"/>
      <point x="344" y="-4"/>
      <point x="353" y="53"/>
      <point x="353" y="138" type="curve"/>
      <point x="302" y="138" type="line"/>
      <point x="302" y="80"/>
      <point x="281" y="50"/>
      <point x="244" y="50" type="curve" smooth="yes"/>
      <point x="223" y="50" type="line"/>
      <point x="223" y="399" type="line"/>
      <point x="343" y="399" type="line"/>
      <point x="343" y="449" type="line"/>
      <point x="223" y="449" type="line"/>
      <point x="223" y="538" type="line"/>
      <point x="65" y="495" type="line"/>
    </contour>
  </outline>
</glyph>
<glyph name="v" format="1">
  <advance width="531"/>
  <unicode hex="0076"/>
  <outline>
    <contour>
      <point x="-15" y="398" type="line"/>
      <point x="39" y="398" type="line"/>
      <point x="266" y="-30" type="line"/>
      <point x="287" y="-30" type="line"/>
      <point x="471" y="398" type="line"/>
      <point x="541" y="398" type="line"/>
      <point x="541" y="449" type="line"/>
      <point x="333" y="449" type="line"/>
      <point x="333" y="398" type="line"/>
      <point x="413" y="398" type="line"/>
      <point x="323" y="192" type="line"/>
      <point x="194" y="449" type="line"/>
      <point x="-15" y="449" type="line"/>
    </contour>
  </outline>
</glyph>
<glyph name="x" format="1">
  <advance width="527"/>
  <unicode hex="0078"/>
  <outline>
    <contour>
      <point x="10" y="398" type="line"/>
      <point x="65" y="398" type="line"/>
      <point x="187" y="223" type="line"/>
      <point x="81" y="51" type="line"/>
      <point x="17" y="51" type="line"/>
      <point x="17" y="0" type="line"/>
      <point x="212" y="0" type="line"/>
      <point x="212" y="51" type="line"/>
      <point x="149" y="51" type="line"/>
      <point x="223" y="172" type="line"/>
      <point x="343" y="0" type="line"/>
      <point x="522" y="0" type="line"/>
      <point x="522" y="19" type="line"/>
      <point x="347" y="262" type="line"/>
      <point x="439" y="398" type="line"/>
      <point x="499" y="398" type="line"/>
      <point x="499" y="449" type="line"/>
      <point x="311" y="449" type="line"/>
      <point x="311" y="398" type="line"/>
      <point x="371" y="398" type="line"/>
      <point x="312" y="310" type="line"/>
      <point x="213" y="449" type="line"/>
      <point x="10" y="449" type="line"/>
    </contour>
  </outline>
</glyph>
<glyph name="y" format="1">
  <advance width="531"/>
  <unicode hex="0079"/>
  <outline>
    <contour>
      <point x="292" y="449" type="move" name="top"/>
    </contour>
    <contour>
      <point x="-15" y="398" type="line"/>
      <point x="35" y="398" type="line"/>
      <point x="229" y="-24" type="line"/>
      <point x="218" y="-50" type="line" smooth="yes"/>
      <point x="203" y="-85"/>
      <point x="187" y="-114"/>
      <point x="151" y="-114" type="curve" smooth="yes"/>
      <point x="127" y="-114"/>
      <point x="120" y="-96"/>
      <point x="120" y="-80" type="curve" smooth="yes"/>
      <point x="120" y="-49" type="line"/>
      <point x="67" y="-49" type="line"/>
      <point x="67" y="-79" type="line" smooth="yes"/>
      <point x="67" y="-107"/>
      <point x="76" y="-165"/>
      <point x="151" y="-165" type="curve" smooth="yes"/>
      <point x="220" y="-165"/>
      <point x="246" y="-129"/>
      <point x="271" y="-70" type="curve" smooth="yes"/>
      <point x="471" y="398" type="line"/>
      <point x="541" y="398" type="line"/>
      <point x="541" y="449" type="line"/>
      <point x="333" y="449" type="line"/>
      <point x="333" y="398" type="line"/>
      <point x="413" y="398" type="line"/>
      <point x="309" y="158" type="line"/>
      <point x="194" y="449" type="line"/>
      <point x="-15" y="449" type="line"/>
    </contour>
  </outline>
</glyph>
<glyph name="z" format="1">
  <advance width="468"/>
  <unicode hex="007A"/>
  <outline>
    <contour>
      <point x="426" y="449" type="line"/>
      <point x="36" y="449" type="line"/>
      <point x="36" y="294" type="line"/>
      <point x="131" y="294"/>
      <point x="158" y="362"/>
      <point x="166" y="401" type="curve"/>
      <point x="248" y="401" type="line"/>
      <point x="35" y="18" type="line"/>
      <point x="35" y="0" type="line"/>
      <point x="438" y="0" type="line"/>
      <point x="438" y="169" type="line"/>
      <point x="343" y="169"/>
      <point x="308" y="91"/>
      <point x="295" y="48" type="curve"/>
      <point x="221" y="48" type="line"/>
      <point x="426" y="430" type="line"/>
    </contour>
  </outline>
</glyph>
<glyph name="braceleft" format="1">
  <advance width="425"/>
  <unicode hex="007B"/>
  <outline>
    <contour>
      <point x="30" y="265" type="line"/>
      <point x="117" y="204" type="line"/>
      <point x="115" y="177"/>
      <point x="114" y="147"/>
      <point x="114" y="130" type="curve" smooth="yes"/>
      <point x="114" y="-12"/>
      <point x="188" y="-103"/>
      <point x="380" y="-135" type="curve"/>
      <point x="380" y="-74" type="line"/>
      <point x="315" y="-65"/>
      <point x="282" y="-32"/>
      <point x="282" y="-32" type="curve"/>
      <point x="282" y="-32"/>
      <point x="270" y="27"/>
      <point x="270" y="116" type="curve" smooth="yes"/>
      <point x="270" y="167"/>
      <point x="228" y="197"/>
      <point x="194" y="222" type="curve" smooth="yes"/>
      <point x="122" y="275" type="line"/>
      <point x="190" y="321" type="line" smooth="yes"/>
      <point x="227" y="346"/>
      <point x="270" y="376"/>
      <point x="270" y="429" type="curve" smooth="yes"/>
      <point x="270" y="518"/>
      <point x="282" y="577"/>
      <point x="282" y="577" type="curve"/>
      <point x="282" y="577"/>
      <point x="315" y="610"/>
      <point x="380" y="619" type="curve"/>
      <point x="380" y="680" type="line"/>
      <point x="188" y="648"/>
      <point x="114" y="557"/>
      <point x="114" y="415" type="curve" smooth="yes"/>
      <point x="114" y="394"/>
      <point x="115" y="368"/>
      <point x="117" y="341" type="curve"/>
      <point x="30" y="281" type="line"/>
    </contour>
  </outline>
</glyph>
<glyph name="braceright" format="1">
  <advance width="425"/>
  <unicode hex="007D"/>
  <outline>
    <contour>
      <point x="395" y="281" type="line"/>
      <point x="308" y="341" type="line"/>
      <point x="310" y="368"/>
      <point x="311" y="394"/>
      <point x="311" y="415" type="curve" smooth="yes"/>
      <point x="311" y="557"/>
      <point x="237" y="648"/>
      <point x="45" y="680" type="curve"/>
      <point x="45" y="619" type="line"/>
      <point x="110" y="610"/>
      <point x="143" y="577"/>
      <point x="143" y="577" type="curve"/>
      <point x="143" y="577"/>
      <point x="155" y="518"/>
      <point x="155" y="429" type="curve" smooth="yes"/>
      <point x="155" y="376"/>
      <point x="198" y="346"/>
      <point x="235" y="321" type="curve" smooth="yes"/>
      <point x="303" y="275" type="line"/>
      <point x="231" y="222" type="line" smooth="yes"/>
      <point x="197" y="197"/>
      <point x="155" y="167"/>
      <point x="155" y="116" type="curve" smooth="yes"/>
      <point x="155" y="27"/>
      <point x="143" y="-32"/>
      <point x="143" y="-32" type="curve"/>
      <point x="143" y="-32"/>
      <point x="110" y="-65"/>
      <point x="45" y="-74" type="curve"/>
      <point x="45" y="-135" type="line"/>
      <point x="237" y="-103"/>
      <point x="311" y="-12"/>
      <point x="311" y="130" type="curve" smooth="yes"/>
      <point x="311" y="147"/>
      <point x="310" y="177"/>
      <point x="308" y="204" type="curve"/>
      <point x="395" y="265" type="line"/>
    </contour>
  </outline>
</glyph>
<glyph name="cent" format="1">
  <advance width="511"/>
  <unicode hex="00A2"/>
  <outline>
    <contour>
      <point x="267" y="-66" type="line"/>
      <point x="329" y="-66" type="line"/>
      <point x="329" y="32" type="line"/>
      <point x="391" y="38"/>
      <point x="465" y="66"/>
      <point x="465" y="172" type="curve"/>
      <point x="417" y="172" type="line"/>
      <point x="417" y="110"/>
      <point x="377" y="87"/>
      <point x="329" y="81" type="curve"/>
      <point x="329" y="449" type="line"/>
      <point x="355" y="447" type="line"/>
      <point x="361" y="412"/>
      <point x="383" y="337"/>
      <point x="471" y="337" type="curve"/>
      <point x="471" y="490" type="line"/>
      <point x="442" y="483" type="line"/>
      <point x="421" y="486"/>
      <point x="374" y="492"/>
      <point x="329" y="495" type="curve"/>
      <point x="329" y="624" type="line"/>
      <point x="267" y="624" type="line"/>
      <point x="267" y="496" type="line"/>
      <point x="104" y="492"/>
      <point x="50" y="428"/>
      <point x="50" y="264" type="curve" smooth="yes"/>
      <point x="50" y="102"/>
      <point x="113" y="37"/>
      <point x="267" y="31" type="curve"/>
    </contour>
    <contour>
      <point x="232" y="84" type="line"/>
      <point x="232" y="84"/>
      <point x="214" y="160"/>
      <point x="214" y="264" type="curve" smooth="yes"/>
      <point x="214" y="369"/>
      <point x="232" y="446"/>
      <point x="232" y="446" type="curve"/>
      <point x="267" y="452" type="line"/>
      <point x="267" y="80" type="line"/>
    </contour>
  </outline>
</glyph>
<glyph name="sterling" format="1">
  <advance width="617"/>
  <unicode hex="00A3"/>
  <outline>
    <contour>
      <point x="30" y="342" type="line"/>
      <point x="30" y="284" type="line"/>
      <point x="135" y="284" type="line"/>
      <point x="133" y="151"/>
      <point x="116" y="51"/>
      <point x="116" y="51" type="curve"/>
      <point x="43" y="51" type="line"/>
      <point x="43" y="0" type="line"/>
      <point x="368" y="0" type="line" smooth="yes"/>
      <point x="479" y="0"/>
      <point x="577" y="58"/>
      <point x="577" y="193" type="curve" smooth="yes"/>
      <point x="577" y="221" type="line"/>
      <point x="519" y="221" type="line"/>
      <point x="519" y="190" type="line" smooth="yes"/>
      <point x="519" y="93"/>
      <point x="458" y="51"/>
      <point x="374" y="51" type="curve" smooth="yes"/>
      <point x="230" y="51" type="line"/>
      <point x="292" y="88"/>
      <point x="319" y="159"/>
      <point x="322" y="284" type="curve"/>
      <point x="462" y="284" type="line"/>
      <point x="462" y="342" type="line"/>
      <point x="322" y="342" type="line"/>
      <point x="322" y="462"/>
      <point x="321" y="527"/>
      <point x="321" y="527" type="curve"/>
      <point x="363" y="534" type="line"/>
      <point x="365" y="510"/>
      <point x="387" y="367"/>
      <point x="546" y="367" type="curve"/>
      <point x="546" y="571" type="line"/>
      <point x="546" y="571"/>
      <point x="495" y="586"/>
      <point x="404" y="586" type="curve" smooth="yes"/>
      <point x="221" y="586"/>
      <point x="152" y="516"/>
      <point x="138" y="342" type="curve"/>
    </contour>
  </outline>
</glyph>
<glyph name="currency" format="1">
  <advance width="628"/>
  <unicode hex="00A4"/>
  <outline>
    <contour>
      <point x="73" y="-10" type="line"/>
      <point x="175" y="92" type="line"/>
      <point x="212" y="68"/>
      <point x="258" y="55"/>
      <point x="314" y="55" type="curve" smooth="yes"/>
      <point x="369" y="55"/>
      <point x="416" y="68"/>
      <point x="453" y="92" type="curve"/>
      <point x="555" y="-10" type="line"/>
      <point x="598" y="34" type="line"/>
      <point x="499" y="133" type="line"/>
      <point x="530" y="172"/>
      <point x="547" y="225"/>
      <point x="547" y="288" type="curve" smooth="yes"/>
      <point x="547" y="351"/>
      <point x="530" y="403"/>
      <point x="499" y="442" type="curve"/>
      <point x="598" y="542" type="line"/>
      <point x="555" y="586" type="line"/>
      <point x="453" y="484" type="line"/>
      <point x="416" y="508"/>
      <point x="369" y="521"/>
      <point x="314" y="521" type="curve" smooth="yes"/>
      <point x="258" y="521"/>
      <point x="212" y="508"/>
      <point x="175" y="484" type="curve"/>
      <point x="73" y="586" type="line"/>
      <point x="30" y="542" type="line"/>
      <point x="129" y="442" type="line"/>
      <point x="98" y="403"/>
      <point x="81" y="351"/>
      <point x="81" y="288" type="curve" smooth="yes"/>
      <point x="81" y="225"/>
      <point x="98" y="172"/>
      <point x="129" y="133" type="curve"/>
      <point x="30" y="34" type="line"/>
    </contour>
    <contour>
      <point x="149" y="289" type="curve" smooth="yes"/>
      <point x="149" y="407"/>
      <point x="208" y="463"/>
      <point x="314" y="463" type="curve" smooth="yes"/>
      <point x="420" y="463"/>
      <point x="479" y="406"/>
      <point x="479" y="289" type="curve" smooth="yes"/>
      <point x="479" y="170"/>
      <point x="420" y="113"/>
      <point x="314" y="113" type="curve" smooth="yes"/>
      <point x="208" y="113"/>
      <point x="149" y="170"/>
    </contour>
  </outline>
</glyph>
<glyph name="brokenbar" format="1">
  <advance width="462"/>
  <unicode hex="00A6"/>
  <outline>
    <contour>
      <point x="200" y="334" type="line"/>
      <point x="262" y="334" type="line"/>
      <point x="262" y="644" type="line"/>
      <point x="200" y="644" type="line"/>
    </contour>
    <contour>
      <point x="200" y="-46" type="line"/>
      <point x="262" y="-46" type="line"/>
      <point x="262" y="269" type="line"/>
      <point x="200" y="269" type="line"/>
    </contour>
  </outline>
</glyph>
<glyph name="section" format="1">
  <advance width="458"/>
  <unicode hex="00A7"/>
  <outline>
    <contour>
      <point x="223" y="-96" type="curve" smooth="yes"/>
      <point x="349" y="-96"/>
      <point x="398" y="-33"/>
      <point x="398" y="45" type="curve" smooth="yes"/>
      <point x="398" y="88"/>
      <point x="383" y="116"/>
      <point x="359" y="137" type="curve"/>
      <point x="388" y="173"/>
      <point x="408" y="224"/>
      <point x="408" y="281" type="curve" smooth="yes"/>
      <point x="408" y="339"/>
      <point x="379" y="383"/>
      <point x="328" y="403" type="curve" smooth="yes"/>
      <point x="288" y="419" type="line" smooth="yes"/>
      <point x="242" y="437"/>
      <point x="214" y="450"/>
      <point x="214" y="494" type="curve" smooth="yes"/>
      <point x="214" y="520"/>
      <point x="223" y="531"/>
      <point x="223" y="531" type="curve"/>
      <point x="223" y="531"/>
      <point x="243" y="535"/>
      <point x="259" y="535" type="curve" smooth="yes"/>
      <point x="293" y="535"/>
      <point x="321" y="516"/>
      <point x="321" y="488" type="curve" smooth="yes"/>
      <point x="321" y="462" type="line"/>
      <point x="381" y="462" type="line"/>
      <point x="381" y="489" type="line" smooth="yes"/>
      <point x="381" y="572"/>
      <point x="315" y="588"/>
      <point x="235" y="588" type="curve" smooth="yes"/>
      <point x="109" y="588"/>
      <point x="60" y="535"/>
      <point x="60" y="457" type="curve" smooth="yes"/>
      <point x="60" y="412"/>
      <point x="76" y="383"/>
      <point x="101" y="362" type="curve"/>
      <point x="71" y="329"/>
      <point x="50" y="279"/>
      <point x="50" y="221" type="curve" smooth="yes"/>
      <point x="50" y="163"/>
      <point x="79" y="119"/>
      <point x="130" y="99" type="curve" smooth="yes"/>
      <point x="170" y="83" type="line" smooth="yes"/>
      <point x="216" y="65"/>
      <point x="244" y="52"/>
      <point x="244" y="8" type="curve" smooth="yes"/>
      <point x="244" y="-18"/>
      <point x="235" y="-39"/>
      <point x="235" y="-39" type="curve"/>
      <point x="235" y="-39"/>
      <point x="215" y="-43"/>
      <point x="199" y="-43" type="curve" smooth="yes"/>
      <point x="165" y="-43"/>
      <point x="137" y="-24"/>
      <point x="137" y="4" type="curve" smooth="yes"/>
      <point x="137" y="30" type="line"/>
      <point x="77" y="30" type="line"/>
      <point x="77" y="3" type="line" smooth="yes"/>
      <point x="77" y="-80"/>
      <point x="143" y="-96"/>
    </contour>
    <contour>
      <point x="251" y="289" type="line"/>
      <point x="293" y="271"/>
      <point x="330" y="246"/>
      <point x="346" y="224" type="curve"/>
      <point x="346" y="205"/>
      <point x="332" y="177"/>
      <point x="319" y="163" type="curve"/>
      <point x="207" y="213" type="line" smooth="yes"/>
      <point x="165" y="231"/>
      <point x="128" y="256"/>
      <point x="112" y="278" type="curve"/>
      <point x="112" y="299"/>
      <point x="127" y="325"/>
      <point x="141" y="338" type="curve"/>
    </contour>
  </outline>
</glyph>
<glyph name="dieresis" format="1">
  <advance width="520"/>
  <unicode hex="00A8"/>
  <outline>
    <contour>
      <point x="261" y="449" type="move" name="_top"/>
    </contour>
    <contour>
      <point x="86" y="597" type="curve" smooth="yes"/>
      <point x="86" y="546"/>
      <point x="106" y="523"/>
      <point x="157" y="523" type="curve" smooth="yes"/>
      <point x="207" y="523"/>
      <point x="228" y="546"/>
      <point x="228" y="597" type="curve" smooth="yes"/>
      <point x="228" y="647"/>
      <point x="211" y="672"/>
      <point x="157" y="672" type="curve" smooth="yes"/>
      <point x="106" y="672"/>
      <point x="86" y="647"/>
    </contour>
    <contour>
      <point x="291" y="597" type="curve" smooth="yes"/>
      <point x="291" y="546"/>
      <point x="311" y="523"/>
      <point x="362" y="523" type="curve" smooth="yes"/>
      <point x="412" y="523"/>
      <point x="433" y="546"/>
      <point x="433" y="597" type="curve" smooth="yes"/>
      <point x="433" y="647"/>
      <point x="416" y="672"/>
      <point x="362" y="672" type="curve" smooth="yes"/>
      <point x="311" y="672"/>
      <point x="291" y="647"/>
    </contour>
  </outline>
</glyph>
<glyph name="copyright" format="1">
  <advance width="570"/>
  <unicode hex="00A9"/>
  <outline>
    <contour>
      <point x="50" y="226" type="curve" smooth="yes"/>
      <point x="50" y="82"/>
      <point x="140" y="-7"/>
      <point x="285" y="-7" type="curve" smooth="yes"/>
      <point x="424" y="-7"/>
      <point x="520" y="88"/>
      <point x="520" y="226" type="curve" smooth="yes"/>
      <point x="520" y="370"/>
      <point x="430" y="459"/>
      <point x="285" y="459" type="curve" smooth="yes"/>
      <point x="146" y="459"/>
      <point x="50" y="364"/>
    </contour>
    <contour>
      <point x="118" y="227" type="curve" smooth="yes"/>
      <point x="118" y="339"/>
      <point x="185" y="401"/>
      <point x="285" y="401" type="curve" smooth="yes"/>
      <point x="391" y="401"/>
      <point x="452" y="344"/>
      <point x="452" y="227" type="curve" smooth="yes"/>
      <point x="452" y="114"/>
      <point x="385" y="51"/>
      <point x="285" y="51" type="curve" smooth="yes"/>
      <point x="179" y="51"/>
      <point x="118" y="108"/>
    </contour>
    <contour>
      <point x="302" y="322" type="line"/>
      <point x="305" y="302"/>
      <point x="318" y="256"/>
      <point x="374" y="256" type="curve"/>
      <point x="374" y="345" type="line"/>
      <point x="374" y="345"/>
      <point x="332" y="353"/>
      <point x="297" y="353" type="curve" smooth="yes"/>
      <point x="200" y="353"/>
      <point x="174" y="320"/>
      <point x="174" y="227" type="curve" smooth="yes"/>
      <point x="174" y="134"/>
      <point x="206" y="101"/>
      <point x="290" y="101" type="curve" smooth="yes"/>
      <point x="357" y="101"/>
      <point x="382" y="131"/>
      <point x="382" y="185" type="curve"/>
      <point x="346" y="185" type="line"/>
      <point x="346" y="148"/>
      <point x="334" y="135"/>
      <point x="310" y="135" type="curve" smooth="yes"/>
      <point x="288" y="135" type="line"/>
      <point x="288" y="135"/>
      <point x="279" y="177"/>
      <point x="279" y="227" type="curve" smooth="yes"/>
      <point x="279" y="281"/>
      <point x="288" y="318"/>
      <point x="288" y="318" type="curve"/>
    </contour>
  </outline>
</glyph>
<glyph name="ordfeminine" format="1">
  <advance width="430"/>
  <unicode hex="00AA"/>
  <outline>
    <contour>
      <point x="347" y="487" type="line" smooth="yes"/>
      <point x="347" y="596"/>
      <point x="336" y="630"/>
      <point x="226" y="630" type="curve" smooth="yes"/>
      <point x="173" y="630"/>
      <point x="89" y="622"/>
      <point x="89" y="622" type="curve"/>
      <point x="89" y="513" type="line"/>
      <point x="154" y="513"/>
      <point x="174" y="562"/>
      <point x="180" y="590" type="curve"/>
      <point x="184" y="591"/>
      <point x="189" y="591"/>
      <point x="193" y="591" type="curve" smooth="yes"/>
      <point x="212" y="591"/>
      <point x="218" y="588"/>
      <point x="218" y="588" type="curve"/>
      <point x="218" y="588"/>
      <point x="220" y="562"/>
      <point x="221" y="517" type="curve"/>
      <point x="84" y="484" type="line"/>
      <point x="84" y="484"/>
      <point x="80" y="452"/>
      <point x="80" y="416" type="curve" smooth="yes"/>
      <point x="80" y="373"/>
      <point x="110" y="346"/>
      <point x="164" y="346" type="curve" smooth="yes"/>
      <point x="196" y="346"/>
      <point x="220" y="358"/>
      <point x="239" y="378" type="curve"/>
      <point x="255" y="362"/>
      <point x="281" y="349"/>
      <point x="317" y="349" type="curve" smooth="yes"/>
      <point x="340" y="349"/>
      <point x="380" y="356"/>
      <point x="380" y="356" type="curve"/>
      <point x="380" y="394" type="line"/>
      <point x="380" y="394"/>
      <point x="356" y="392"/>
      <point x="347" y="392" type="curve"/>
    </contour>
    <contour>
      <point x="199" y="398" type="curve"/>
      <point x="199" y="398"/>
      <point x="196" y="402"/>
      <point x="196" y="432" type="curve" smooth="yes"/>
      <point x="196" y="444"/>
      <point x="197" y="457"/>
      <point x="198" y="470" type="curve"/>
      <point x="221" y="476" type="line"/>
      <point x="221" y="416" type="line"/>
      <point x="214" y="407"/>
      <point x="206" y="400"/>
    </contour>
  </outline>
</glyph>
<glyph name="guillemotleft" format="1">
  <advance width="518"/>
  <unicode hex="00AB"/>
  <outline>
    <contour>
      <point x="259" y="52" type="line"/>
      <point x="288" y="78" type="line"/>
      <point x="197" y="243" type="line"/>
      <point x="288" y="408" type="line"/>
      <point x="259" y="435" type="line"/>
      <point x="95" y="298" type="line" smooth="yes"/>
      <point x="74" y="280"/>
      <point x="61" y="265"/>
      <point x="60" y="248" type="curve" smooth="yes"/>
      <point x="60" y="243" type="line" smooth="yes"/>
      <point x="60" y="220"/>
      <point x="71" y="207"/>
      <point x="84" y="196" type="curve" smooth="yes"/>
    </contour>
    <contour>
      <point x="439" y="52" type="line"/>
      <point x="468" y="78" type="line"/>
      <point x="377" y="243" type="line"/>
      <point x="468" y="408" type="line"/>
      <point x="439" y="435" type="line"/>
      <point x="275" y="298" type="line" smooth="yes"/>
      <point x="254" y="280"/>
      <point x="241" y="265"/>
      <point x="240" y="248" type="curve" smooth="yes"/>
      <point x="240" y="243" type="line" smooth="yes"/>
      <point x="240" y="220"/>
      <point x="251" y="207"/>
      <point x="264" y="196" type="curve" smooth="yes"/>
    </contour>
  </outline>
</glyph>
<glyph name="degree" format="1">
  <advance width="378"/>
  <unicode hex="00B0"/>
  <outline>
    <contour>
      <point x="50" y="448" type="curve" smooth="yes"/>
      <point x="50" y="363"/>
      <point x="103" y="310"/>
      <point x="189" y="310" type="curve" smooth="yes"/>
      <point x="271" y="310"/>
      <point x="328" y="367"/>
      <point x="328" y="448" type="curve" smooth="yes"/>
      <point x="328" y="534"/>
      <point x="275" y="586"/>
      <point x="189" y="586" type="curve" smooth="yes"/>
      <point x="107" y="586"/>
      <point x="50" y="529"/>
    </contour>
    <contour>
      <point x="118" y="449" type="curve" smooth="yes"/>
      <point x="118" y="499"/>
      <point x="147" y="528"/>
      <point x="189" y="528" type="curve" smooth="yes"/>
      <point x="235" y="528"/>
      <point x="260" y="502"/>
      <point x="260" y="449" type="curve" smooth="yes"/>
      <point x="260" y="398"/>
      <point x="232" y="368"/>
      <point x="189" y="368" type="curve" smooth="yes"/>
      <point x="144" y="368"/>
      <point x="118" y="395"/>
    </contour>
  </outline>
</glyph>
<glyph name="uni00B2" format="1">
  <advance width="336"/>
  <unicode hex="00B2"/>
  <outline>
    <contour>
      <point x="179" y="630" type="curve" smooth="yes"/>
      <point x="136" y="630"/>
      <point x="51" y="617"/>
      <point x="51" y="569" type="curve" smooth="yes"/>
      <point x="51" y="551" type="line"/>
      <point x="99" y="551" type="line"/>
      <point x="99" y="567" type="line" smooth="yes"/>
      <point x="99" y="586"/>
      <point x="127" y="589"/>
      <point x="150" y="589" type="curve" smooth="yes"/>
      <point x="150" y="589"/>
      <point x="155" y="560"/>
      <point x="155" y="543" type="curve" smooth="yes"/>
      <point x="155" y="486"/>
      <point x="148" y="512"/>
      <point x="99" y="477" type="curve" smooth="yes"/>
      <point x="62" y="451"/>
      <point x="53" y="408"/>
      <point x="50" y="357" type="curve"/>
      <point x="220" y="357" type="line" smooth="yes"/>
      <point x="262" y="357"/>
      <point x="286" y="369"/>
      <point x="286" y="407" type="curve" smooth="yes"/>
      <point x="286" y="433"/>
      <point x="281" y="478"/>
      <point x="281" y="478" type="curve"/>
      <point x="241" y="478" type="line"/>
      <point x="241" y="446" type="line"/>
      <point x="128" y="446" type="line"/>
      <point x="134" y="459"/>
      <point x="151" y="468"/>
      <point x="163" y="473" type="curve" smooth="yes"/>
      <point x="216" y="495"/>
      <point x="280" y="499"/>
      <point x="280" y="567" type="curve" smooth="yes"/>
      <point x="280" y="603"/>
      <point x="248" y="630"/>
    </contour>
  </outline>
</glyph>
<glyph name="uni00B3" format="1">
  <advance width="339"/>
  <unicode hex="00B3"/>
  <outline>
    <contour>
      <point x="108" y="510" type="line"/>
      <point x="108" y="469" type="line"/>
      <point x="154" y="469" type="line"/>
      <point x="154" y="469"/>
      <point x="159" y="455"/>
      <point x="159" y="432" type="curve" smooth="yes"/>
      <point x="159" y="415"/>
      <point x="154" y="386"/>
      <point x="154" y="386" type="curve"/>
      <point x="131" y="386"/>
      <point x="103" y="389"/>
      <point x="103" y="408" type="curve" smooth="yes"/>
      <point x="103" y="424" type="line"/>
      <point x="55" y="424" type="line"/>
      <point x="55" y="406" type="line" smooth="yes"/>
      <point x="55" y="358"/>
      <point x="120" y="345"/>
      <point x="173" y="345" type="curve" smooth="yes"/>
      <point x="249" y="345"/>
      <point x="289" y="376"/>
      <point x="289" y="416" type="curve" smooth="yes"/>
      <point x="289" y="452"/>
      <point x="271" y="475"/>
      <point x="245" y="488" type="curve"/>
      <point x="269" y="500"/>
      <point x="284" y="521"/>
      <point x="284" y="558" type="curve" smooth="yes"/>
      <point x="284" y="602"/>
      <point x="243" y="630"/>
      <point x="178" y="630" type="curve" smooth="yes"/>
      <point x="130" y="630"/>
      <point x="60" y="617"/>
      <point x="60" y="569" type="curve" smooth="yes"/>
      <point x="60" y="551" type="line"/>
      <point x="108" y="551" type="line"/>
      <point x="108" y="567" type="line" smooth="yes"/>
      <point x="108" y="586"/>
      <point x="136" y="589"/>
      <point x="159" y="589" type="curve" smooth="yes"/>
      <point x="159" y="589"/>
      <point x="164" y="560"/>
      <point x="164" y="543" type="curve" smooth="yes"/>
      <point x="164" y="526"/>
      <point x="162" y="515"/>
      <point x="160" y="510" type="curve"/>
    </contour>
  </outline>
</glyph>
<glyph name="acute" format="1">
  <advance width="520"/>
  <unicode hex="00B4"/>
  <outline>
    <contour>
      <point x="164" y="449" type="move" name="_top"/>
    </contour>
    <contour>
      <point x="139" y="514" type="line"/>
      <point x="164" y="486" type="line"/>
      <point x="361" y="595" type="line"/>
      <point x="375" y="607"/>
      <point x="382" y="622"/>
      <point x="382" y="638" type="curve" smooth="yes"/>
      <point x="382" y="670"/>
      <point x="350" y="703"/>
      <point x="321" y="703" type="curve" smooth="yes"/>
      <point x="308" y="703"/>
      <point x="296" y="699"/>
      <point x="284" y="689" type="curve"/>
    </contour>
  </outline>
</glyph>
<glyph name="uni00B5" format="1">
  <advance width="596"/>
  <unicode hex="00B5"/>
  <outline>
    <contour>
      <point x="31" y="381" type="line"/>
      <point x="84" y="381" type="line"/>
      <point x="84" y="-114" type="line"/>
      <point x="25" y="-114" type="line"/>
      <point x="25" y="-165" type="line"/>
      <point x="241" y="-165" type="line"/>
      <point x="241" y="-6" type="line"/>
      <point x="333" y="2"/>
      <point x="367" y="51"/>
      <point x="372" y="59" type="curve"/>
      <point x="384" y="29"/>
      <point x="416" y="-4"/>
      <point x="485" y="-4" type="curve" smooth="yes"/>
      <point x="512" y="-4"/>
      <point x="576" y="5"/>
      <point x="576" y="5" type="curve"/>
      <point x="576" y="53" type="line"/>
      <point x="576" y="53"/>
      <point x="535" y="50"/>
      <point x="523" y="50" type="curve"/>
      <point x="523" y="449" type="line"/>
      <point x="365" y="449" type="line"/>
      <point x="365" y="121" type="line"/>
      <point x="356" y="107"/>
      <point x="310" y="49"/>
      <point x="241" y="48" type="curve"/>
      <point x="241" y="460" type="line"/>
      <point x="90" y="431" type="line"/>
      <point x="31" y="431" type="line"/>
    </contour>
  </outline>
</glyph>
<glyph name="paragraph" format="1">
  <advance width="513"/>
  <unicode hex="00B6"/>
  <outline>
    <contour>
      <point x="337" y="-75" type="line"/>
      <point x="399" y="-75" type="line"/>
      <point x="399" y="557" type="line"/>
      <point x="488" y="557" type="line"/>
      <point x="488" y="615" type="line"/>
      <point x="353" y="615" type="line" smooth="yes"/>
      <point x="323" y="615"/>
      <point x="302" y="617"/>
      <point x="273" y="617" type="curve" smooth="yes"/>
      <point x="101" y="617"/>
      <point x="20" y="567"/>
      <point x="20" y="431" type="curve" smooth="yes"/>
      <point x="20" y="318"/>
      <point x="77" y="265"/>
      <point x="197" y="250" type="curve"/>
      <point x="197" y="-75" type="line"/>
      <point x="259" y="-75" type="line"/>
      <point x="259" y="557" type="line"/>
      <point x="337" y="557" type="line"/>
    </contour>
  </outline>
</glyph>
<glyph name="periodcentered" format="1">
  <advance width="326"/>
  <unicode hex="00B7"/>
  <outline>
    <contour>
      <point x="80" y="294" type="curve" smooth="yes"/>
      <point x="80" y="234"/>
      <point x="103" y="208"/>
      <point x="163" y="208" type="curve" smooth="yes"/>
      <point x="222" y="208"/>
      <point x="246" y="234"/>
      <point x="246" y="294" type="curve" smooth="yes"/>
      <point x="246" y="353"/>
      <point x="226" y="381"/>
      <point x="163" y="381" type="curve" smooth="yes"/>
      <point x="103" y="381"/>
      <point x="80" y="353"/>
    </contour>
  </outline>
</glyph>
<glyph name="cedilla" format="1">
  <advance width="520"/>
  <unicode hex="00B8"/>
  <outline>
    <contour>
      <point x="247" y="0" type="move" name="_bottom"/>
    </contour>
    <contour>
      <point x="216" y="10" type="line"/>
      <point x="216" y="-74" type="line"/>
      <point x="266" y="-74" type="line" smooth="yes"/>
      <point x="282" y="-74"/>
      <point x="294" y="-81"/>
      <point x="294" y="-95" type="curve" smooth="yes"/>
      <point x="294" y="-112"/>
      <point x="282" y="-116"/>
      <point x="268" y="-116" type="curve" smooth="yes"/>
      <point x="209" y="-116" type="line"/>
      <point x="209" y="-166" type="line"/>
      <point x="268" y="-166" type="line" smooth="yes"/>
      <point x="321" y="-166"/>
      <point x="350" y="-136"/>
      <point x="350" y="-94" type="curve" smooth="yes"/>
      <point x="350" y="-58"/>
      <point x="324" y="-34"/>
      <point x="285" y="-34" type="curve" smooth="yes"/>
      <point x="278" y="-34" type="line"/>
      <point x="278" y="10" type="line"/>
    </contour>
  </outline>
</glyph>
<glyph name="ordmasculine" format="1">
  <advance width="451"/>
  <unicode hex="00BA"/>
  <outline>
    <contour>
      <point x="191" y="487" type="curve" smooth="yes"/>
      <point x="191" y="546"/>
      <point x="200" y="590"/>
      <point x="200" y="590" type="curve"/>
      <point x="200" y="590"/>
      <point x="210" y="594"/>
      <point x="225" y="594" type="curve" smooth="yes"/>
      <point x="240" y="594"/>
      <point x="251" y="590"/>
      <point x="251" y="590" type="curve"/>
      <point x="251" y="590"/>
      <point x="259" y="546"/>
      <point x="259" y="487" type="curve" smooth="yes"/>
      <point x="259" y="429"/>
      <point x="251" y="385"/>
      <point x="251" y="385" type="curve"/>
      <point x="251" y="385"/>
      <point x="241" y="381"/>
      <point x="225" y="381" type="curve" smooth="yes"/>
      <point x="210" y="381"/>
      <point x="200" y="385"/>
      <point x="200" y="385" type="curve"/>
      <point x="200" y="385"/>
      <point x="191" y="429"/>
    </contour>
    <contour>
      <point x="60" y="487" type="curve" smooth="yes"/>
      <point x="60" y="383"/>
      <point x="103" y="345"/>
      <point x="225" y="345" type="curve" smooth="yes"/>
      <point x="348" y="345"/>
      <point x="391" y="383"/>
      <point x="391" y="487" type="curve" smooth="yes"/>
      <point x="391" y="592"/>
      <point x="348" y="630"/>
      <point x="225" y="630" type="curve" smooth="yes"/>
      <point x="103" y="630"/>
      <point x="60" y="592"/>
    </contour>
  </outline>
</glyph>
<glyph name="guillemotright" format="1">
  <advance width="518"/>
  <unicode hex="00BB"/>
  <outline>
    <contour>
      <point x="434" y="196" type="line"/>
      <point x="447" y="207"/>
      <point x="458" y="220"/>
      <point x="458" y="243" type="curve" smooth="yes"/>
      <point x="458" y="248" type="line" smooth="yes"/>
      <point x="457" y="265"/>
      <point x="444" y="280"/>
      <point x="423" y="298" type="curve" smooth="yes"/>
      <point x="259" y="435" type="line"/>
      <point x="230" y="408" type="line"/>
      <point x="321" y="243" type="line"/>
      <point x="230" y="78" type="line"/>
      <point x="259" y="52" type="line"/>
    </contour>
    <contour>
      <point x="254" y="196" type="line"/>
      <point x="267" y="207"/>
      <point x="278" y="220"/>
      <point x="278" y="243" type="curve" smooth="yes"/>
      <point x="278" y="248" type="line" smooth="yes"/>
      <point x="277" y="265"/>
      <point x="264" y="280"/>
      <point x="243" y="298" type="curve" smooth="yes"/>
      <point x="79" y="435" type="line"/>
      <point x="50" y="408" type="line"/>
      <point x="141" y="243" type="line"/>
      <point x="50" y="78" type="line"/>
      <point x="79" y="52" type="line"/>
    </contour>
  </outline>
</glyph>
<glyph name="questiondown" format="1">
  <advance width="394"/>
  <unicode hex="00BF"/>
  <outline>
    <contour>
      <point x="289" y="371" type="curve" smooth="yes"/>
      <point x="289" y="431"/>
      <point x="266" y="457"/>
      <point x="206" y="457" type="curve" smooth="yes"/>
      <point x="147" y="457"/>
      <point x="123" y="431"/>
      <point x="123" y="371" type="curve" smooth="yes"/>
      <point x="123" y="312"/>
      <point x="143" y="284"/>
      <point x="206" y="284" type="curve" smooth="yes"/>
      <point x="266" y="284"/>
      <point x="289" y="312"/>
    </contour>
    <contour>
      <point x="182" y="235" type="line"/>
      <point x="182" y="173" type="line"/>
      <point x="74" y="173"/>
      <point x="20" y="99"/>
      <point x="20" y="8" type="curve" smooth="yes"/>
      <point x="20" y="-83"/>
      <point x="61" y="-155"/>
      <point x="190" y="-155" type="curve" smooth="yes"/>
      <point x="261" y="-155"/>
      <point x="374" y="-144"/>
      <point x="374" y="-46" type="curve" smooth="yes"/>
      <point x="374" y="-19" type="line"/>
      <point x="314" y="-19" type="line"/>
      <point x="314" y="-45" type="line" smooth="yes"/>
      <point x="314" y="-89"/>
      <point x="268" y="-102"/>
      <point x="205" y="-102" type="curve" smooth="yes"/>
      <point x="205" y="-102"/>
      <point x="195" y="-53"/>
      <point x="195" y="14" type="curve" smooth="yes"/>
      <point x="195" y="100"/>
      <point x="235" y="139"/>
      <point x="235" y="139" type="curve"/>
      <point x="235" y="235" type="line"/>
    </contour>
  </outline>
</glyph>
<glyph name="Agrave" format="1">
  <advance width="628"/>
  <unicode hex="00C0"/>
  <outline>
    <contour>
      <point x="10" y="58" type="line"/>
      <point x="10" y="0" type="line"/>
      <point x="247" y="0" type="line"/>
      <point x="247" y="58" type="line"/>
      <point x="139" y="58" type="line"/>
      <point x="187" y="197" type="line"/>
      <point x="365" y="197" type="line"/>
      <point x="436" y="0" type="line"/>
      <point x="618" y="0" type="line"/>
      <point x="618" y="21" type="line"/>
      <point x="393" y="621" type="line"/>
      <point x="265" y="598" type="line"/>
      <point x="77" y="58" type="line"/>
    </contour>
    <contour>
      <point x="275" y="448" type="line"/>
      <point x="344" y="255" type="line"/>
      <point x="207" y="255" type="line"/>
    </contour>
    <contour>
      <point x="190" y="842" type="line"/>
      <point x="177" y="849"/>
      <point x="167" y="853"/>
      <point x="156" y="853" type="curve" smooth="yes"/>
      <point x="134" y="853"/>
      <point x="97" y="829"/>
      <point x="97" y="789" type="curve" smooth="yes"/>
      <point x="97" y="770"/>
      <point x="106" y="752"/>
      <point x="122" y="739" type="curve"/>
      <point x="331" y="653" type="line"/>
      <point x="353" y="682" type="line"/>
    </contour>
  </outline>
</glyph>
<glyph name="Aacute" format="1">
  <advance width="628"/>
  <unicode hex="00C1"/>
  <outline>
    <contour>
      <point x="10" y="58" type="line"/>
      <point x="10" y="0" type="line"/>
      <point x="247" y="0" type="line"/>
      <point x="247" y="58" type="line"/>
      <point x="139" y="58" type="line"/>
      <point x="187" y="197" type="line"/>
      <point x="365" y="197" type="line"/>
      <point x="436" y="0" type="line"/>
      <point x="618" y="0" type="line"/>
      <point x="618" y="21" type="line"/>
      <point x="393" y="621" type="line"/>
      <point x="265" y="598" type="line"/>
      <point x="77" y="58" type="line"/>
    </contour>
    <contour>
      <point x="275" y="448" type="line"/>
      <point x="344" y="255" type="line"/>
      <point x="207" y="255" type="line"/>
    </contour>
    <contour>
      <point x="309" y="682" type="line"/>
      <point x="331" y="653" type="line"/>
      <point x="540" y="739" type="line"/>
      <point x="556" y="752"/>
      <point x="565" y="770"/>
      <point x="565" y="789" type="curve" smooth="yes"/>
      <point x="565" y="829"/>
      <point x="527" y="853"/>
      <point x="506" y="853" type="curve" smooth="yes"/>
      <point x="495" y="853"/>
      <point x="485" y="849"/>
      <point x="472" y="842" type="curve"/>
    </contour>
  </outline>
</glyph>
<glyph name="Acircumflex" format="1">
  <advance width="628"/>
  <unicode hex="00C2"/>
  <outline>
    <contour>
      <point x="10" y="58" type="line"/>
      <point x="10" y="0" type="line"/>
      <point x="247" y="0" type="line"/>
      <point x="247" y="58" type="line"/>
      <point x="139" y="58" type="line"/>
      <point x="187" y="197" type="line"/>
      <point x="365" y="197" type="line"/>
      <point x="436" y="0" type="line"/>
      <point x="618" y="0" type="line"/>
      <point x="618" y="21" type="line"/>
      <point x="393" y="621" type="line"/>
      <point x="265" y="598" type="line"/>
      <point x="77" y="58" type="line"/>
    </contour>
    <contour>
      <point x="134" y="682" type="line"/>
      <point x="156" y="653" type="line"/>
      <point x="330" y="725" type="line"/>
      <point x="505" y="653" type="line"/>
      <point x="527" y="682" type="line"/>
      <point x="364" y="842" type="line"/>
      <point x="354" y="847"/>
      <point x="346" y="851"/>
      <point x="338" y="852" type="curve" smooth="yes"/>
      <point x="335" y="853"/>
      <point x="333" y="853"/>
      <point x="331" y="853" type="curve"/>
      <point x="330" y="853" type="line"/>
      <point x="327" y="853" type="line" smooth="yes"/>
      <point x="325" y="853"/>
      <point x="324" y="853"/>
      <point x="323" y="852" type="curve"/>
      <point x="315" y="851"/>
      <point x="306" y="847"/>
      <point x="297" y="842" type="curve"/>
    </contour>
    <contour>
      <point x="275" y="448" type="line"/>
      <point x="344" y="255" type="line"/>
      <point x="207" y="255" type="line"/>
    </contour>
  </outline>
</glyph>
<glyph name="Atilde" format="1">
  <advance width="628"/>
  <unicode hex="00C3"/>
  <outline>
    <contour>
      <point x="10" y="58" type="line"/>
      <point x="10" y="0" type="line"/>
      <point x="247" y="0" type="line"/>
      <point x="247" y="58" type="line"/>
      <point x="139" y="58" type="line"/>
      <point x="187" y="197" type="line"/>
      <point x="365" y="197" type="line"/>
      <point x="436" y="0" type="line"/>
      <point x="618" y="0" type="line"/>
      <point x="618" y="21" type="line"/>
      <point x="393" y="621" type="line"/>
      <point x="265" y="598" type="line"/>
      <point x="77" y="58" type="line"/>
    </contour>
    <contour>
      <point x="275" y="448" type="line"/>
      <point x="344" y="255" type="line"/>
      <point x="207" y="255" type="line"/>
    </contour>
    <contour>
      <point x="167" y="723" type="line"/>
      <point x="180" y="777"/>
      <point x="208" y="796"/>
      <point x="249" y="796" type="curve" smooth="yes"/>
      <point x="292" y="796"/>
      <point x="334" y="761"/>
      <point x="372" y="761" type="curve" smooth="yes"/>
      <point x="394" y="761"/>
      <point x="404" y="777"/>
      <point x="411" y="797" type="curve"/>
      <point x="460" y="776" type="line"/>
      <point x="447" y="722"/>
      <point x="419" y="703"/>
      <point x="379" y="703" type="curve" smooth="yes"/>
      <point x="334" y="703"/>
      <point x="293" y="738"/>
      <point x="255" y="738" type="curve" smooth="yes"/>
      <point x="233" y="738"/>
      <point x="223" y="722"/>
      <point x="216" y="702" type="curve"/>
    </contour>
  </outline>
</glyph>
<glyph name="Adieresis" format="1">
  <advance width="628"/>
  <unicode hex="00C4"/>
  <outline>
    <contour>
      <point x="10" y="58" type="line"/>
      <point x="10" y="0" type="line"/>
      <point x="247" y="0" type="line"/>
      <point x="247" y="58" type="line"/>
      <point x="139" y="58" type="line"/>
      <point x="187" y="197" type="line"/>
      <point x="365" y="197" type="line"/>
      <point x="436" y="0" type="line"/>
      <point x="618" y="0" type="line"/>
      <point x="618" y="21" type="line"/>
      <point x="393" y="621" type="line"/>
      <point x="265" y="598" type="line"/>
      <point x="77" y="58" type="line"/>
    </contour>
    <contour>
      <point x="275" y="448" type="line"/>
      <point x="344" y="255" type="line"/>
      <point x="207" y="255" type="line"/>
    </contour>
    <contour>
      <point x="140" y="763" type="curve" smooth="yes"/>
      <point x="140" y="712"/>
      <point x="160" y="689"/>
      <point x="211" y="689" type="curve" smooth="yes"/>
      <point x="261" y="689"/>
      <point x="282" y="712"/>
      <point x="282" y="763" type="curve" smooth="yes"/>
      <point x="282" y="813"/>
      <point x="265" y="838"/>
      <point x="211" y="838" type="curve" smooth="yes"/>
      <point x="160" y="838"/>
      <point x="140" y="813"/>
    </contour>
    <contour>
      <point x="345" y="763" type="curve" smooth="yes"/>
      <point x="345" y="712"/>
      <point x="365" y="689"/>
      <point x="416" y="689" type="curve" smooth="yes"/>
      <point x="466" y="689"/>
      <point x="487" y="712"/>
      <point x="487" y="763" type="curve" smooth="yes"/>
      <point x="487" y="813"/>
      <point x="470" y="838"/>
      <point x="416" y="838" type="curve" smooth="yes"/>
      <point x="365" y="838"/>
      <point x="345" y="813"/>
    </contour>
  </outline>
</glyph>
<glyph name="Aring" format="1">
  <advance width="628"/>
  <unicode hex="00C5"/>
  <outline>
    <contour>
      <point x="215" y="670" type="curve" smooth="yes"/>
      <point x="215" y="628"/>
      <point x="230" y="597"/>
      <point x="258" y="578" type="curve"/>
      <point x="77" y="58" type="line"/>
      <point x="10" y="58" type="line"/>
      <point x="10" y="0" type="line"/>
      <point x="247" y="0" type="line"/>
      <point x="247" y="58" type="line"/>
      <point x="139" y="58" type="line"/>
      <point x="187" y="197" type="line"/>
      <point x="365" y="197" type="line"/>
      <point x="436" y="0" type="line"/>
      <point x="618" y="0" type="line"/>
      <point x="618" y="21" type="line"/>
      <point x="405" y="589" type="line"/>
      <point x="425" y="608"/>
      <point x="437" y="636"/>
      <point x="437" y="670" type="curve" smooth="yes"/>
      <point x="437" y="739"/>
      <point x="395" y="780"/>
      <point x="326" y="780" type="curve" smooth="yes"/>
      <point x="260" y="780"/>
      <point x="215" y="735"/>
    </contour>
    <contour>
      <point x="275" y="448" type="line"/>
      <point x="344" y="255" type="line"/>
      <point x="207" y="255" type="line"/>
    </contour>
    <contour>
      <point x="275" y="671" type="curve" smooth="yes"/>
      <point x="275" y="707"/>
      <point x="295" y="728"/>
      <point x="326" y="728" type="curve" smooth="yes"/>
      <point x="359" y="728"/>
      <point x="377" y="709"/>
      <point x="377" y="671" type="curve" smooth="yes"/>
      <point x="377" y="634"/>
      <point x="357" y="612"/>
      <point x="326" y="612" type="curve" smooth="yes"/>
      <point x="294" y="612"/>
      <point x="275" y="632"/>
    </contour>
  </outline>
</glyph>
<glyph name="AE" format="1">
  <advance width="905"/>
  <unicode hex="00C6"/>
  <outline>
    <contour>
      <point x="313" y="58" type="line"/>
      <point x="313" y="0" type="line"/>
      <point x="855" y="0" type="line"/>
      <point x="855" y="205" type="line"/>
      <point x="722" y="205"/>
      <point x="685" y="105"/>
      <point x="675" y="58" type="curve"/>
      <point x="570" y="58" type="line"/>
      <point x="570" y="277" type="line"/>
      <point x="745" y="277" type="line"/>
      <point x="745" y="335" type="line"/>
      <point x="570" y="335" type="line"/>
      <point x="570" y="557" type="line"/>
      <point x="660" y="557" type="line"/>
      <point x="670" y="509"/>
      <point x="708" y="411"/>
      <point x="840" y="411" type="curve"/>
      <point x="840" y="615" type="line"/>
      <point x="244" y="615" type="line"/>
      <point x="244" y="557" type="line"/>
      <point x="334" y="557" type="line"/>
      <point x="72" y="58" type="line"/>
      <point x="0" y="58" type="line"/>
      <point x="0" y="0" type="line"/>
      <point x="237" y="0" type="line"/>
      <point x="237" y="58" type="line"/>
      <point x="142" y="58" type="line"/>
      <point x="230" y="227" type="line"/>
      <point x="402" y="227" type="line"/>
      <point x="402" y="58" type="line"/>
    </contour>
    <contour>
      <point x="261" y="285" type="line"/>
      <point x="402" y="555" type="line"/>
      <point x="402" y="285" type="line"/>
    </contour>
  </outline>
</glyph>
<glyph name="Ccedilla" format="1">
  <advance width="572"/>
  <unicode hex="00C7"/>
  <outline>
    <contour>
      <point x="516" y="615" type="line"/>
      <point x="516" y="615"/>
      <point x="435" y="630"/>
      <point x="344" y="630" type="curve" smooth="yes"/>
      <point x="136" y="630"/>
      <point x="45" y="540"/>
      <point x="45" y="308" type="curve" smooth="yes"/>
      <point x="45" y="88"/>
      <point x="126" y="-5"/>
      <point x="297" y="-14" type="curve"/>
      <point x="297" y="-74" type="line"/>
      <point x="347" y="-74" type="line" smooth="yes"/>
      <point x="363" y="-74"/>
      <point x="375" y="-81"/>
      <point x="375" y="-95" type="curve" smooth="yes"/>
      <point x="375" y="-112"/>
      <point x="363" y="-116"/>
      <point x="349" y="-116" type="curve" smooth="yes"/>
      <point x="290" y="-116" type="line"/>
      <point x="290" y="-166" type="line"/>
      <point x="349" y="-166" type="line" smooth="yes"/>
      <point x="402" y="-166"/>
      <point x="431" y="-136"/>
      <point x="431" y="-94" type="curve" smooth="yes"/>
      <point x="431" y="-58"/>
      <point x="405" y="-34"/>
      <point x="366" y="-34" type="curve" smooth="yes"/>
      <point x="359" y="-34" type="line"/>
      <point x="359" y="-13" type="line"/>
      <point x="456" y="-3"/>
      <point x="537" y="55"/>
      <point x="537" y="178" type="curve" smooth="yes"/>
      <point x="537" y="206" type="line"/>
      <point x="479" y="206" type="line"/>
      <point x="479" y="175" type="line" smooth="yes"/>
      <point x="479" y="76"/>
      <point x="415" y="37"/>
      <point x="328" y="37" type="curve" smooth="yes"/>
      <point x="281" y="37"/>
      <point x="261" y="44"/>
      <point x="261" y="44" type="curve"/>
      <point x="261" y="44"/>
      <point x="232" y="163"/>
      <point x="232" y="308" type="curve" smooth="yes"/>
      <point x="232" y="453"/>
      <point x="261" y="571"/>
      <point x="261" y="571" type="curve"/>
      <point x="261" y="571"/>
      <point x="287" y="579"/>
      <point x="333" y="580" type="curve"/>
      <point x="334" y="562"/>
      <point x="352" y="411"/>
      <point x="516" y="411" type="curve"/>
    </contour>
  </outline>
</glyph>
<glyph name="Egrave" format="1">
  <advance width="617"/>
  <unicode hex="00C8"/>
  <outline>
    <contour>
      <point x="25" y="615" type="line"/>
      <point x="25" y="557" type="line"/>
      <point x="114" y="557" type="line"/>
      <point x="114" y="58" type="line"/>
      <point x="25" y="58" type="line"/>
      <point x="25" y="0" type="line"/>
      <point x="567" y="0" type="line"/>
      <point x="567" y="205" type="line"/>
      <point x="434" y="205"/>
      <point x="397" y="105"/>
      <point x="387" y="58" type="curve"/>
      <point x="282" y="58" type="line"/>
      <point x="282" y="277" type="line"/>
      <point x="457" y="277" type="line"/>
      <point x="457" y="335" type="line"/>
      <point x="282" y="335" type="line"/>
      <point x="282" y="557" type="line"/>
      <point x="372" y="557" type="line"/>
      <point x="382" y="509"/>
      <point x="420" y="411"/>
      <point x="552" y="411" type="curve"/>
      <point x="552" y="615" type="line"/>
    </contour>
    <contour>
      <point x="175" y="842" type="line"/>
      <point x="162" y="849"/>
      <point x="152" y="853"/>
      <point x="141" y="853" type="curve" smooth="yes"/>
      <point x="119" y="853"/>
      <point x="82" y="829"/>
      <point x="82" y="789" type="curve" smooth="yes"/>
      <point x="82" y="770"/>
      <point x="91" y="752"/>
      <point x="107" y="739" type="curve"/>
      <point x="316" y="653" type="line"/>
      <point x="338" y="682" type="line"/>
    </contour>
  </outline>
</glyph>
<glyph name="Eacute" format="1">
  <advance width="617"/>
  <unicode hex="00C9"/>
  <outline>
    <contour>
      <point x="25" y="615" type="line"/>
      <point x="25" y="557" type="line"/>
      <point x="114" y="557" type="line"/>
      <point x="114" y="58" type="line"/>
      <point x="25" y="58" type="line"/>
      <point x="25" y="0" type="line"/>
      <point x="567" y="0" type="line"/>
      <point x="567" y="205" type="line"/>
      <point x="434" y="205"/>
      <point x="397" y="105"/>
      <point x="387" y="58" type="curve"/>
      <point x="282" y="58" type="line"/>
      <point x="282" y="277" type="line"/>
      <point x="457" y="277" type="line"/>
      <point x="457" y="335" type="line"/>
      <point x="282" y="335" type="line"/>
      <point x="282" y="557" type="line"/>
      <point x="372" y="557" type="line"/>
      <point x="382" y="509"/>
      <point x="420" y="411"/>
      <point x="552" y="411" type="curve"/>
      <point x="552" y="615" type="line"/>
    </contour>
    <contour>
      <point x="294" y="682" type="line"/>
      <point x="316" y="653" type="line"/>
      <point x="525" y="739" type="line"/>
      <point x="541" y="752"/>
      <point x="550" y="770"/>
      <point x="550" y="789" type="curve" smooth="yes"/>
      <point x="550" y="829"/>
      <point x="512" y="853"/>
      <point x="491" y="853" type="curve" smooth="yes"/>
      <point x="480" y="853"/>
      <point x="470" y="849"/>
      <point x="457" y="842" type="curve"/>
    </contour>
  </outline>
</glyph>
<glyph name="Ecircumflex" format="1">
  <advance width="617"/>
  <unicode hex="00CA"/>
  <outline>
    <contour>
      <point x="25" y="615" type="line"/>
      <point x="25" y="557" type="line"/>
      <point x="114" y="557" type="line"/>
      <point x="114" y="58" type="line"/>
      <point x="25" y="58" type="line"/>
      <point x="25" y="0" type="line"/>
      <point x="567" y="0" type="line"/>
      <point x="567" y="205" type="line"/>
      <point x="434" y="205"/>
      <point x="397" y="105"/>
      <point x="387" y="58" type="curve"/>
      <point x="282" y="58" type="line"/>
      <point x="282" y="277" type="line"/>
      <point x="457" y="277" type="line"/>
      <point x="457" y="335" type="line"/>
      <point x="282" y="335" type="line"/>
      <point x="282" y="557" type="line"/>
      <point x="372" y="557" type="line"/>
      <point x="382" y="509"/>
      <point x="420" y="411"/>
      <point x="552" y="411" type="curve"/>
      <point x="552" y="615" type="line"/>
    </contour>
    <contour>
      <point x="119" y="682" type="line"/>
      <point x="141" y="653" type="line"/>
      <point x="315" y="725" type="line"/>
      <point x="490" y="653" type="line"/>
      <point x="512" y="682" type="line"/>
      <point x="349" y="842" type="line"/>
      <point x="339" y="847"/>
      <point x="331" y="851"/>
      <point x="323" y="852" type="curve" smooth="yes"/>
      <point x="320" y="853"/>
      <point x="318" y="853"/>
      <point x="316" y="853" type="curve" smooth="yes"/>
      <point x="312" y="853" type="line" smooth="yes"/>
      <point x="310" y="853"/>
      <point x="309" y="853"/>
      <point x="308" y="852" type="curve"/>
      <point x="300" y="851"/>
      <point x="291" y="847"/>
      <point x="282" y="842" type="curve"/>
    </contour>
  </outline>
</glyph>
<glyph name="Edieresis" format="1">
  <advance width="617"/>
  <unicode hex="00CB"/>
  <outline>
    <contour>
      <point x="25" y="615" type="line"/>
      <point x="25" y="557" type="line"/>
      <point x="114" y="557" type="line"/>
      <point x="114" y="58" type="line"/>
      <point x="25" y="58" type="line"/>
      <point x="25" y="0" type="line"/>
      <point x="567" y="0" type="line"/>
      <point x="567" y="205" type="line"/>
      <point x="434" y="205"/>
      <point x="397" y="105"/>
      <point x="387" y="58" type="curve"/>
      <point x="282" y="58" type="line"/>
      <point x="282" y="277" type="line"/>
      <point x="457" y="277" type="line"/>
      <point x="457" y="335" type="line"/>
      <point x="282" y="335" type="line"/>
      <point x="282" y="557" type="line"/>
      <point x="372" y="557" type="line"/>
      <point x="382" y="509"/>
      <point x="420" y="411"/>
      <point x="552" y="411" type="curve"/>
      <point x="552" y="615" type="line"/>
    </contour>
    <contour>
      <point x="135" y="763" type="curve" smooth="yes"/>
      <point x="135" y="712"/>
      <point x="155" y="689"/>
      <point x="206" y="689" type="curve" smooth="yes"/>
      <point x="256" y="689"/>
      <point x="277" y="712"/>
      <point x="277" y="763" type="curve" smooth="yes"/>
      <point x="277" y="813"/>
      <point x="260" y="838"/>
      <point x="206" y="838" type="curve" smooth="yes"/>
      <point x="155" y="838"/>
      <point x="135" y="813"/>
    </contour>
    <contour>
      <point x="340" y="763" type="curve" smooth="yes"/>
      <point x="340" y="712"/>
      <point x="360" y="689"/>
      <point x="411" y="689" type="curve" smooth="yes"/>
      <point x="461" y="689"/>
      <point x="482" y="712"/>
      <point x="482" y="763" type="curve" smooth="yes"/>
      <point x="482" y="813"/>
      <point x="465" y="838"/>
      <point x="411" y="838" type="curve" smooth="yes"/>
      <point x="360" y="838"/>
      <point x="340" y="813"/>
    </contour>
  </outline>
</glyph>
<glyph name="Igrave" format="1">
  <advance width="396"/>
  <unicode hex="00CC"/>
  <outline>
    <contour>
      <point x="25" y="615" type="line"/>
      <point x="25" y="557" type="line"/>
      <point x="114" y="557" type="line"/>
      <point x="114" y="58" type="line"/>
      <point x="25" y="58" type="line"/>
      <point x="25" y="0" type="line"/>
      <point x="371" y="0" type="line"/>
      <point x="371" y="58" type="line"/>
      <point x="282" y="58" type="line"/>
      <point x="282" y="557" type="line"/>
      <point x="371" y="557" type="line"/>
      <point x="371" y="615" type="line"/>
    </contour>
    <contour>
      <point x="58" y="842" type="line"/>
      <point x="45" y="849"/>
      <point x="35" y="853"/>
      <point x="24" y="853" type="curve" smooth="yes"/>
      <point x="2" y="853"/>
      <point x="-35" y="829"/>
      <point x="-35" y="789" type="curve" smooth="yes"/>
      <point x="-35" y="770"/>
      <point x="-26" y="752"/>
      <point x="-10" y="739" type="curve"/>
      <point x="199" y="653" type="line"/>
      <point x="221" y="682" type="line"/>
    </contour>
  </outline>
</glyph>
<glyph name="Iacute" format="1">
  <advance width="396"/>
  <unicode hex="00CD"/>
  <outline>
    <contour>
      <point x="25" y="615" type="line"/>
      <point x="25" y="557" type="line"/>
      <point x="114" y="557" type="line"/>
      <point x="114" y="58" type="line"/>
      <point x="25" y="58" type="line"/>
      <point x="25" y="0" type="line"/>
      <point x="371" y="0" type="line"/>
      <point x="371" y="58" type="line"/>
      <point x="282" y="58" type="line"/>
      <point x="282" y="557" type="line"/>
      <point x="371" y="557" type="line"/>
      <point x="371" y="615" type="line"/>
    </contour>
    <contour>
      <point x="177" y="682" type="line"/>
      <point x="199" y="653" type="line"/>
      <point x="408" y="739" type="line"/>
      <point x="424" y="752"/>
      <point x="433" y="770"/>
      <point x="433" y="789" type="curve" smooth="yes"/>
      <point x="433" y="829"/>
      <point x="395" y="853"/>
      <point x="374" y="853" type="curve" smooth="yes"/>
      <point x="363" y="853"/>
      <point x="353" y="849"/>
      <point x="340" y="842" type="curve"/>
    </contour>
  </outline>
</glyph>
<glyph name="Icircumflex" format="1">
  <advance width="396"/>
  <unicode hex="00CE"/>
  <outline>
    <contour>
      <point x="25" y="615" type="line"/>
      <point x="25" y="557" type="line"/>
      <point x="114" y="557" type="line"/>
      <point x="114" y="58" type="line"/>
      <point x="25" y="58" type="line"/>
      <point x="25" y="0" type="line"/>
      <point x="371" y="0" type="line"/>
      <point x="371" y="58" type="line"/>
      <point x="282" y="58" type="line"/>
      <point x="282" y="557" type="line"/>
      <point x="371" y="557" type="line"/>
      <point x="371" y="615" type="line"/>
    </contour>
    <contour>
      <point x="2" y="682" type="line"/>
      <point x="24" y="653" type="line"/>
      <point x="198" y="725" type="line"/>
      <point x="373" y="653" type="line"/>
      <point x="395" y="682" type="line"/>
      <point x="232" y="842" type="line"/>
      <point x="222" y="847"/>
      <point x="214" y="851"/>
      <point x="206" y="852" type="curve"/>
      <point x="204" y="853"/>
      <point x="203" y="853"/>
      <point x="202" y="853" type="curve"/>
      <point x="198" y="853" type="line" smooth="yes"/>
      <point x="196" y="853"/>
      <point x="193" y="853"/>
      <point x="191" y="852" type="curve"/>
      <point x="183" y="851"/>
      <point x="174" y="847"/>
      <point x="165" y="842" type="curve"/>
    </contour>
  </outline>
</glyph>
<glyph name="Eth" format="1">
  <advance width="710"/>
  <unicode hex="00D0"/>
  <outline>
    <contour>
      <point x="25" y="615" type="line"/>
      <point x="25" y="557" type="line"/>
      <point x="114" y="557" type="line"/>
      <point x="114" y="388" type="line"/>
      <point x="50" y="388" type="line"/>
      <point x="50" y="330" type="line"/>
      <point x="114" y="330" type="line"/>
      <point x="114" y="58" type="line"/>
      <point x="25" y="58" type="line"/>
      <point x="25" y="0" type="line"/>
      <point x="151" y="0" type="line" smooth="yes"/>
      <point x="195" y="0"/>
      <point x="291" y="-4"/>
      <point x="365" y="-4" type="curve" smooth="yes"/>
      <point x="574" y="-4"/>
      <point x="665" y="75"/>
      <point x="665" y="308" type="curve" smooth="yes"/>
      <point x="665" y="540"/>
      <point x="574" y="620"/>
      <point x="365" y="620" type="curve" smooth="yes"/>
      <point x="306" y="620"/>
      <point x="197" y="615"/>
      <point x="151" y="615" type="curve" smooth="yes"/>
    </contour>
    <contour>
      <point x="365" y="570" type="line" smooth="yes"/>
      <point x="419" y="570"/>
      <point x="449" y="566"/>
      <point x="449" y="566" type="curve"/>
      <point x="449" y="566"/>
      <point x="478" y="456"/>
      <point x="478" y="308" type="curve" smooth="yes"/>
      <point x="478" y="166"/>
      <point x="449" y="49"/>
      <point x="449" y="49" type="curve"/>
      <point x="449" y="49"/>
      <point x="420" y="46"/>
      <point x="365" y="46" type="curve" smooth="yes"/>
      <point x="340" y="46"/>
      <point x="311" y="47"/>
      <point x="282" y="49" type="curve"/>
      <point x="282" y="330" type="line"/>
      <point x="342" y="330" type="line"/>
      <point x="342" y="388" type="line"/>
      <point x="282" y="388" type="line"/>
      <point x="282" y="570" type="line"/>
    </contour>
  </outline>
</glyph>
<glyph name="Ntilde" format="1">
  <advance width="676"/>
  <unicode hex="00D1"/>
  <outline>
    <contour>
      <point x="25" y="615" type="line"/>
      <point x="25" y="557" type="line"/>
      <point x="114" y="557" type="line"/>
      <point x="114" y="58" type="line"/>
      <point x="25" y="58" type="line"/>
      <point x="25" y="0" type="line"/>
      <point x="266" y="0" type="line"/>
      <point x="266" y="58" type="line"/>
      <point x="177" y="58" type="line"/>
      <point x="177" y="378" type="line"/>
      <point x="536" y="0" type="line"/>
      <point x="567" y="0" type="line"/>
      <point x="567" y="557" type="line"/>
      <point x="656" y="557" type="line"/>
      <point x="656" y="615" type="line"/>
      <point x="415" y="615" type="line"/>
      <point x="415" y="557" type="line"/>
      <point x="504" y="557" type="line"/>
      <point x="504" y="285" type="line"/>
      <point x="178" y="615" type="line"/>
    </contour>
    <contour>
      <point x="184" y="723" type="line"/>
      <point x="197" y="777"/>
      <point x="225" y="796"/>
      <point x="266" y="796" type="curve" smooth="yes"/>
      <point x="309" y="796"/>
      <point x="351" y="761"/>
      <point x="389" y="761" type="curve" smooth="yes"/>
      <point x="411" y="761"/>
      <point x="421" y="777"/>
      <point x="428" y="797" type="curve"/>
      <point x="477" y="776" type="line"/>
      <point x="464" y="722"/>
      <point x="436" y="703"/>
      <point x="396" y="703" type="curve" smooth="yes"/>
      <point x="351" y="703"/>
      <point x="310" y="738"/>
      <point x="272" y="738" type="curve" smooth="yes"/>
      <point x="250" y="738"/>
      <point x="240" y="722"/>
      <point x="233" y="702" type="curve"/>
    </contour>
  </outline>
</glyph>
<glyph name="Ograve" format="1">
  <advance width="690"/>
  <unicode hex="00D2"/>
  <outline>
    <contour>
      <point x="45" y="308" type="curve" smooth="yes"/>
      <point x="45" y="75"/>
      <point x="136" y="-15"/>
      <point x="344" y="-15" type="curve" smooth="yes"/>
      <point x="553" y="-15"/>
      <point x="644" y="75"/>
      <point x="644" y="308" type="curve" smooth="yes"/>
      <point x="644" y="450"/>
      <point x="609" y="539"/>
      <point x="534" y="587" type="curve"/>
      <point x="607" y="597"/>
      <point x="645" y="626"/>
      <point x="645" y="701" type="curve"/>
      <point x="591" y="701" type="line"/>
      <point x="591" y="635"/>
      <point x="537" y="629"/>
      <point x="441" y="629" type="curve" smooth="yes"/>
      <point x="381" y="629" type="line" smooth="yes"/>
      <point x="369" y="629"/>
      <point x="357" y="630"/>
      <point x="344" y="630" type="curve" smooth="yes"/>
      <point x="136" y="630"/>
      <point x="45" y="540"/>
    </contour>
    <contour>
      <point x="232" y="308" type="curve" smooth="yes"/>
      <point x="232" y="449"/>
      <point x="261" y="571"/>
      <point x="261" y="571" type="curve"/>
      <point x="261" y="571"/>
      <point x="291" y="580"/>
      <point x="344" y="580" type="curve" smooth="yes"/>
      <point x="398" y="580"/>
      <point x="428" y="571"/>
      <point x="428" y="571" type="curve"/>
      <point x="428" y="571"/>
      <point x="457" y="456"/>
      <point x="457" y="308" type="curve" smooth="yes"/>
      <point x="457" y="166"/>
      <point x="428" y="44"/>
      <point x="428" y="44" type="curve"/>
      <point x="428" y="44"/>
      <point x="399" y="35"/>
      <point x="344" y="35" type="curve" smooth="yes"/>
      <point x="291" y="35"/>
      <point x="261" y="44"/>
      <point x="261" y="44" type="curve"/>
      <point x="261" y="44"/>
      <point x="232" y="159"/>
    </contour>
    <contour>
      <point x="203" y="842" type="line"/>
      <point x="190" y="849"/>
      <point x="180" y="853"/>
      <point x="169" y="853" type="curve" smooth="yes"/>
      <point x="147" y="853"/>
      <point x="110" y="829"/>
      <point x="110" y="789" type="curve" smooth="yes"/>
      <point x="110" y="770"/>
      <point x="119" y="752"/>
      <point x="135" y="739" type="curve"/>
      <point x="344" y="653" type="line"/>
      <point x="366" y="682" type="line"/>
    </contour>
  </outline>
</glyph>
<glyph name="Oacute" format="1">
  <advance width="690"/>
  <unicode hex="00D3"/>
  <outline>
    <contour>
      <point x="45" y="308" type="curve" smooth="yes"/>
      <point x="45" y="75"/>
      <point x="136" y="-15"/>
      <point x="344" y="-15" type="curve" smooth="yes"/>
      <point x="553" y="-15"/>
      <point x="644" y="75"/>
      <point x="644" y="308" type="curve" smooth="yes"/>
      <point x="644" y="450"/>
      <point x="609" y="539"/>
      <point x="534" y="587" type="curve"/>
      <point x="607" y="597"/>
      <point x="645" y="626"/>
      <point x="645" y="701" type="curve"/>
      <point x="591" y="701" type="line"/>
      <point x="591" y="635"/>
      <point x="537" y="629"/>
      <point x="441" y="629" type="curve" smooth="yes"/>
      <point x="381" y="629" type="line" smooth="yes"/>
      <point x="369" y="629"/>
      <point x="357" y="630"/>
      <point x="344" y="630" type="curve" smooth="yes"/>
      <point x="136" y="630"/>
      <point x="45" y="540"/>
    </contour>
    <contour>
      <point x="232" y="308" type="curve" smooth="yes"/>
      <point x="232" y="449"/>
      <point x="261" y="571"/>
      <point x="261" y="571" type="curve"/>
      <point x="261" y="571"/>
      <point x="291" y="580"/>
      <point x="344" y="580" type="curve" smooth="yes"/>
      <point x="398" y="580"/>
      <point x="428" y="571"/>
      <point x="428" y="571" type="curve"/>
      <point x="428" y="571"/>
      <point x="457" y="456"/>
      <point x="457" y="308" type="curve" smooth="yes"/>
      <point x="457" y="166"/>
      <point x="428" y="44"/>
      <point x="428" y="44" type="curve"/>
      <point x="428" y="44"/>
      <point x="399" y="35"/>
      <point x="344" y="35" type="curve" smooth="yes"/>
      <point x="291" y="35"/>
      <point x="261" y="44"/>
      <point x="261" y="44" type="curve"/>
      <point x="261" y="44"/>
      <point x="232" y="159"/>
    </contour>
    <contour>
      <point x="322" y="682" type="line"/>
      <point x="344" y="653" type="line"/>
      <point x="553" y="739" type="line"/>
      <point x="569" y="752"/>
      <point x="578" y="770"/>
      <point x="578" y="789" type="curve" smooth="yes"/>
      <point x="578" y="829"/>
      <point x="540" y="853"/>
      <point x="519" y="853" type="curve" smooth="yes"/>
      <point x="508" y="853"/>
      <point x="498" y="849"/>
      <point x="485" y="842" type="curve"/>
    </contour>
  </outline>
</glyph>
<glyph name="Ocircumflex" format="1">
  <advance width="690"/>
  <unicode hex="00D4"/>
  <outline>
    <contour>
      <point x="45" y="308" type="curve" smooth="yes"/>
      <point x="45" y="75"/>
      <point x="136" y="-15"/>
      <point x="344" y="-15" type="curve" smooth="yes"/>
      <point x="553" y="-15"/>
      <point x="644" y="75"/>
      <point x="644" y="308" type="curve" smooth="yes"/>
      <point x="644" y="460"/>
      <point x="604" y="551"/>
      <point x="518" y="596" type="curve"/>
      <point x="540" y="607"/>
      <point x="557" y="626"/>
      <point x="557" y="653" type="curve" smooth="yes"/>
      <point x="557" y="672"/>
      <point x="550" y="689"/>
      <point x="532" y="707" type="curve" smooth="yes"/>
      <point x="389" y="848" type="line" smooth="yes"/>
      <point x="374" y="863"/>
      <point x="360" y="869"/>
      <point x="345" y="869" type="curve" smooth="yes"/>
      <point x="328" y="869"/>
      <point x="315" y="864"/>
      <point x="301" y="846" type="curve" smooth="yes"/>
      <point x="163" y="680" type="line"/>
      <point x="188" y="652" type="line"/>
      <point x="346" y="739" type="line"/>
      <point x="495" y="663" type="line"/>
      <point x="495" y="630"/>
      <point x="446" y="629"/>
      <point x="381" y="629" type="curve" smooth="yes"/>
      <point x="369" y="629"/>
      <point x="357" y="630"/>
      <point x="344" y="630" type="curve" smooth="yes"/>
      <point x="136" y="630"/>
      <point x="45" y="540"/>
    </contour>
    <contour>
      <point x="232" y="308" type="curve" smooth="yes"/>
      <point x="232" y="449"/>
      <point x="261" y="571"/>
      <point x="261" y="571" type="curve"/>
      <point x="261" y="571"/>
      <point x="291" y="580"/>
      <point x="344" y="580" type="curve" smooth="yes"/>
      <point x="398" y="580"/>
      <point x="428" y="571"/>
      <point x="428" y="571" type="curve"/>
      <point x="428" y="571"/>
      <point x="457" y="456"/>
      <point x="457" y="308" type="curve" smooth="yes"/>
      <point x="457" y="166"/>
      <point x="428" y="44"/>
      <point x="428" y="44" type="curve"/>
      <point x="428" y="44"/>
      <point x="399" y="35"/>
      <point x="344" y="35" type="curve" smooth="yes"/>
      <point x="291" y="35"/>
      <point x="261" y="44"/>
      <point x="261" y="44" type="curve"/>
      <point x="261" y="44"/>
      <point x="232" y="159"/>
    </contour>
  </outline>
</glyph>
<glyph name="Otilde" format="1">
  <advance width="690"/>
  <unicode hex="00D5"/>
  <outline>
    <contour>
      <point x="45" y="308" type="curve" smooth="yes"/>
      <point x="45" y="75"/>
      <point x="136" y="-15"/>
      <point x="344" y="-15" type="curve" smooth="yes"/>
      <point x="553" y="-15"/>
      <point x="644" y="75"/>
      <point x="644" y="308" type="curve" smooth="yes"/>
      <point x="644" y="450"/>
      <point x="609" y="539"/>
      <point x="534" y="587" type="curve"/>
      <point x="607" y="597"/>
      <point x="645" y="626"/>
      <point x="645" y="701" type="curve"/>
      <point x="591" y="701" type="line"/>
      <point x="591" y="635"/>
      <point x="537" y="629"/>
      <point x="441" y="629" type="curve" smooth="yes"/>
      <point x="381" y="629" type="line" smooth="yes"/>
      <point x="369" y="629"/>
      <point x="357" y="630"/>
      <point x="344" y="630" type="curve" smooth="yes"/>
      <point x="136" y="630"/>
      <point x="45" y="540"/>
    </contour>
    <contour>
      <point x="232" y="308" type="curve" smooth="yes"/>
      <point x="232" y="449"/>
      <point x="261" y="571"/>
      <point x="261" y="571" type="curve"/>
      <point x="261" y="571"/>
      <point x="291" y="580"/>
      <point x="344" y="580" type="curve" smooth="yes"/>
      <point x="398" y="580"/>
      <point x="428" y="571"/>
      <point x="428" y="571" type="curve"/>
      <point x="428" y="571"/>
      <point x="457" y="456"/>
      <point x="457" y="308" type="curve" smooth="yes"/>
      <point x="457" y="166"/>
      <point x="428" y="44"/>
      <point x="428" y="44" type="curve"/>
      <point x="428" y="44"/>
      <point x="399" y="35"/>
      <point x="344" y="35" type="curve" smooth="yes"/>
      <point x="291" y="35"/>
      <point x="261" y="44"/>
      <point x="261" y="44" type="curve"/>
      <point x="261" y="44"/>
      <point x="232" y="159"/>
    </contour>
    <contour>
      <point x="198" y="723" type="line"/>
      <point x="211" y="777"/>
      <point x="239" y="796"/>
      <point x="280" y="796" type="curve" smooth="yes"/>
      <point x="323" y="796"/>
      <point x="365" y="761"/>
      <point x="403" y="761" type="curve" smooth="yes"/>
      <point x="425" y="761"/>
      <point x="435" y="777"/>
      <point x="442" y="797" type="curve"/>
      <point x="491" y="776" type="line"/>
      <point x="478" y="722"/>
      <point x="450" y="703"/>
      <point x="410" y="703" type="curve" smooth="yes"/>
      <point x="365" y="703"/>
      <point x="324" y="738"/>
      <point x="286" y="738" type="curve" smooth="yes"/>
      <point x="264" y="738"/>
      <point x="254" y="722"/>
      <point x="247" y="702" type="curve"/>
    </contour>
  </outline>
</glyph>
<glyph name="Odieresis" format="1">
  <advance width="690"/>
  <unicode hex="00D6"/>
  <outline>
    <contour>
      <point x="45" y="308" type="curve" smooth="yes"/>
      <point x="45" y="75"/>
      <point x="136" y="-15"/>
      <point x="344" y="-15" type="curve" smooth="yes"/>
      <point x="553" y="-15"/>
      <point x="644" y="75"/>
      <point x="644" y="308" type="curve" smooth="yes"/>
      <point x="644" y="450"/>
      <point x="609" y="539"/>
      <point x="534" y="587" type="curve"/>
      <point x="607" y="597"/>
      <point x="645" y="626"/>
      <point x="645" y="701" type="curve"/>
      <point x="591" y="701" type="line"/>
      <point x="591" y="635"/>
      <point x="537" y="629"/>
      <point x="441" y="629" type="curve" smooth="yes"/>
      <point x="381" y="629" type="line" smooth="yes"/>
      <point x="369" y="629"/>
      <point x="357" y="630"/>
      <point x="344" y="630" type="curve" smooth="yes"/>
      <point x="136" y="630"/>
      <point x="45" y="540"/>
    </contour>
    <contour>
      <point x="232" y="308" type="curve" smooth="yes"/>
      <point x="232" y="449"/>
      <point x="261" y="571"/>
      <point x="261" y="571" type="curve"/>
      <point x="261" y="571"/>
      <point x="291" y="580"/>
      <point x="344" y="580" type="curve" smooth="yes"/>
      <point x="398" y="580"/>
      <point x="428" y="571"/>
      <point x="428" y="571" type="curve"/>
      <point x="428" y="571"/>
      <point x="457" y="456"/>
      <point x="457" y="308" type="curve" smooth="yes"/>
      <point x="457" y="166"/>
      <point x="428" y="44"/>
      <point x="428" y="44" type="curve"/>
      <point x="428" y="44"/>
      <point x="399" y="35"/>
      <point x="344" y="35" type="curve" smooth="yes"/>
      <point x="291" y="35"/>
      <point x="261" y="44"/>
      <point x="261" y="44" type="curve"/>
      <point x="261" y="44"/>
      <point x="232" y="159"/>
    </contour>
    <contour>
      <point x="171" y="763" type="curve" smooth="yes"/>
      <point x="171" y="712"/>
      <point x="191" y="689"/>
      <point x="242" y="689" type="curve" smooth="yes"/>
      <point x="292" y="689"/>
      <point x="313" y="712"/>
      <point x="313" y="763" type="curve" smooth="yes"/>
      <point x="313" y="813"/>
      <point x="296" y="838"/>
      <point x="242" y="838" type="curve" smooth="yes"/>
      <point x="191" y="838"/>
      <point x="171" y="813"/>
    </contour>
    <contour>
      <point x="376" y="763" type="curve" smooth="yes"/>
      <point x="376" y="712"/>
      <point x="396" y="689"/>
      <point x="447" y="689" type="curve" smooth="yes"/>
      <point x="497" y="689"/>
      <point x="518" y="712"/>
      <point x="518" y="763" type="curve" smooth="yes"/>
      <point x="518" y="813"/>
      <point x="501" y="838"/>
      <point x="447" y="838" type="curve" smooth="yes"/>
      <point x="396" y="838"/>
      <point x="376" y="813"/>
    </contour>
  </outline>
</glyph>
<glyph name="Oslash" format="1">
  <advance width="689"/>
  <unicode hex="00D8"/>
  <outline>
    <contour>
      <point x="531" y="651" type="line"/>
      <point x="463" y="651" type="line"/>
      <point x="449" y="620" type="line"/>
      <point x="418" y="626"/>
      <point x="383" y="630"/>
      <point x="344" y="630" type="curve" smooth="yes"/>
      <point x="136" y="630"/>
      <point x="45" y="540"/>
      <point x="45" y="308" type="curve" smooth="yes"/>
      <point x="45" y="150"/>
      <point x="87" y="57"/>
      <point x="179" y="14" type="curve"/>
      <point x="157" y="-35" type="line"/>
      <point x="225" y="-35" type="line"/>
      <point x="238" y="-5" type="line"/>
      <point x="269" y="-12"/>
      <point x="304" y="-15"/>
      <point x="344" y="-15" type="curve" smooth="yes"/>
      <point x="553" y="-15"/>
      <point x="644" y="75"/>
      <point x="644" y="308" type="curve" smooth="yes"/>
      <point x="644" y="466"/>
      <point x="602" y="558"/>
      <point x="508" y="601" type="curve"/>
    </contour>
    <contour>
      <point x="428" y="44" type="curve"/>
      <point x="428" y="44"/>
      <point x="399" y="35"/>
      <point x="344" y="35" type="curve" smooth="yes"/>
      <point x="313" y="35"/>
      <point x="282" y="40"/>
      <point x="260" y="44" type="curve"/>
      <point x="457" y="485" type="line"/>
      <point x="457" y="308" type="line" smooth="yes"/>
      <point x="457" y="166"/>
      <point x="428" y="44"/>
    </contour>
    <contour>
      <point x="232" y="308" type="line" smooth="yes"/>
      <point x="232" y="449"/>
      <point x="261" y="571"/>
      <point x="261" y="571" type="curve"/>
      <point x="261" y="571"/>
      <point x="291" y="580"/>
      <point x="344" y="580" type="curve" smooth="yes"/>
      <point x="374" y="580"/>
      <point x="405" y="575"/>
      <point x="427" y="571" type="curve"/>
      <point x="232" y="133" type="line"/>
    </contour>
  </outline>
</glyph>
<glyph name="Ugrave" format="1">
  <advance width="666"/>
  <unicode hex="00D9"/>
  <outline>
    <contour>
      <point x="109" y="130" type="line" smooth="yes"/>
      <point x="109" y="13"/>
      <point x="202" y="-15"/>
      <point x="344" y="-15" type="curve" smooth="yes"/>
      <point x="458" y="-15"/>
      <point x="562" y="14"/>
      <point x="562" y="130" type="curve" smooth="yes"/>
      <point x="562" y="557" type="line"/>
      <point x="661" y="557" type="line"/>
      <point x="661" y="615" type="line"/>
      <point x="395" y="615" type="line"/>
      <point x="395" y="557" type="line"/>
      <point x="499" y="557" type="line"/>
      <point x="499" y="130" type="line" smooth="yes"/>
      <point x="499" y="63"/>
      <point x="449" y="37"/>
      <point x="371" y="37" type="curve" smooth="yes"/>
      <point x="303" y="37"/>
      <point x="291" y="42"/>
      <point x="291" y="42" type="curve"/>
      <point x="291" y="42"/>
      <point x="277" y="95"/>
      <point x="277" y="140" type="curve" smooth="yes"/>
      <point x="277" y="615" type="line"/>
      <point x="20" y="615" type="line"/>
      <point x="20" y="557" type="line"/>
      <point x="109" y="557" type="line"/>
    </contour>
    <contour>
      <point x="228" y="842" type="line"/>
      <point x="215" y="849"/>
      <point x="205" y="853"/>
      <point x="194" y="853" type="curve" smooth="yes"/>
      <point x="172" y="853"/>
      <point x="135" y="829"/>
      <point x="135" y="789" type="curve" smooth="yes"/>
      <point x="135" y="770"/>
      <point x="144" y="752"/>
      <point x="160" y="739" type="curve"/>
      <point x="369" y="653" type="line"/>
      <point x="391" y="682" type="line"/>
    </contour>
  </outline>
</glyph>
<glyph name="Ucircumflex" format="1">
  <advance width="666"/>
  <unicode hex="00DB"/>
  <outline>
    <contour>
      <point x="109" y="130" type="line" smooth="yes"/>
      <point x="109" y="13"/>
      <point x="202" y="-15"/>
      <point x="344" y="-15" type="curve" smooth="yes"/>
      <point x="458" y="-15"/>
      <point x="562" y="14"/>
      <point x="562" y="130" type="curve" smooth="yes"/>
      <point x="562" y="557" type="line"/>
      <point x="661" y="557" type="line"/>
      <point x="661" y="615" type="line"/>
      <point x="395" y="615" type="line"/>
      <point x="395" y="557" type="line"/>
      <point x="499" y="557" type="line"/>
      <point x="499" y="130" type="line" smooth="yes"/>
      <point x="499" y="63"/>
      <point x="449" y="37"/>
      <point x="371" y="37" type="curve" smooth="yes"/>
      <point x="303" y="37"/>
      <point x="291" y="42"/>
      <point x="291" y="42" type="curve"/>
      <point x="291" y="42"/>
      <point x="277" y="95"/>
      <point x="277" y="140" type="curve" smooth="yes"/>
      <point x="277" y="615" type="line"/>
      <point x="20" y="615" type="line"/>
      <point x="20" y="557" type="line"/>
      <point x="109" y="557" type="line"/>
    </contour>
    <contour>
      <point x="172" y="682" type="line"/>
      <point x="194" y="653" type="line"/>
      <point x="368" y="725" type="line"/>
      <point x="543" y="653" type="line"/>
      <point x="565" y="682" type="line"/>
      <point x="402" y="842" type="line"/>
      <point x="392" y="847"/>
      <point x="384" y="851"/>
      <point x="376" y="852" type="curve"/>
      <point x="374" y="853"/>
      <point x="373" y="853"/>
      <point x="372" y="853" type="curve"/>
      <point x="368" y="853" type="line"/>
      <point x="365" y="853" type="line" smooth="yes"/>
      <point x="363" y="853"/>
      <point x="362" y="853"/>
      <point x="361" y="852" type="curve"/>
      <point x="353" y="851"/>
      <point x="344" y="847"/>
      <point x="335" y="842" type="curve"/>
    </contour>
  </outline>
</glyph>
<glyph name="Thorn" format="1">
  <advance width="638"/>
  <unicode hex="00DE"/>
  <outline>
    <contour>
      <point x="25" y="58" type="line"/>
      <point x="25" y="0" type="line"/>
      <point x="371" y="0" type="line"/>
      <point x="371" y="58" type="line"/>
      <point x="282" y="58" type="line"/>
      <point x="282" y="142" type="line"/>
      <point x="302" y="141"/>
      <point x="325" y="141"/>
      <point x="340" y="141" type="curve" smooth="yes"/>
      <point x="512" y="141"/>
      <point x="593" y="192"/>
      <point x="593" y="326" type="curve" smooth="yes"/>
      <point x="593" y="462"/>
      <point x="512" y="512"/>
      <point x="340" y="512" type="curve" smooth="yes"/>
      <point x="323" y="512"/>
      <point x="297" y="511"/>
      <point x="282" y="510" type="curve"/>
      <point x="282" y="557" type="line"/>
      <point x="371" y="557" type="line"/>
      <point x="371" y="615" type="line"/>
      <point x="25" y="615" type="line"/>
      <point x="25" y="557" type="line"/>
      <point x="114" y="557" type="line"/>
      <point x="114" y="58" type="line"/>
    </contour>
    <contour>
      <point x="340" y="454" type="curve" smooth="yes"/>
      <point x="371" y="454"/>
      <point x="391" y="448"/>
      <point x="391" y="448" type="curve"/>
      <point x="391" y="448"/>
      <point x="407" y="407"/>
      <point x="407" y="325" type="curve" smooth="yes"/>
      <point x="407" y="245"/>
      <point x="391" y="205"/>
      <point x="391" y="205" type="curve"/>
      <point x="391" y="205"/>
      <point x="371" y="199"/>
      <point x="340" y="199" type="curve" smooth="yes"/>
      <point x="317" y="199"/>
      <point x="298" y="200"/>
      <point x="282" y="202" type="curve"/>
      <point x="282" y="450" type="line"/>
      <point x="298" y="452"/>
      <point x="318" y="454"/>
    </contour>
  </outline>
</glyph>
<glyph name="germandbls" format="1">
  <advance width="576"/>
  <unicode hex="00DF"/>
  <outline>
    <contour>
      <point x="267" y="651" type="curve" smooth="yes"/>
      <point x="145" y="651"/>
      <point x="79" y="593"/>
      <point x="79" y="488" type="curve" smooth="yes"/>
      <point x="79" y="51" type="line"/>
      <point x="20" y="51" type="line"/>
      <point x="20" y="0" type="line"/>
      <point x="236" y="0" type="line"/>
      <point x="236" y="514" type="line" smooth="yes"/>
      <point x="236" y="563"/>
      <point x="244" y="602"/>
      <point x="244" y="602" type="curve"/>
      <point x="244" y="602"/>
      <point x="261" y="604"/>
      <point x="289" y="604" type="curve" smooth="yes"/>
      <point x="365" y="604"/>
      <point x="395" y="561"/>
      <point x="395" y="515" type="curve" smooth="yes"/>
      <point x="395" y="469"/>
      <point x="354" y="423"/>
      <point x="288" y="423" type="curve" smooth="yes"/>
      <point x="266" y="423" type="line"/>
      <point x="266" y="372" type="line"/>
      <point x="345" y="372" type="line"/>
      <point x="345" y="372"/>
      <point x="389" y="353"/>
      <point x="389" y="268" type="curve" smooth="yes"/>
      <point x="389" y="87" type="line" smooth="yes"/>
      <point x="389" y="72"/>
      <point x="388" y="39"/>
      <point x="388" y="39" type="curve"/>
      <point x="388" y="39"/>
      <point x="376" y="38"/>
      <point x="360" y="38" type="curve" smooth="yes"/>
      <point x="335" y="38"/>
      <point x="318" y="60"/>
      <point x="318" y="91" type="curve" smooth="yes"/>
      <point x="318" y="134" type="line"/>
      <point x="266" y="134" type="line"/>
      <point x="266" y="87" type="line" smooth="yes"/>
      <point x="266" y="15"/>
      <point x="312" y="-9"/>
      <point x="391" y="-9" type="curve" smooth="yes"/>
      <point x="503" y="-9"/>
      <point x="551" y="37"/>
      <point x="551" y="143" type="curve" smooth="yes"/>
      <point x="551" y="240" type="line" smooth="yes"/>
      <point x="551" y="345"/>
      <point x="513" y="401"/>
      <point x="439" y="417" type="curve" smooth="yes"/>
      <point x="401" y="425" type="line"/>
      <point x="426" y="447"/>
      <point x="447" y="474"/>
      <point x="447" y="522" type="curve" smooth="yes"/>
      <point x="447" y="589"/>
      <point x="396" y="651"/>
    </contour>
  </outline>
</glyph>
<glyph name="agrave" format="1">
  <advance width="521"/>
  <unicode hex="00E0"/>
  <outline>
    <contour>
      <point x="453" y="223" type="line" smooth="yes"/>
      <point x="453" y="402"/>
      <point x="436" y="456"/>
      <point x="263" y="456" type="curve" smooth="yes"/>
      <point x="182" y="456"/>
      <point x="72" y="444"/>
      <point x="72" y="444" type="curve"/>
      <point x="72" y="293" type="line"/>
      <point x="173" y="293"/>
      <point x="199" y="369"/>
      <point x="206" y="406" type="curve"/>
      <point x="216" y="407"/>
      <point x="227" y="408"/>
      <point x="239" y="408" type="curve" smooth="yes"/>
      <point x="278" y="408"/>
      <point x="287" y="403"/>
      <point x="287" y="403" type="curve"/>
      <point x="287" y="403"/>
      <point x="292" y="350"/>
      <point x="294" y="272" type="curve"/>
      <point x="62" y="215" type="line"/>
      <point x="62" y="215"/>
      <point x="55" y="165"/>
      <point x="55" y="106" type="curve" smooth="yes"/>
      <point x="55" y="22"/>
      <point x="99" y="-8"/>
      <point x="189" y="-8" type="curve" smooth="yes"/>
      <point x="238" y="-8"/>
      <point x="276" y="16"/>
      <point x="305" y="53" type="curve"/>
      <point x="319" y="25"/>
      <point x="350" y="-4"/>
      <point x="415" y="-4" type="curve" smooth="yes"/>
      <point x="442" y="-4"/>
      <point x="506" y="5"/>
      <point x="506" y="5" type="curve"/>
      <point x="506" y="53" type="line"/>
      <point x="506" y="53"/>
      <point x="465" y="50"/>
      <point x="453" y="50" type="curve"/>
    </contour>
    <contour>
      <point x="221" y="46" type="curve"/>
      <point x="221" y="46"/>
      <point x="215" y="89"/>
      <point x="215" y="141" type="curve" smooth="yes"/>
      <point x="215" y="162"/>
      <point x="216" y="185"/>
      <point x="219" y="206" type="curve"/>
      <point x="295" y="227" type="line"/>
      <point x="295" y="121" type="line"/>
      <point x="273" y="83"/>
      <point x="247" y="53"/>
    </contour>
    <contour>
      <point x="130" y="689" type="line"/>
      <point x="118" y="699"/>
      <point x="106" y="703"/>
      <point x="93" y="703" type="curve" smooth="yes"/>
      <point x="64" y="703"/>
      <point x="32" y="670"/>
      <point x="32" y="638" type="curve" smooth="yes"/>
      <point x="32" y="622"/>
      <point x="39" y="607"/>
      <point x="53" y="595" type="curve"/>
      <point x="250" y="486" type="line"/>
      <point x="275" y="514" type="line"/>
    </contour>
  </outline>
</glyph>
<glyph name="aacute" format="1">
  <advance width="521"/>
  <unicode hex="00E1"/>
  <outline>
    <contour>
      <point x="453" y="223" type="line" smooth="yes"/>
      <point x="453" y="402"/>
      <point x="436" y="456"/>
      <point x="263" y="456" type="curve" smooth="yes"/>
      <point x="182" y="456"/>
      <point x="72" y="444"/>
      <point x="72" y="444" type="curve"/>
      <point x="72" y="293" type="line"/>
      <point x="173" y="293"/>
      <point x="199" y="369"/>
      <point x="206" y="406" type="curve"/>
      <point x="216" y="407"/>
      <point x="227" y="408"/>
      <point x="239" y="408" type="curve" smooth="yes"/>
      <point x="278" y="408"/>
      <point x="287" y="403"/>
      <point x="287" y="403" type="curve"/>
      <point x="287" y="403"/>
      <point x="292" y="350"/>
      <point x="294" y="272" type="curve"/>
      <point x="62" y="215" type="line"/>
      <point x="62" y="215"/>
      <point x="55" y="165"/>
      <point x="55" y="106" type="curve" smooth="yes"/>
      <point x="55" y="22"/>
      <point x="99" y="-8"/>
      <point x="189" y="-8" type="curve" smooth="yes"/>
      <point x="238" y="-8"/>
      <point x="276" y="16"/>
      <point x="305" y="53" type="curve"/>
      <point x="319" y="25"/>
      <point x="350" y="-4"/>
      <point x="415" y="-4" type="curve" smooth="yes"/>
      <point x="442" y="-4"/>
      <point x="506" y="5"/>
      <point x="506" y="5" type="curve"/>
      <point x="506" y="53" type="line"/>
      <point x="506" y="53"/>
      <point x="465" y="50"/>
      <point x="453" y="50" type="curve"/>
    </contour>
    <contour>
      <point x="221" y="46" type="curve"/>
      <point x="221" y="46"/>
      <point x="215" y="89"/>
      <point x="215" y="141" type="curve" smooth="yes"/>
      <point x="215" y="162"/>
      <point x="216" y="185"/>
      <point x="219" y="206" type="curve"/>
      <point x="295" y="227" type="line"/>
      <point x="295" y="121" type="line"/>
      <point x="273" y="83"/>
      <point x="247" y="53"/>
    </contour>
    <contour>
      <point x="225" y="514" type="line"/>
      <point x="250" y="486" type="line"/>
      <point x="447" y="595" type="line"/>
      <point x="461" y="607"/>
      <point x="468" y="622"/>
      <point x="468" y="638" type="curve" smooth="yes"/>
      <point x="468" y="670"/>
      <point x="436" y="703"/>
      <point x="407" y="703" type="curve" smooth="yes"/>
      <point x="394" y="703"/>
      <point x="382" y="699"/>
      <point x="370" y="689" type="curve"/>
    </contour>
  </outline>
</glyph>
<glyph name="ae" format="1">
  <advance width="746"/>
  <unicode hex="00E6"/>
  <outline>
    <contour>
      <point x="72" y="293" type="line"/>
      <point x="173" y="293"/>
      <point x="199" y="369"/>
      <point x="206" y="406" type="curve"/>
      <point x="216" y="407"/>
      <point x="227" y="408"/>
      <point x="239" y="408" type="curve" smooth="yes"/>
      <point x="278" y="408"/>
      <point x="287" y="403"/>
      <point x="287" y="403" type="curve"/>
      <point x="287" y="403"/>
      <point x="292" y="350"/>
      <point x="294" y="272" type="curve"/>
      <point x="62" y="215" type="line"/>
      <point x="62" y="215"/>
      <point x="55" y="165"/>
      <point x="55" y="106" type="curve" smooth="yes"/>
      <point x="55" y="22"/>
      <point x="99" y="-8"/>
      <point x="189" y="-8" type="curve" smooth="yes"/>
      <point x="248" y="-8"/>
      <point x="291" y="27"/>
      <point x="321" y="76" type="curve"/>
      <point x="353" y="15"/>
      <point x="415" y="-10"/>
      <point x="518" y="-10" type="curve" smooth="yes"/>
      <point x="592" y="-10"/>
      <point x="702" y="-1"/>
      <point x="702" y="111" type="curve"/>
      <point x="648" y="111" type="line"/>
      <point x="648" y="54"/>
      <point x="593" y="38"/>
      <point x="525" y="38" type="curve" smooth="yes"/>
      <point x="486" y="38"/>
      <point x="477" y="43"/>
      <point x="477" y="43" type="curve"/>
      <point x="477" y="43"/>
      <point x="462" y="105"/>
      <point x="459" y="194" type="curve"/>
      <point x="706" y="194" type="line"/>
      <point x="706" y="194"/>
      <point x="711" y="213"/>
      <point x="711" y="259" type="curve" smooth="yes"/>
      <point x="711" y="405"/>
      <point x="668" y="456"/>
      <point x="522" y="456" type="curve" smooth="yes"/>
      <point x="468" y="456"/>
      <point x="424" y="445"/>
      <point x="390" y="425" type="curve"/>
      <point x="361" y="446"/>
      <point x="320" y="456"/>
      <point x="263" y="456" type="curve" smooth="yes"/>
      <point x="182" y="456"/>
      <point x="72" y="444"/>
      <point x="72" y="444" type="curve"/>
    </contour>
    <contour>
      <point x="477" y="405" type="curve"/>
      <point x="477" y="405"/>
      <point x="488" y="411"/>
      <point x="506" y="411" type="curve" smooth="yes"/>
      <point x="525" y="411"/>
      <point x="535" y="405"/>
      <point x="535" y="405" type="curve"/>
      <point x="535" y="405"/>
      <point x="553" y="350"/>
      <point x="556" y="237" type="curve"/>
      <point x="459" y="237" type="line"/>
      <point x="460" y="334"/>
      <point x="477" y="405"/>
    </contour>
    <contour>
      <point x="221" y="46" type="curve"/>
      <point x="221" y="46"/>
      <point x="215" y="89"/>
      <point x="215" y="141" type="curve" smooth="yes"/>
      <point x="215" y="162"/>
      <point x="216" y="185"/>
      <point x="219" y="206" type="curve"/>
      <point x="295" y="227" type="line"/>
      <point x="295" y="223" type="line" smooth="yes"/>
      <point x="295" y="189"/>
      <point x="297" y="160"/>
      <point x="302" y="135" type="curve"/>
      <point x="279" y="91"/>
      <point x="250" y="54"/>
    </contour>
  </outline>
</glyph>
<glyph name="ccedilla" format="1">
  <advance width="445"/>
  <unicode hex="00E7"/>
  <outline>
    <contour>
      <point x="406" y="449" type="line"/>
      <point x="406" y="449"/>
      <point x="327" y="456"/>
      <point x="262" y="456" type="curve" smooth="yes"/>
      <point x="84" y="456"/>
      <point x="35" y="394"/>
      <point x="35" y="223" type="curve" smooth="yes"/>
      <point x="35" y="66"/>
      <point x="85" y="1"/>
      <point x="219" y="-8" type="curve"/>
      <point x="219" y="-74" type="line"/>
      <point x="269" y="-74" type="line" smooth="yes"/>
      <point x="285" y="-74"/>
      <point x="297" y="-81"/>
      <point x="297" y="-95" type="curve" smooth="yes"/>
      <point x="297" y="-112"/>
      <point x="285" y="-116"/>
      <point x="271" y="-116" type="curve" smooth="yes"/>
      <point x="212" y="-116" type="line"/>
      <point x="212" y="-166" type="line"/>
      <point x="271" y="-166" type="line" smooth="yes"/>
      <point x="324" y="-166"/>
      <point x="353" y="-136"/>
      <point x="353" y="-94" type="curve" smooth="yes"/>
      <point x="353" y="-58"/>
      <point x="327" y="-34"/>
      <point x="288" y="-34" type="curve" smooth="yes"/>
      <point x="281" y="-34" type="line"/>
      <point x="281" y="-9" type="line"/>
      <point x="343" y="-6"/>
      <point x="420" y="17"/>
      <point x="420" y="131" type="curve"/>
      <point x="372" y="131" type="line"/>
      <point x="372" y="57"/>
      <point x="324" y="38"/>
      <point x="264" y="38" type="curve" smooth="yes"/>
      <point x="230" y="38"/>
      <point x="217" y="43"/>
      <point x="217" y="43" type="curve"/>
      <point x="217" y="43"/>
      <point x="199" y="119"/>
      <point x="199" y="223" type="curve" smooth="yes"/>
      <point x="199" y="328"/>
      <point x="217" y="405"/>
      <point x="217" y="405" type="curve"/>
      <point x="217" y="405"/>
      <point x="228" y="411"/>
      <point x="246" y="411" type="curve" smooth="yes"/>
      <point x="270" y="411" type="line"/>
      <point x="274" y="384"/>
      <point x="295" y="295"/>
      <point x="406" y="295" type="curve"/>
    </contour>
  </outline>
</glyph>
<glyph name="edieresis" format="1">
  <advance width="486"/>
  <unicode hex="00EB"/>
  <outline>
    <contour>
      <point x="262" y="456" type="curve" smooth="yes"/>
      <point x="84" y="456"/>
      <point x="35" y="394"/>
      <point x="35" y="223" type="curve" smooth="yes"/>
      <point x="35" y="52"/>
      <point x="95" y="-10"/>
      <point x="258" y="-10" type="curve" smooth="yes"/>
      <point x="332" y="-10"/>
      <point x="442" y="-1"/>
      <point x="442" y="111" type="curve"/>
      <point x="388" y="111" type="line"/>
      <point x="388" y="54"/>
      <point x="333" y="38"/>
      <point x="265" y="38" type="curve" smooth="yes"/>
      <point x="226" y="38"/>
      <point x="217" y="43"/>
      <point x="217" y="43" type="curve"/>
      <point x="217" y="43"/>
      <point x="202" y="105"/>
      <point x="199" y="194" type="curve"/>
      <point x="446" y="194" type="line"/>
      <point x="446" y="194"/>
      <point x="451" y="213"/>
      <point x="451" y="259" type="curve" smooth="yes"/>
      <point x="451" y="405"/>
      <point x="408" y="456"/>
    </contour>
    <contour>
      <point x="217" y="405" type="curve"/>
      <point x="217" y="405"/>
      <point x="228" y="411"/>
      <point x="246" y="411" type="curve" smooth="yes"/>
      <point x="265" y="411"/>
      <point x="275" y="405"/>
      <point x="275" y="405" type="curve"/>
      <point x="275" y="405"/>
      <point x="293" y="350"/>
      <point x="296" y="237" type="curve"/>
      <point x="199" y="237" type="line"/>
      <point x="200" y="334"/>
      <point x="217" y="405"/>
    </contour>
    <contour>
      <point x="71" y="597" type="curve" smooth="yes"/>
      <point x="71" y="546"/>
      <point x="91" y="523"/>
      <point x="142" y="523" type="curve" smooth="yes"/>
      <point x="192" y="523"/>
      <point x="213" y="546"/>
      <point x="213" y="597" type="curve" smooth="yes"/>
      <point x="213" y="647"/>
      <point x="196" y="672"/>
      <point x="142" y="672" type="curve" smooth="yes"/>
      <point x="91" y="672"/>
      <point x="71" y="647"/>
    </contour>
    <contour>
      <point x="276" y="597" type="curve" smooth="yes"/>
      <point x="276" y="546"/>
      <point x="296" y="523"/>
      <point x="347" y="523" type="curve" smooth="yes"/>
      <point x="397" y="523"/>
      <point x="418" y="546"/>
      <point x="418" y="597" type="curve" smooth="yes"/>
      <point x="418" y="647"/>
      <point x="401" y="672"/>
      <point x="347" y="672" type="curve" smooth="yes"/>
      <point x="296" y="672"/>
      <point x="276" y="647"/>
    </contour>
  </outline>
</glyph>
<glyph name="igrave" format="1">
  <advance width="326"/>
  <unicode hex="00EC"/>
  <outline>
    <contour>
      <point x="30" y="391" type="line"/>
      <point x="89" y="391" type="line"/>
      <point x="89" y="51" type="line"/>
      <point x="30" y="51" type="line"/>
      <point x="30" y="0" type="line"/>
      <point x="306" y="0" type="line"/>
      <point x="306" y="51" type="line"/>
      <point x="247" y="51" type="line"/>
      <point x="247" y="465" type="line"/>
      <point x="89" y="441" type="line"/>
      <point x="30" y="441" type="line"/>
    </contour>
    <contour>
      <point x="88" y="684" type="line"/>
      <point x="75" y="696"/>
      <point x="61" y="702"/>
      <point x="47" y="702" type="curve" smooth="yes"/>
      <point x="16" y="702"/>
      <point x="-15" y="670"/>
      <point x="-15" y="639" type="curve" smooth="yes"/>
      <point x="-15" y="625"/>
      <point x="-10" y="610"/>
      <point x="2" y="598" type="curve"/>
      <point x="168" y="486" type="line"/>
      <point x="195" y="511" type="line"/>
    </contour>
  </outline>
</glyph>
<glyph name="iacute" format="1">
  <advance width="326"/>
  <unicode hex="00ED"/>
  <outline>
    <contour>
      <point x="30" y="391" type="line"/>
      <point x="89" y="391" type="line"/>
      <point x="89" y="51" type="line"/>
      <point x="30" y="51" type="line"/>
      <point x="30" y="0" type="line"/>
      <point x="306" y="0" type="line"/>
      <point x="306" y="51" type="line"/>
      <point x="247" y="51" type="line"/>
      <point x="247" y="465" type="line"/>
      <point x="89" y="441" type="line"/>
      <point x="30" y="441" type="line"/>
    </contour>
    <contour>
      <point x="139" y="512" type="line"/>
      <point x="166" y="487" type="line"/>
      <point x="332" y="599" type="line"/>
      <point x="344" y="611"/>
      <point x="349" y="626"/>
      <point x="349" y="640" type="curve" smooth="yes"/>
      <point x="349" y="671"/>
      <point x="318" y="703"/>
      <point x="287" y="703" type="curve" smooth="yes"/>
      <point x="273" y="703"/>
      <point x="259" y="697"/>
      <point x="246" y="685" type="curve"/>
    </contour>
  </outline>
</glyph>
<glyph name="idieresis" format="1">
  <advance width="326"/>
  <unicode hex="00EF"/>
  <outline>
    <contour>
      <point x="30" y="391" type="line"/>
      <point x="89" y="391" type="line"/>
      <point x="89" y="51" type="line"/>
      <point x="30" y="51" type="line"/>
      <point x="30" y="0" type="line"/>
      <point x="306" y="0" type="line"/>
      <point x="306" y="51" type="line"/>
      <point x="247" y="51" type="line"/>
      <point x="247" y="465" type="line"/>
      <point x="89" y="441" type="line"/>
      <point x="30" y="441" type="line"/>
    </contour>
    <contour>
      <point x="6" y="597" type="curve" smooth="yes"/>
      <point x="6" y="546"/>
      <point x="26" y="523"/>
      <point x="77" y="523" type="curve" smooth="yes"/>
      <point x="127" y="523"/>
      <point x="148" y="546"/>
      <point x="148" y="597" type="curve" smooth="yes"/>
      <point x="148" y="647"/>
      <point x="131" y="672"/>
      <point x="77" y="672" type="curve" smooth="yes"/>
      <point x="26" y="672"/>
      <point x="6" y="647"/>
    </contour>
    <contour>
      <point x="183" y="597" type="curve" smooth="yes"/>
      <point x="183" y="546"/>
      <point x="203" y="523"/>
      <point x="254" y="523" type="curve" smooth="yes"/>
      <point x="304" y="523"/>
      <point x="325" y="546"/>
      <point x="325" y="597" type="curve" smooth="yes"/>
      <point x="325" y="647"/>
      <point x="308" y="672"/>
      <point x="254" y="672" type="curve" smooth="yes"/>
      <point x="203" y="672"/>
      <point x="183" y="647"/>
    </contour>
  </outline>
</glyph>
<glyph name="eth" format="1">
  <advance width="536"/>
  <unicode hex="00F0"/>
  <outline>
    <contour>
      <point x="183" y="602" type="line"/>
      <point x="207" y="589"/>
      <point x="233" y="574"/>
      <point x="259" y="559" type="curve"/>
      <point x="189" y="523" type="line"/>
      <point x="219" y="475" type="line"/>
      <point x="313" y="522" type="line"/>
      <point x="348" y="498"/>
      <point x="378" y="465"/>
      <point x="397" y="429" type="curve"/>
      <point x="361" y="447"/>
      <point x="317" y="456"/>
      <point x="268" y="456" type="curve" smooth="yes"/>
      <point x="96" y="456"/>
      <point x="35" y="394"/>
      <point x="35" y="223" type="curve" smooth="yes"/>
      <point x="35" y="52"/>
      <point x="96" y="-10"/>
      <point x="268" y="-10" type="curve" smooth="yes"/>
      <point x="440" y="-10"/>
      <point x="501" y="52"/>
      <point x="501" y="223" type="curve" smooth="yes"/>
      <point x="501" y="370"/>
      <point x="467" y="472"/>
      <point x="373" y="553" type="curve"/>
      <point x="475" y="604" type="line"/>
      <point x="442" y="653" type="line"/>
      <point x="322" y="591" type="line"/>
      <point x="288" y="613"/>
      <point x="251" y="633"/>
      <point x="213" y="653" type="curve"/>
    </contour>
    <contour>
      <point x="199" y="223" type="curve" smooth="yes"/>
      <point x="199" y="327"/>
      <point x="217" y="405"/>
      <point x="217" y="405" type="curve"/>
      <point x="217" y="405"/>
      <point x="235" y="411"/>
      <point x="268" y="411" type="curve" smooth="yes"/>
      <point x="299" y="411"/>
      <point x="319" y="405"/>
      <point x="319" y="405" type="curve"/>
      <point x="319" y="405"/>
      <point x="337" y="327"/>
      <point x="337" y="223" type="curve" smooth="yes"/>
      <point x="337" y="119"/>
      <point x="319" y="41"/>
      <point x="319" y="41" type="curve"/>
      <point x="319" y="41"/>
      <point x="301" y="35"/>
      <point x="268" y="35" type="curve" smooth="yes"/>
      <point x="235" y="35"/>
      <point x="217" y="41"/>
      <point x="217" y="41" type="curve"/>
      <point x="217" y="41"/>
      <point x="199" y="119"/>
    </contour>
  </outline>
</glyph>
<glyph name="ntilde" format="1">
  <advance width="603"/>
  <unicode hex="00F1"/>
  <outline>
    <contour>
      <point x="30" y="381" type="line"/>
      <point x="89" y="381" type="line"/>
      <point x="89" y="51" type="line"/>
      <point x="30" y="51" type="line"/>
      <point x="30" y="0" type="line"/>
      <point x="306" y="0" type="line"/>
      <point x="306" y="51" type="line"/>
      <point x="247" y="51" type="line"/>
      <point x="247" y="329" type="line"/>
      <point x="255" y="345"/>
      <point x="287" y="397"/>
      <point x="343" y="397" type="curve" smooth="yes"/>
      <point x="364" y="397"/>
      <point x="371" y="394"/>
      <point x="371" y="394" type="curve"/>
      <point x="371" y="0" type="line"/>
      <point x="588" y="0" type="line"/>
      <point x="588" y="51" type="line"/>
      <point x="529" y="51" type="line"/>
      <point x="529" y="362" type="line" smooth="yes"/>
      <point x="529" y="439"/>
      <point x="457" y="456"/>
      <point x="396" y="456" type="curve" smooth="yes"/>
      <point x="284" y="456"/>
      <point x="245" y="399"/>
      <point x="240" y="390" type="curve"/>
      <point x="240" y="460" type="line"/>
      <point x="89" y="431" type="line"/>
      <point x="30" y="431" type="line"/>
    </contour>
    <contour>
      <point x="195" y="557" type="line"/>
      <point x="208" y="611"/>
      <point x="236" y="630"/>
      <point x="277" y="630" type="curve" smooth="yes"/>
      <point x="320" y="630"/>
      <point x="362" y="595"/>
      <point x="400" y="595" type="curve" smooth="yes"/>
      <point x="422" y="595"/>
      <point x="432" y="611"/>
      <point x="439" y="631" type="curve"/>
      <point x="488" y="610" type="line"/>
      <point x="475" y="556"/>
      <point x="447" y="537"/>
      <point x="407" y="537" type="curve" smooth="yes"/>
      <point x="362" y="537"/>
      <point x="321" y="572"/>
      <point x="283" y="572" type="curve" smooth="yes"/>
      <point x="261" y="572"/>
      <point x="251" y="556"/>
      <point x="244" y="536" type="curve"/>
    </contour>
  </outline>
</glyph>
<glyph name="ocircumflex" format="1">
  <advance width="536"/>
  <unicode hex="00F4"/>
  <outline>
    <contour>
      <point x="199" y="223" type="curve" smooth="yes"/>
      <point x="199" y="327"/>
      <point x="217" y="405"/>
      <point x="217" y="405" type="curve"/>
      <point x="217" y="405"/>
      <point x="235" y="411"/>
      <point x="268" y="411" type="curve" smooth="yes"/>
      <point x="299" y="411"/>
      <point x="319" y="405"/>
      <point x="319" y="405" type="curve"/>
      <point x="319" y="405"/>
      <point x="337" y="327"/>
      <point x="337" y="223" type="curve" smooth="yes"/>
      <point x="337" y="119"/>
      <point x="319" y="41"/>
      <point x="319" y="41" type="curve"/>
      <point x="319" y="41"/>
      <point x="301" y="35"/>
      <point x="268" y="35" type="curve" smooth="yes"/>
      <point x="235" y="35"/>
      <point x="217" y="41"/>
      <point x="217" y="41" type="curve"/>
      <point x="217" y="41"/>
      <point x="199" y="119"/>
    </contour>
    <contour>
      <point x="35" y="223" type="curve" smooth="yes"/>
      <point x="35" y="52"/>
      <point x="96" y="-10"/>
      <point x="268" y="-10" type="curve" smooth="yes"/>
      <point x="440" y="-10"/>
      <point x="501" y="52"/>
      <point x="501" y="223" type="curve" smooth="yes"/>
      <point x="501" y="394"/>
      <point x="440" y="456"/>
      <point x="268" y="456" type="curve" smooth="yes"/>
      <point x="96" y="456"/>
      <point x="35" y="394"/>
    </contour>
    <contour>
      <point x="88" y="514" type="line"/>
      <point x="113" y="486" type="line"/>
      <point x="270" y="573" type="line"/>
      <point x="427" y="486" type="line"/>
      <point x="452" y="514" type="line"/>
      <point x="315" y="680" type="line" smooth="yes"/>
      <point x="304" y="694"/>
      <point x="288" y="703"/>
      <point x="274" y="703" type="curve" smooth="yes"/>
      <point x="266" y="703" type="line" smooth="yes"/>
      <point x="249" y="703"/>
      <point x="234" y="690"/>
      <point x="225" y="680" type="curve" smooth="yes"/>
    </contour>
  </outline>
</glyph>
<glyph name="otilde" format="1">
  <advance width="536"/>
  <unicode hex="00F5"/>
  <outline>
    <contour>
      <point x="199" y="223" type="curve" smooth="yes"/>
      <point x="199" y="327"/>
      <point x="217" y="405"/>
      <point x="217" y="405" type="curve"/>
      <point x="217" y="405"/>
      <point x="235" y="411"/>
      <point x="268" y="411" type="curve" smooth="yes"/>
      <point x="299" y="411"/>
      <point x="319" y="405"/>
      <point x="319" y="405" type="curve"/>
      <point x="319" y="405"/>
      <point x="337" y="327"/>
      <point x="337" y="223" type="curve" smooth="yes"/>
      <point x="337" y="119"/>
      <point x="319" y="41"/>
      <point x="319" y="41" type="curve"/>
      <point x="319" y="41"/>
      <point x="301" y="35"/>
      <point x="268" y="35" type="curve" smooth="yes"/>
      <point x="235" y="35"/>
      <point x="217" y="41"/>
      <point x="217" y="41" type="curve"/>
      <point x="217" y="41"/>
      <point x="199" y="119"/>
    </contour>
    <contour>
      <point x="35" y="223" type="curve" smooth="yes"/>
      <point x="35" y="52"/>
      <point x="96" y="-10"/>
      <point x="268" y="-10" type="curve" smooth="yes"/>
      <point x="440" y="-10"/>
      <point x="501" y="52"/>
      <point x="501" y="223" type="curve" smooth="yes"/>
      <point x="501" y="394"/>
      <point x="440" y="456"/>
      <point x="268" y="456" type="curve" smooth="yes"/>
      <point x="96" y="456"/>
      <point x="35" y="394"/>
    </contour>
    <contour>
      <point x="122" y="557" type="line"/>
      <point x="135" y="611"/>
      <point x="163" y="630"/>
      <point x="204" y="630" type="curve" smooth="yes"/>
      <point x="247" y="630"/>
      <point x="289" y="595"/>
      <point x="327" y="595" type="curve" smooth="yes"/>
      <point x="349" y="595"/>
      <point x="359" y="611"/>
      <point x="366" y="631" type="curve"/>
      <point x="415" y="610" type="line"/>
      <point x="402" y="556"/>
      <point x="374" y="537"/>
      <point x="334" y="537" type="curve" smooth="yes"/>
      <point x="289" y="537"/>
      <point x="248" y="572"/>
      <point x="210" y="572" type="curve" smooth="yes"/>
      <point x="188" y="572"/>
      <point x="178" y="556"/>
      <point x="171" y="536" type="curve"/>
    </contour>
  </outline>
</glyph>
<glyph name="divide" format="1">
  <advance width="472"/>
  <unicode hex="00F7"/>
  <outline>
    <contour>
      <point x="50" y="292" type="line"/>
      <point x="50" y="234" type="line"/>
      <point x="422" y="234" type="line"/>
      <point x="422" y="292" type="line"/>
    </contour>
    <contour>
      <point x="194" y="112" type="curve" smooth="yes"/>
      <point x="194" y="82"/>
      <point x="206" y="69"/>
      <point x="236" y="69" type="curve" smooth="yes"/>
      <point x="265" y="69"/>
      <point x="277" y="82"/>
      <point x="277" y="112" type="curve" smooth="yes"/>
      <point x="277" y="142"/>
      <point x="267" y="156"/>
      <point x="236" y="156" type="curve" smooth="yes"/>
      <point x="206" y="156"/>
      <point x="194" y="142"/>
    </contour>
    <contour>
      <point x="194" y="412" type="curve" smooth="yes"/>
      <point x="194" y="382"/>
      <point x="206" y="369"/>
      <point x="236" y="369" type="curve" smooth="yes"/>
      <point x="265" y="369"/>
      <point x="277" y="382"/>
      <point x="277" y="412" type="curve" smooth="yes"/>
      <point x="277" y="442"/>
      <point x="267" y="456"/>
      <point x="236" y="456" type="curve" smooth="yes"/>
      <point x="206" y="456"/>
      <point x="194" y="442"/>
    </contour>
  </outline>
</glyph>
<glyph name="oslash" format="1">
  <advance width="536"/>
  <unicode hex="00F8"/>
  <outline>
    <contour>
      <point x="422" y="480" type="line"/>
      <point x="354" y="480" type="line"/>
      <point x="340" y="451" type="line"/>
      <point x="319" y="454"/>
      <point x="295" y="456"/>
      <point x="268" y="456" type="curve" smooth="yes"/>
      <point x="96" y="456"/>
      <point x="35" y="394"/>
      <point x="35" y="223" type="curve" smooth="yes"/>
      <point x="35" y="107"/>
      <point x="63" y="41"/>
      <point x="135" y="11" type="curve"/>
      <point x="114" y="-34" type="line"/>
      <point x="182" y="-34" type="line"/>
      <point x="195" y="-5" type="line"/>
      <point x="217" y="-8"/>
      <point x="241" y="-10"/>
      <point x="268" y="-10" type="curve" smooth="yes"/>
      <point x="440" y="-10"/>
      <point x="501" y="52"/>
      <point x="501" y="223" type="curve" smooth="yes"/>
      <point x="501" y="339"/>
      <point x="472" y="404"/>
      <point x="401" y="435" type="curve"/>
    </contour>
    <contour>
      <point x="319" y="41" type="curve"/>
      <point x="319" y="41"/>
      <point x="301" y="35"/>
      <point x="268" y="35" type="curve" smooth="yes"/>
      <point x="249" y="35"/>
      <point x="229" y="37"/>
      <point x="216" y="38" type="curve"/>
      <point x="337" y="298" type="line"/>
      <point x="337" y="223" type="line" smooth="yes"/>
      <point x="337" y="119"/>
      <point x="319" y="41"/>
    </contour>
    <contour>
      <point x="199" y="223" type="line" smooth="yes"/>
      <point x="199" y="327"/>
      <point x="217" y="405"/>
      <point x="217" y="405" type="curve"/>
      <point x="217" y="405"/>
      <point x="235" y="411"/>
      <point x="268" y="411" type="curve" smooth="yes"/>
      <point x="286" y="411"/>
      <point x="306" y="409"/>
      <point x="320" y="407" type="curve"/>
      <point x="199" y="148" type="line"/>
    </contour>
  </outline>
</glyph>
<glyph name="uacute" format="1">
  <advance width="580"/>
  <unicode hex="00FA"/>
  <outline>
    <contour>
      <point x="15" y="381" type="line"/>
      <point x="67" y="381" type="line"/>
      <point x="67" y="87" type="line" smooth="yes"/>
      <point x="67" y="10"/>
      <point x="139" y="-7"/>
      <point x="200" y="-7" type="curve" smooth="yes"/>
      <point x="311" y="-7"/>
      <point x="350" y="50"/>
      <point x="356" y="59" type="curve"/>
      <point x="368" y="29"/>
      <point x="400" y="-4"/>
      <point x="469" y="-4" type="curve" smooth="yes"/>
      <point x="496" y="-4"/>
      <point x="560" y="5"/>
      <point x="560" y="5" type="curve"/>
      <point x="560" y="53" type="line"/>
      <point x="560" y="53"/>
      <point x="519" y="50"/>
      <point x="507" y="50" type="curve"/>
      <point x="507" y="449" type="line"/>
      <point x="349" y="449" type="line"/>
      <point x="349" y="119" type="line"/>
      <point x="340" y="104"/>
      <point x="308" y="52"/>
      <point x="253" y="52" type="curve" smooth="yes"/>
      <point x="232" y="52"/>
      <point x="225" y="55"/>
      <point x="225" y="55" type="curve"/>
      <point x="225" y="460" type="line"/>
      <point x="74" y="431" type="line"/>
      <point x="15" y="431" type="line"/>
    </contour>
    <contour>
      <point x="264" y="514" type="line"/>
      <point x="289" y="486" type="line"/>
      <point x="486" y="595" type="line"/>
      <point x="500" y="607"/>
      <point x="507" y="622"/>
      <point x="507" y="638" type="curve" smooth="yes"/>
      <point x="507" y="670"/>
      <point x="475" y="703"/>
      <point x="446" y="703" type="curve" smooth="yes"/>
      <point x="433" y="703"/>
      <point x="421" y="699"/>
      <point x="409" y="689" type="curve"/>
    </contour>
  </outline>
</glyph>
<glyph name="ucircumflex" format="1">
  <advance width="580"/>
  <unicode hex="00FB"/>
  <outline>
    <contour>
      <point x="15" y="381" type="line"/>
      <point x="67" y="381" type="line"/>
      <point x="67" y="87" type="line" smooth="yes"/>
      <point x="67" y="10"/>
      <point x="139" y="-7"/>
      <point x="200" y="-7" type="curve" smooth="yes"/>
      <point x="311" y="-7"/>
      <point x="350" y="50"/>
      <point x="356" y="59" type="curve"/>
      <point x="368" y="29"/>
      <point x="400" y="-4"/>
      <point x="469" y="-4" type="curve" smooth="yes"/>
      <point x="496" y="-4"/>
      <point x="560" y="5"/>
      <point x="560" y="5" type="curve"/>
      <point x="560" y="53" type="line"/>
      <point x="560" y="53"/>
      <point x="519" y="50"/>
      <point x="507" y="50" type="curve"/>
      <point x="507" y="449" type="line"/>
      <point x="349" y="449" type="line"/>
      <point x="349" y="119" type="line"/>
      <point x="340" y="104"/>
      <point x="308" y="52"/>
      <point x="253" y="52" type="curve" smooth="yes"/>
      <point x="232" y="52"/>
      <point x="225" y="55"/>
      <point x="225" y="55" type="curve"/>
      <point x="225" y="460" type="line"/>
      <point x="74" y="431" type="line"/>
      <point x="15" y="431" type="line"/>
    </contour>
    <contour>
      <point x="107" y="514" type="line"/>
      <point x="132" y="486" type="line"/>
      <point x="289" y="573" type="line"/>
      <point x="446" y="486" type="line"/>
      <point x="471" y="514" type="line"/>
      <point x="334" y="680" type="line" smooth="yes"/>
      <point x="323" y="694"/>
      <point x="307" y="703"/>
      <point x="293" y="703" type="curve" smooth="yes"/>
      <point x="285" y="703" type="line" smooth="yes"/>
      <point x="268" y="703"/>
      <point x="253" y="690"/>
      <point x="244" y="680" type="curve" smooth="yes"/>
    </contour>
  </outline>
</glyph>
<glyph name="udieresis" format="1">
  <advance width="580"/>
  <unicode hex="00FC"/>
  <outline>
    <contour>
      <point x="15" y="381" type="line"/>
      <point x="67" y="381" type="line"/>
      <point x="67" y="87" type="line" smooth="yes"/>
      <point x="67" y="10"/>
      <point x="139" y="-7"/>
      <point x="200" y="-7" type="curve" smooth="yes"/>
      <point x="311" y="-7"/>
      <point x="350" y="50"/>
      <point x="356" y="59" type="curve"/>
      <point x="368" y="29"/>
      <point x="400" y="-4"/>
      <point x="469" y="-4" type="curve" smooth="yes"/>
      <point x="496" y="-4"/>
      <point x="560" y="5"/>
      <point x="560" y="5" type="curve"/>
      <point x="560" y="53" type="line"/>
      <point x="560" y="53"/>
      <point x="519" y="50"/>
      <point x="507" y="50" type="curve"/>
      <point x="507" y="449" type="line"/>
      <point x="349" y="449" type="line"/>
      <point x="349" y="119" type="line"/>
      <point x="340" y="104"/>
      <point x="308" y="52"/>
      <point x="253" y="52" type="curve" smooth="yes"/>
      <point x="232" y="52"/>
      <point x="225" y="55"/>
      <point x="225" y="55" type="curve"/>
      <point x="225" y="460" type="line"/>
      <point x="74" y="431" type="line"/>
      <point x="15" y="431" type="line"/>
    </contour>
    <contour>
      <point x="114" y="597" type="curve" smooth="yes"/>
      <point x="114" y="546"/>
      <point x="134" y="523"/>
      <point x="185" y="523" type="curve" smooth="yes"/>
      <point x="235" y="523"/>
      <point x="256" y="546"/>
      <point x="256" y="597" type="curve" smooth="yes"/>
      <point x="256" y="647"/>
      <point x="239" y="672"/>
      <point x="185" y="672" type="curve" smooth="yes"/>
      <point x="134" y="672"/>
      <point x="114" y="647"/>
    </contour>
    <contour>
      <point x="319" y="597" type="curve" smooth="yes"/>
      <point x="319" y="546"/>
      <point x="339" y="523"/>
      <point x="390" y="523" type="curve" smooth="yes"/>
      <point x="440" y="523"/>
      <point x="461" y="546"/>
      <point x="461" y="597" type="curve" smooth="yes"/>
      <point x="461" y="647"/>
      <point x="444" y="672"/>
      <point x="390" y="672" type="curve" smooth="yes"/>
      <point x="339" y="672"/>
      <point x="319" y="647"/>
    </contour>
  </outline>
</glyph>
